<?xml version="1.0" encoding="utf-8" standalone="no"?>
<!DOCTYPE svg PUBLIC "-//W3C//DTD SVG 1.1//EN"
  "http://www.w3.org/Graphics/SVG/1.1/DTD/svg11.dtd">
<svg xmlns:xlink="http://www.w3.org/1999/xlink" width="305.599943pt" height="396.745647pt" viewBox="0 0 305.599943 396.745647" xmlns="http://www.w3.org/2000/svg" version="1.1">
 <metadata>
  <rdf:RDF xmlns:dc="http://purl.org/dc/elements/1.1/" xmlns:cc="http://creativecommons.org/ns#" xmlns:rdf="http://www.w3.org/1999/02/22-rdf-syntax-ns#">
   <cc:Work>
    <dc:type rdf:resource="http://purl.org/dc/dcmitype/StillImage"/>
    <dc:date>2022-08-18T23:55:58.298120</dc:date>
    <dc:format>image/svg+xml</dc:format>
    <dc:creator>
     <cc:Agent>
      <dc:title>Matplotlib v3.5.3, https://matplotlib.org/</dc:title>
     </cc:Agent>
    </dc:creator>
   </cc:Work>
  </rdf:RDF>
 </metadata>
 <defs>
  <style type="text/css">*{stroke-linejoin: round; stroke-linecap: butt}</style>
 </defs>
 <g id="figure_1">
  <g id="patch_1">
   <path d="M 0 396.745647 
L 305.599943 396.745647 
L 305.599943 0 
L 0 0 
z
" style="fill: #f3f2ee"/>
  </g>
  <g id="axes_1">
   <g id="patch_2">
    <path d="M 69.972698 349.483497 
C 75.110616 349.483497 80.03879 347.442181 83.671846 343.809125 
C 87.304903 340.176068 89.346219 335.247894 89.346219 330.109977 
C 89.346219 324.972059 87.304903 320.043885 83.671846 316.410829 
C 80.03879 312.777772 75.110616 310.736456 69.972698 310.736456 
C 64.834781 310.736456 59.906607 312.777772 56.273551 316.410829 
C 52.640494 320.043885 50.599178 324.972059 50.599178 330.109977 
C 50.599178 335.247894 52.640494 340.176068 56.273551 343.809125 
C 59.906607 347.442181 64.834781 349.483497 69.972698 349.483497 
z
" clip-path="url(#pe0935c6003)" style="fill: #747474; opacity: 0.8; stroke: #1f0909; stroke-linejoin: miter"/>
   </g>
   <g id="patch_3">
    <path d="M 121.939319 242.74853 
L 191.45607 242.74853 
Q 208.094505 242.74853 216.071837 234.23639 
L 241.5993 209.595982 
Q 247.06947 201.755852 248.437013 190.107659 
L 248.437013 86.169938 
Q 247.981165 76.985786 258.237735 76.089772 
C 270.773543 76.089772 270.773543 58.617482 258.237735 58.617482 
L 241.5993 58.617482 
C 233.16612 58.617482 229.747263 61.977538 229.747263 70.265675 
L 229.747263 181.595518 
Q 229.747263 190.77967 224.960864 197.723785 
L 211.969209 209.371978 
Q 206.271115 213.852052 196.470393 213.852052 
L 109.175587 213.852052 
C 87.978677 213.852052 87.978677 242.74853 109.175587 242.74853 
z
" clip-path="url(#pe0935c6003)" style="fill: #cfcfcf; opacity: 0.8; stroke: #1f0909; stroke-linejoin: miter"/>
   </g>
   <g id="patch_4">
    <path d="M 121.939319 297.629439 
L 157.723351 262.68486 
C 166.840302 253.724712 155.21619 242.076519 146.099239 251.036668 
L 106.440502 289.789309 
C 97.323551 298.749458 109.175587 310.621654 118.292538 301.661506 
z
" clip-path="url(#pe0935c6003)" style="fill: #cfcfcf; opacity: 0.8; stroke: #1f0909; stroke-linejoin: miter"/>
   </g>
   <g id="patch_5">
    <path d="M 121.939319 262.460857 
L 183.250814 262.460857 
Q 188.037213 261.564842 193.051536 257.308771 
L 216.071837 234.908401 
Q 219.034846 230.428327 219.490694 227.740282 
L 219.490694 197.499781 
C 220.402389 193.243711 222.225779 190.555666 228.379721 190.107659 
L 254.135107 190.107659 
Q 261.884515 188.539633 266.215067 185.403581 
L 268.950152 183.387548 
C 278.295027 173.755388 270.773543 165.019244 260.516973 175.323414 
Q 257.098116 178.011459 249.804555 179.355481 
L 221.314084 179.355481 
C 207.866581 179.355481 207.866581 191.003674 207.866581 194.139726 
L 208.322429 223.260208 
Q 206.954886 228.188289 203.53603 231.324341 
L 188.948908 245.436575 
Q 183.250814 250.140653 176.413101 251.484675 
L 114.873682 251.484675 
C 102.337874 251.484675 102.337874 262.460857 114.873682 262.460857 
z
" clip-path="url(#pe0935c6003)" style="fill: #747474; opacity: 0.8; stroke: #1f0909; stroke-linejoin: miter"/>
   </g>
   <g id="line2d_1">
    <path d="M 46.006172 375.923038 
L 93.676771 375.923038 
L 276.015789 193.584019 
L 276.015789 31.470842 
L 46.006172 31.470842 
L 46.006172 375.923038 
" clip-path="url(#pe0935c6003)" style="fill: none; stroke: #1f0909; stroke-width: 0.8; stroke-linecap: square"/>
   </g>
   <g id="line2d_2">
    <path d="M 57.396776 375.923038 
L 57.396776 31.470842 
" clip-path="url(#pe0935c6003)" style="fill: none; stroke: #1f0909; stroke-width: 0.5; stroke-linecap: square"/>
   </g>
   <g id="line2d_3">
    <path d="M 93.676771 375.923038 
L 93.676771 31.470842 
" clip-path="url(#pe0935c6003)" style="fill: none; stroke: #1f0909; stroke-width: 0.5; stroke-linecap: square"/>
   </g>
   <g id="line2d_4">
    <path d="M 109.730925 359.868884 
L 109.730925 31.470842 
" clip-path="url(#pe0935c6003)" style="fill: none; stroke: #1f0909; stroke-width: 0.5; stroke-linecap: square"/>
   </g>
   <g id="line2d_5">
    <path d="M 121.121528 348.478281 
L 121.121528 31.470842 
" clip-path="url(#pe0935c6003)" style="fill: none; stroke: #1f0909; stroke-width: 0.5; stroke-linecap: square"/>
   </g>
   <g id="line2d_6">
    <path d="M 148.566285 321.033524 
L 148.566285 31.470842 
" clip-path="url(#pe0935c6003)" style="fill: none; stroke: #1f0909; stroke-width: 0.5; stroke-linecap: square"/>
   </g>
   <g id="line2d_7">
    <path d="M 164.620438 304.97937 
L 164.620438 31.470842 
" clip-path="url(#pe0935c6003)" style="fill: none; stroke: #1f0909; stroke-width: 0.5; stroke-linecap: square"/>
   </g>
   <g id="line2d_8">
    <path d="M 176.011042 293.588767 
L 176.011042 31.470842 
" clip-path="url(#pe0935c6003)" style="fill: none; stroke: #1f0909; stroke-width: 0.5; stroke-linecap: square"/>
   </g>
   <g id="line2d_9">
    <path d="M 184.84628 284.753528 
L 184.84628 31.470842 
" clip-path="url(#pe0935c6003)" style="fill: none; stroke: #1f0909; stroke-width: 0.5; stroke-linecap: square"/>
   </g>
   <g id="line2d_10">
    <path d="M 212.291037 257.308771 
L 212.291037 31.470842 
" clip-path="url(#pe0935c6003)" style="fill: none; stroke: #1f0909; stroke-width: 0.5; stroke-linecap: square"/>
   </g>
   <g id="line2d_11">
    <path d="M 239.735794 229.864015 
L 239.735794 31.470842 
" clip-path="url(#pe0935c6003)" style="fill: none; stroke: #1f0909; stroke-width: 0.5; stroke-linecap: square"/>
   </g>
   <g id="line2d_12">
    <path d="M 255.789948 213.809861 
L 255.789948 31.470842 
" clip-path="url(#pe0935c6003)" style="fill: none; stroke: #1f0909; stroke-width: 0.5; stroke-linecap: square"/>
   </g>
   <g id="line2d_13">
    <path d="M 267.180551 202.419258 
L 267.180551 31.470842 
" clip-path="url(#pe0935c6003)" style="fill: none; stroke: #1f0909; stroke-width: 0.5; stroke-linecap: square"/>
   </g>
   <g id="line2d_14">
    <path d="M 46.006172 348.478281 
L 121.121528 348.478281 
" clip-path="url(#pe0935c6003)" style="fill: none; stroke: #1f0909; stroke-width: 0.5; stroke-linecap: square"/>
   </g>
   <g id="line2d_15">
    <path d="M 46.006172 321.033524 
L 148.566285 321.033524 
" clip-path="url(#pe0935c6003)" style="fill: none; stroke: #1f0909; stroke-width: 0.5; stroke-linecap: square"/>
   </g>
   <g id="line2d_16">
    <path d="M 46.006172 304.97937 
L 164.620438 304.97937 
" clip-path="url(#pe0935c6003)" style="fill: none; stroke: #1f0909; stroke-width: 0.5; stroke-linecap: square"/>
   </g>
   <g id="line2d_17">
    <path d="M 46.006172 293.588767 
L 176.011042 293.588767 
" clip-path="url(#pe0935c6003)" style="fill: none; stroke: #1f0909; stroke-width: 0.5; stroke-linecap: square"/>
   </g>
   <g id="line2d_18">
    <path d="M 46.006172 284.753528 
L 184.84628 284.753528 
" clip-path="url(#pe0935c6003)" style="fill: none; stroke: #1f0909; stroke-width: 0.5; stroke-linecap: square"/>
   </g>
   <g id="line2d_19">
    <path d="M 46.006172 257.308771 
L 212.291037 257.308771 
" clip-path="url(#pe0935c6003)" style="fill: none; stroke: #1f0909; stroke-width: 0.5; stroke-linecap: square"/>
   </g>
   <g id="line2d_20">
    <path d="M 46.006172 229.864015 
L 239.735794 229.864015 
" clip-path="url(#pe0935c6003)" style="fill: none; stroke: #1f0909; stroke-width: 0.5; stroke-linecap: square"/>
   </g>
   <g id="line2d_21">
    <path d="M 46.006172 213.809861 
L 255.789948 213.809861 
" clip-path="url(#pe0935c6003)" style="fill: none; stroke: #1f0909; stroke-width: 0.5; stroke-linecap: square"/>
   </g>
   <g id="line2d_22">
    <path d="M 46.006172 202.419258 
L 267.180551 202.419258 
" clip-path="url(#pe0935c6003)" style="fill: none; stroke: #1f0909; stroke-width: 0.5; stroke-linecap: square"/>
   </g>
   <g id="line2d_23">
    <path d="M 46.006172 193.584019 
L 276.015789 193.584019 
" clip-path="url(#pe0935c6003)" style="fill: none; stroke: #1f0909; stroke-width: 0.5; stroke-linecap: square"/>
   </g>
   <g id="line2d_24">
    <path d="M 46.006172 166.139262 
L 276.015789 166.139262 
" clip-path="url(#pe0935c6003)" style="fill: none; stroke: #1f0909; stroke-width: 0.5; stroke-linecap: square"/>
   </g>
   <g id="line2d_25">
    <path d="M 46.006172 138.694505 
L 276.015789 138.694505 
" clip-path="url(#pe0935c6003)" style="fill: none; stroke: #1f0909; stroke-width: 0.5; stroke-linecap: square"/>
   </g>
   <g id="line2d_26">
    <path d="M 46.006172 122.640352 
L 276.015789 122.640352 
" clip-path="url(#pe0935c6003)" style="fill: none; stroke: #1f0909; stroke-width: 0.5; stroke-linecap: square"/>
   </g>
   <g id="line2d_27">
    <path d="M 46.006172 111.249748 
L 276.015789 111.249748 
" clip-path="url(#pe0935c6003)" style="fill: none; stroke: #1f0909; stroke-width: 0.5; stroke-linecap: square"/>
   </g>
   <g id="line2d_28">
    <path d="M 46.006172 102.41451 
L 276.015789 102.41451 
" clip-path="url(#pe0935c6003)" style="fill: none; stroke: #1f0909; stroke-width: 0.5; stroke-linecap: square"/>
   </g>
   <g id="line2d_29">
    <path d="M 46.006172 74.969753 
L 276.015789 74.969753 
" clip-path="url(#pe0935c6003)" style="fill: none; stroke: #1f0909; stroke-width: 0.5; stroke-linecap: square"/>
   </g>
   <g id="line2d_30">
    <path d="M 46.006172 47.524996 
L 276.015789 47.524996 
" clip-path="url(#pe0935c6003)" style="fill: none; stroke: #1f0909; stroke-width: 0.5; stroke-linecap: square"/>
   </g>
   <g id="text_1">
    <!-- C (first percentile) -->
    <g style="fill: #1f0909" transform="translate(9.67875 207.740512)rotate(-90)scale(0.08 -0.08)">
     <defs>
      <path id="DejaVuSans-Bold-43" d="M 4288 256 
Q 3956 84 3597 -3 
Q 3238 -91 2847 -91 
Q 1681 -91 1000 561 
Q 319 1213 319 2328 
Q 319 3447 1000 4098 
Q 1681 4750 2847 4750 
Q 3238 4750 3597 4662 
Q 3956 4575 4288 4403 
L 4288 3438 
Q 3953 3666 3628 3772 
Q 3303 3878 2944 3878 
Q 2300 3878 1931 3465 
Q 1563 3053 1563 2328 
Q 1563 1606 1931 1193 
Q 2300 781 2944 781 
Q 3303 781 3628 887 
Q 3953 994 4288 1222 
L 4288 256 
z
" transform="scale(0.015625)"/>
      <path id="DejaVuSans-Bold-20" transform="scale(0.015625)"/>
      <path id="DejaVuSans-Bold-28" d="M 2413 -844 
L 1484 -844 
Q 1006 -72 778 623 
Q 550 1319 550 2003 
Q 550 2688 779 3389 
Q 1009 4091 1484 4856 
L 2413 4856 
Q 2013 4116 1813 3408 
Q 1613 2700 1613 2009 
Q 1613 1319 1811 609 
Q 2009 -100 2413 -844 
z
" transform="scale(0.015625)"/>
      <path id="DejaVuSans-Bold-66" d="M 2841 4863 
L 2841 4128 
L 2222 4128 
Q 1984 4128 1890 4042 
Q 1797 3956 1797 3744 
L 1797 3500 
L 2753 3500 
L 2753 2700 
L 1797 2700 
L 1797 0 
L 678 0 
L 678 2700 
L 122 2700 
L 122 3500 
L 678 3500 
L 678 3744 
Q 678 4316 997 4589 
Q 1316 4863 1984 4863 
L 2841 4863 
z
" transform="scale(0.015625)"/>
      <path id="DejaVuSans-Bold-69" d="M 538 3500 
L 1656 3500 
L 1656 0 
L 538 0 
L 538 3500 
z
M 538 4863 
L 1656 4863 
L 1656 3950 
L 538 3950 
L 538 4863 
z
" transform="scale(0.015625)"/>
      <path id="DejaVuSans-Bold-72" d="M 3138 2547 
Q 2991 2616 2845 2648 
Q 2700 2681 2553 2681 
Q 2122 2681 1889 2404 
Q 1656 2128 1656 1613 
L 1656 0 
L 538 0 
L 538 3500 
L 1656 3500 
L 1656 2925 
Q 1872 3269 2151 3426 
Q 2431 3584 2822 3584 
Q 2878 3584 2943 3579 
Q 3009 3575 3134 3559 
L 3138 2547 
z
" transform="scale(0.015625)"/>
      <path id="DejaVuSans-Bold-73" d="M 3272 3391 
L 3272 2541 
Q 2913 2691 2578 2766 
Q 2244 2841 1947 2841 
Q 1628 2841 1473 2761 
Q 1319 2681 1319 2516 
Q 1319 2381 1436 2309 
Q 1553 2238 1856 2203 
L 2053 2175 
Q 2913 2066 3209 1816 
Q 3506 1566 3506 1031 
Q 3506 472 3093 190 
Q 2681 -91 1863 -91 
Q 1516 -91 1145 -36 
Q 775 19 384 128 
L 384 978 
Q 719 816 1070 734 
Q 1422 653 1784 653 
Q 2113 653 2278 743 
Q 2444 834 2444 1013 
Q 2444 1163 2330 1236 
Q 2216 1309 1875 1350 
L 1678 1375 
Q 931 1469 631 1722 
Q 331 1975 331 2491 
Q 331 3047 712 3315 
Q 1094 3584 1881 3584 
Q 2191 3584 2531 3537 
Q 2872 3491 3272 3391 
z
" transform="scale(0.015625)"/>
      <path id="DejaVuSans-Bold-74" d="M 1759 4494 
L 1759 3500 
L 2913 3500 
L 2913 2700 
L 1759 2700 
L 1759 1216 
Q 1759 972 1856 886 
Q 1953 800 2241 800 
L 2816 800 
L 2816 0 
L 1856 0 
Q 1194 0 917 276 
Q 641 553 641 1216 
L 641 2700 
L 84 2700 
L 84 3500 
L 641 3500 
L 641 4494 
L 1759 4494 
z
" transform="scale(0.015625)"/>
      <path id="DejaVuSans-Bold-70" d="M 1656 506 
L 1656 -1331 
L 538 -1331 
L 538 3500 
L 1656 3500 
L 1656 2988 
Q 1888 3294 2169 3439 
Q 2450 3584 2816 3584 
Q 3463 3584 3878 3070 
Q 4294 2556 4294 1747 
Q 4294 938 3878 423 
Q 3463 -91 2816 -91 
Q 2450 -91 2169 54 
Q 1888 200 1656 506 
z
M 2400 2772 
Q 2041 2772 1848 2508 
Q 1656 2244 1656 1747 
Q 1656 1250 1848 986 
Q 2041 722 2400 722 
Q 2759 722 2948 984 
Q 3138 1247 3138 1747 
Q 3138 2247 2948 2509 
Q 2759 2772 2400 2772 
z
" transform="scale(0.015625)"/>
      <path id="DejaVuSans-Bold-65" d="M 4031 1759 
L 4031 1441 
L 1416 1441 
Q 1456 1047 1700 850 
Q 1944 653 2381 653 
Q 2734 653 3104 758 
Q 3475 863 3866 1075 
L 3866 213 
Q 3469 63 3072 -14 
Q 2675 -91 2278 -91 
Q 1328 -91 801 392 
Q 275 875 275 1747 
Q 275 2603 792 3093 
Q 1309 3584 2216 3584 
Q 3041 3584 3536 3087 
Q 4031 2591 4031 1759 
z
M 2881 2131 
Q 2881 2450 2695 2645 
Q 2509 2841 2209 2841 
Q 1884 2841 1681 2658 
Q 1478 2475 1428 2131 
L 2881 2131 
z
" transform="scale(0.015625)"/>
      <path id="DejaVuSans-Bold-63" d="M 3366 3391 
L 3366 2478 
Q 3138 2634 2908 2709 
Q 2678 2784 2431 2784 
Q 1963 2784 1702 2511 
Q 1441 2238 1441 1747 
Q 1441 1256 1702 982 
Q 1963 709 2431 709 
Q 2694 709 2930 787 
Q 3166 866 3366 1019 
L 3366 103 
Q 3103 6 2833 -42 
Q 2563 -91 2291 -91 
Q 1344 -91 809 395 
Q 275 881 275 1747 
Q 275 2613 809 3098 
Q 1344 3584 2291 3584 
Q 2566 3584 2833 3536 
Q 3100 3488 3366 3391 
z
" transform="scale(0.015625)"/>
      <path id="DejaVuSans-Bold-6e" d="M 4056 2131 
L 4056 0 
L 2931 0 
L 2931 347 
L 2931 1631 
Q 2931 2084 2911 2256 
Q 2891 2428 2841 2509 
Q 2775 2619 2662 2680 
Q 2550 2741 2406 2741 
Q 2056 2741 1856 2470 
Q 1656 2200 1656 1722 
L 1656 0 
L 538 0 
L 538 3500 
L 1656 3500 
L 1656 2988 
Q 1909 3294 2193 3439 
Q 2478 3584 2822 3584 
Q 3428 3584 3742 3212 
Q 4056 2841 4056 2131 
z
" transform="scale(0.015625)"/>
      <path id="DejaVuSans-Bold-6c" d="M 538 4863 
L 1656 4863 
L 1656 0 
L 538 0 
L 538 4863 
z
" transform="scale(0.015625)"/>
      <path id="DejaVuSans-Bold-29" d="M 513 -844 
Q 913 -100 1113 609 
Q 1313 1319 1313 2009 
Q 1313 2700 1113 3408 
Q 913 4116 513 4856 
L 1441 4856 
Q 1916 4091 2145 3389 
Q 2375 2688 2375 2003 
Q 2375 1319 2147 623 
Q 1919 -72 1441 -844 
L 513 -844 
z
" transform="scale(0.015625)"/>
     </defs>
     <use xlink:href="#DejaVuSans-Bold-43"/>
     <use xlink:href="#DejaVuSans-Bold-20" x="73.388672"/>
     <use xlink:href="#DejaVuSans-Bold-28" x="108.203125"/>
     <use xlink:href="#DejaVuSans-Bold-66" x="153.90625"/>
     <use xlink:href="#DejaVuSans-Bold-69" x="197.412109"/>
     <use xlink:href="#DejaVuSans-Bold-72" x="231.689453"/>
     <use xlink:href="#DejaVuSans-Bold-73" x="281.005859"/>
     <use xlink:href="#DejaVuSans-Bold-74" x="340.527344"/>
     <use xlink:href="#DejaVuSans-Bold-20" x="388.330078"/>
     <use xlink:href="#DejaVuSans-Bold-70" x="423.144531"/>
     <use xlink:href="#DejaVuSans-Bold-65" x="494.726562"/>
     <use xlink:href="#DejaVuSans-Bold-72" x="562.548828"/>
     <use xlink:href="#DejaVuSans-Bold-63" x="611.865234"/>
     <use xlink:href="#DejaVuSans-Bold-65" x="671.142578"/>
     <use xlink:href="#DejaVuSans-Bold-6e" x="738.964844"/>
     <use xlink:href="#DejaVuSans-Bold-74" x="810.15625"/>
     <use xlink:href="#DejaVuSans-Bold-69" x="857.958984"/>
     <use xlink:href="#DejaVuSans-Bold-6c" x="892.236328"/>
     <use xlink:href="#DejaVuSans-Bold-65" x="926.513672"/>
     <use xlink:href="#DejaVuSans-Bold-29" x="994.335938"/>
    </g>
   </g>
   <g id="text_2">
    <!-- M (median) -->
    <g style="fill: #1f0909" transform="translate(131.709648 9.67875)scale(0.08 -0.08)">
     <defs>
      <path id="DejaVuSans-Bold-4d" d="M 588 4666 
L 2119 4666 
L 3181 2169 
L 4250 4666 
L 5778 4666 
L 5778 0 
L 4641 0 
L 4641 3413 
L 3566 897 
L 2803 897 
L 1728 3413 
L 1728 0 
L 588 0 
L 588 4666 
z
" transform="scale(0.015625)"/>
      <path id="DejaVuSans-Bold-6d" d="M 3781 2919 
Q 3994 3244 4286 3414 
Q 4578 3584 4928 3584 
Q 5531 3584 5847 3212 
Q 6163 2841 6163 2131 
L 6163 0 
L 5038 0 
L 5038 1825 
Q 5041 1866 5042 1909 
Q 5044 1953 5044 2034 
Q 5044 2406 4934 2573 
Q 4825 2741 4581 2741 
Q 4263 2741 4089 2478 
Q 3916 2216 3909 1719 
L 3909 0 
L 2784 0 
L 2784 1825 
Q 2784 2406 2684 2573 
Q 2584 2741 2328 2741 
Q 2006 2741 1831 2477 
Q 1656 2213 1656 1722 
L 1656 0 
L 531 0 
L 531 3500 
L 1656 3500 
L 1656 2988 
Q 1863 3284 2130 3434 
Q 2397 3584 2719 3584 
Q 3081 3584 3359 3409 
Q 3638 3234 3781 2919 
z
" transform="scale(0.015625)"/>
      <path id="DejaVuSans-Bold-64" d="M 2919 2988 
L 2919 4863 
L 4044 4863 
L 4044 0 
L 2919 0 
L 2919 506 
Q 2688 197 2409 53 
Q 2131 -91 1766 -91 
Q 1119 -91 703 423 
Q 288 938 288 1747 
Q 288 2556 703 3070 
Q 1119 3584 1766 3584 
Q 2128 3584 2408 3439 
Q 2688 3294 2919 2988 
z
M 2181 722 
Q 2541 722 2730 984 
Q 2919 1247 2919 1747 
Q 2919 2247 2730 2509 
Q 2541 2772 2181 2772 
Q 1825 2772 1636 2509 
Q 1447 2247 1447 1747 
Q 1447 1247 1636 984 
Q 1825 722 2181 722 
z
" transform="scale(0.015625)"/>
      <path id="DejaVuSans-Bold-61" d="M 2106 1575 
Q 1756 1575 1579 1456 
Q 1403 1338 1403 1106 
Q 1403 894 1545 773 
Q 1688 653 1941 653 
Q 2256 653 2472 879 
Q 2688 1106 2688 1447 
L 2688 1575 
L 2106 1575 
z
M 3816 1997 
L 3816 0 
L 2688 0 
L 2688 519 
Q 2463 200 2181 54 
Q 1900 -91 1497 -91 
Q 953 -91 614 226 
Q 275 544 275 1050 
Q 275 1666 698 1953 
Q 1122 2241 2028 2241 
L 2688 2241 
L 2688 2328 
Q 2688 2594 2478 2717 
Q 2269 2841 1825 2841 
Q 1466 2841 1156 2769 
Q 847 2697 581 2553 
L 581 3406 
Q 941 3494 1303 3539 
Q 1666 3584 2028 3584 
Q 2975 3584 3395 3211 
Q 3816 2838 3816 1997 
z
" transform="scale(0.015625)"/>
     </defs>
     <use xlink:href="#DejaVuSans-Bold-4d"/>
     <use xlink:href="#DejaVuSans-Bold-20" x="99.511719"/>
     <use xlink:href="#DejaVuSans-Bold-28" x="134.326172"/>
     <use xlink:href="#DejaVuSans-Bold-6d" x="180.029297"/>
     <use xlink:href="#DejaVuSans-Bold-65" x="284.228516"/>
     <use xlink:href="#DejaVuSans-Bold-64" x="352.050781"/>
     <use xlink:href="#DejaVuSans-Bold-69" x="423.632812"/>
     <use xlink:href="#DejaVuSans-Bold-61" x="457.910156"/>
     <use xlink:href="#DejaVuSans-Bold-6e" x="525.390625"/>
     <use xlink:href="#DejaVuSans-Bold-29" x="596.582031"/>
    </g>
   </g>
   <g id="text_3">
    <!-- C = M -->
    <g style="fill: #1f0909" transform="translate(193.231419 291.457607)rotate(-45)scale(0.08 -0.08)">
     <defs>
      <path id="DejaVuSans-Bold-3d" d="M 678 3084 
L 4684 3084 
L 4684 2350 
L 678 2350 
L 678 3084 
z
M 678 1663 
L 4684 1663 
L 4684 922 
L 678 922 
L 678 1663 
z
" transform="scale(0.015625)"/>
     </defs>
     <use xlink:href="#DejaVuSans-Bold-43"/>
     <use xlink:href="#DejaVuSans-Bold-20" x="73.388672"/>
     <use xlink:href="#DejaVuSans-Bold-3d" x="108.203125"/>
     <use xlink:href="#DejaVuSans-Bold-20" x="191.992188"/>
     <use xlink:href="#DejaVuSans-Bold-4d" x="226.806641"/>
    </g>
   </g>
   <g id="text_4">
    <!-- mm -->
    <g style="fill: #1f0909" transform="translate(32.286494 33.126467)scale(0.06 -0.06)">
     <defs>
      <path id="DejaVuSans-6d" d="M 3328 2828 
Q 3544 3216 3844 3400 
Q 4144 3584 4550 3584 
Q 5097 3584 5394 3201 
Q 5691 2819 5691 2113 
L 5691 0 
L 5113 0 
L 5113 2094 
Q 5113 2597 4934 2840 
Q 4756 3084 4391 3084 
Q 3944 3084 3684 2787 
Q 3425 2491 3425 1978 
L 3425 0 
L 2847 0 
L 2847 2094 
Q 2847 2600 2669 2842 
Q 2491 3084 2119 3084 
Q 1678 3084 1418 2786 
Q 1159 2488 1159 1978 
L 1159 0 
L 581 0 
L 581 3500 
L 1159 3500 
L 1159 2956 
Q 1356 3278 1631 3431 
Q 1906 3584 2284 3584 
Q 2666 3584 2933 3390 
Q 3200 3197 3328 2828 
z
" transform="scale(0.015625)"/>
     </defs>
     <use xlink:href="#DejaVuSans-6d"/>
     <use xlink:href="#DejaVuSans-6d" x="97.412109"/>
    </g>
   </g>
   <g id="text_5">
    <!-- phi ($\phi$) -->
    <g style="fill: #1f0909" transform="translate(8.061091 33.120842)scale(0.06 -0.06)">
     <defs>
      <path id="DejaVuSans-70" d="M 1159 525 
L 1159 -1331 
L 581 -1331 
L 581 3500 
L 1159 3500 
L 1159 2969 
Q 1341 3281 1617 3432 
Q 1894 3584 2278 3584 
Q 2916 3584 3314 3078 
Q 3713 2572 3713 1747 
Q 3713 922 3314 415 
Q 2916 -91 2278 -91 
Q 1894 -91 1617 61 
Q 1341 213 1159 525 
z
M 3116 1747 
Q 3116 2381 2855 2742 
Q 2594 3103 2138 3103 
Q 1681 3103 1420 2742 
Q 1159 2381 1159 1747 
Q 1159 1113 1420 752 
Q 1681 391 2138 391 
Q 2594 391 2855 752 
Q 3116 1113 3116 1747 
z
" transform="scale(0.015625)"/>
      <path id="DejaVuSans-68" d="M 3513 2113 
L 3513 0 
L 2938 0 
L 2938 2094 
Q 2938 2591 2744 2837 
Q 2550 3084 2163 3084 
Q 1697 3084 1428 2787 
Q 1159 2491 1159 1978 
L 1159 0 
L 581 0 
L 581 4863 
L 1159 4863 
L 1159 2956 
Q 1366 3272 1645 3428 
Q 1925 3584 2291 3584 
Q 2894 3584 3203 3211 
Q 3513 2838 3513 2113 
z
" transform="scale(0.015625)"/>
      <path id="DejaVuSans-69" d="M 603 3500 
L 1178 3500 
L 1178 0 
L 603 0 
L 603 3500 
z
M 603 4863 
L 1178 4863 
L 1178 4134 
L 603 4134 
L 603 4863 
z
" transform="scale(0.015625)"/>
      <path id="DejaVuSans-20" transform="scale(0.015625)"/>
      <path id="DejaVuSans-28" d="M 1984 4856 
Q 1566 4138 1362 3434 
Q 1159 2731 1159 2009 
Q 1159 1288 1364 580 
Q 1569 -128 1984 -844 
L 1484 -844 
Q 1016 -109 783 600 
Q 550 1309 550 2009 
Q 550 2706 781 3412 
Q 1013 4119 1484 4856 
L 1984 4856 
z
" transform="scale(0.015625)"/>
      <path id="DejaVuSans-Oblique-3d5" d="M 2991 4863 
L 2738 3572 
Q 3363 3572 3684 3094 
Q 4016 2606 3850 1747 
Q 3681 888 3159 400 
Q 2653 -78 2028 -78 
L 1784 -1331 
L 1213 -1331 
L 1456 -78 
Q 834 -78 509 400 
Q 178 888 347 1747 
Q 513 2606 1034 3094 
Q 1544 3572 2166 3572 
L 2419 4863 
L 2991 4863 
z
M 2128 434 
Q 2481 434 2784 756 
Q 3116 1116 3244 1747 
Q 3369 2372 3169 2738 
Q 2991 3059 2638 3059 
L 2128 434 
z
M 1556 434 
L 2066 3059 
Q 1716 3059 1413 2738 
Q 1072 2372 953 1747 
Q 834 1116 1028 756 
Q 1203 434 1556 434 
z
" transform="scale(0.015625)"/>
      <path id="DejaVuSans-29" d="M 513 4856 
L 1013 4856 
Q 1481 4119 1714 3412 
Q 1947 2706 1947 2009 
Q 1947 1309 1714 600 
Q 1481 -109 1013 -844 
L 513 -844 
Q 928 -128 1133 580 
Q 1338 1288 1338 2009 
Q 1338 2731 1133 3434 
Q 928 4138 513 4856 
z
" transform="scale(0.015625)"/>
     </defs>
     <use xlink:href="#DejaVuSans-70" transform="translate(0 0.015625)"/>
     <use xlink:href="#DejaVuSans-68" transform="translate(63.476562 0.015625)"/>
     <use xlink:href="#DejaVuSans-69" transform="translate(126.855469 0.015625)"/>
     <use xlink:href="#DejaVuSans-20" transform="translate(154.638672 0.015625)"/>
     <use xlink:href="#DejaVuSans-28" transform="translate(186.425781 0.015625)"/>
     <use xlink:href="#DejaVuSans-Oblique-3d5" transform="translate(225.439453 0.015625)"/>
     <use xlink:href="#DejaVuSans-29" transform="translate(291.40625 0.015625)"/>
    </g>
   </g>
   <g id="text_6">
    <!-- 1.0 -->
    <g style="fill: #1f0909" transform="translate(271.244852 28.291212)scale(0.06 -0.06)">
     <defs>
      <path id="DejaVuSans-31" d="M 794 531 
L 1825 531 
L 1825 4091 
L 703 3866 
L 703 4441 
L 1819 4666 
L 2450 4666 
L 2450 531 
L 3481 531 
L 3481 0 
L 794 0 
L 794 531 
z
" transform="scale(0.015625)"/>
      <path id="DejaVuSans-2e" d="M 684 794 
L 1344 794 
L 1344 0 
L 684 0 
L 684 794 
z
" transform="scale(0.015625)"/>
      <path id="DejaVuSans-30" d="M 2034 4250 
Q 1547 4250 1301 3770 
Q 1056 3291 1056 2328 
Q 1056 1369 1301 889 
Q 1547 409 2034 409 
Q 2525 409 2770 889 
Q 3016 1369 3016 2328 
Q 3016 3291 2770 3770 
Q 2525 4250 2034 4250 
z
M 2034 4750 
Q 2819 4750 3233 4129 
Q 3647 3509 3647 2328 
Q 3647 1150 3233 529 
Q 2819 -91 2034 -91 
Q 1250 -91 836 529 
Q 422 1150 422 2328 
Q 422 3509 836 4129 
Q 1250 4750 2034 4750 
z
" transform="scale(0.015625)"/>
     </defs>
     <use xlink:href="#DejaVuSans-31"/>
     <use xlink:href="#DejaVuSans-2e" x="63.623047"/>
     <use xlink:href="#DejaVuSans-30" x="95.410156"/>
    </g>
   </g>
   <g id="text_7">
    <!-- 0.0 -->
    <g style="fill: #1f0909" transform="translate(271.244852 22.187706)scale(0.06 -0.06)">
     <use xlink:href="#DejaVuSans-30"/>
     <use xlink:href="#DejaVuSans-2e" x="63.623047"/>
     <use xlink:href="#DejaVuSans-30" x="95.410156"/>
    </g>
   </g>
   <g id="text_8">
    <!-- mm -->
    <g style="fill: #1f0909" transform="translate(286.225568 28.291212)scale(0.06 -0.06)">
     <use xlink:href="#DejaVuSans-6d"/>
     <use xlink:href="#DejaVuSans-6d" x="97.412109"/>
    </g>
   </g>
   <g id="text_9">
    <!-- phi ($\phi$) -->
    <g style="fill: #1f0909" transform="translate(282.139943 22.175518)scale(0.06 -0.06)">
     <use xlink:href="#DejaVuSans-70" transform="translate(0 0.015625)"/>
     <use xlink:href="#DejaVuSans-68" transform="translate(63.476562 0.015625)"/>
     <use xlink:href="#DejaVuSans-69" transform="translate(126.855469 0.015625)"/>
     <use xlink:href="#DejaVuSans-20" transform="translate(154.638672 0.015625)"/>
     <use xlink:href="#DejaVuSans-28" transform="translate(186.425781 0.015625)"/>
     <use xlink:href="#DejaVuSans-Oblique-3d5" transform="translate(225.439453 0.015625)"/>
     <use xlink:href="#DejaVuSans-29" transform="translate(291.40625 0.015625)"/>
    </g>
   </g>
   <g id="text_10">
    <!-- I -->
    <g style="fill: #1f0909" transform="translate(260.405329 148.518858)scale(0.08 -0.08)">
     <defs>
      <path id="DejaVuSans-Bold-49" d="M 588 4666 
L 1791 4666 
L 1791 0 
L 588 0 
L 588 4666 
z
" transform="scale(0.015625)"/>
     </defs>
     <use xlink:href="#DejaVuSans-Bold-49"/>
    </g>
   </g>
   <g id="text_11">
    <!-- II -->
    <g style="fill: #1f0909" transform="translate(197.924184 148.518858)scale(0.08 -0.08)">
     <use xlink:href="#DejaVuSans-Bold-49"/>
     <use xlink:href="#DejaVuSans-Bold-49" x="37.207031"/>
    </g>
   </g>
   <g id="text_12">
    <!-- III -->
    <g style="fill: #1f0909" transform="translate(132.711307 148.518858)scale(0.08 -0.08)">
     <use xlink:href="#DejaVuSans-Bold-49"/>
     <use xlink:href="#DejaVuSans-Bold-49" x="37.207031"/>
     <use xlink:href="#DejaVuSans-Bold-49" x="74.414062"/>
    </g>
   </g>
   <g id="text_13">
    <!-- IV -->
    <g style="fill: #1f0909" transform="translate(244.771356 211.061599)scale(0.08 -0.08)">
     <defs>
      <path id="DejaVuSans-Bold-56" d="M 31 4666 
L 1241 4666 
L 2478 1222 
L 3713 4666 
L 4922 4666 
L 3194 0 
L 1759 0 
L 31 4666 
z
" transform="scale(0.015625)"/>
     </defs>
     <use xlink:href="#DejaVuSans-Bold-49"/>
     <use xlink:href="#DejaVuSans-Bold-56" x="37.207031"/>
    </g>
   </g>
   <g id="text_14">
    <!-- V -->
    <g style="fill: #1f0909" transform="translate(197.804809 211.061599)scale(0.08 -0.08)">
     <use xlink:href="#DejaVuSans-Bold-56"/>
    </g>
   </g>
   <g id="text_15">
    <!-- VI -->
    <g style="fill: #1f0909" transform="translate(152.817773 276.572869)scale(0.08 -0.08)">
     <use xlink:href="#DejaVuSans-Bold-56"/>
     <use xlink:href="#DejaVuSans-Bold-49" x="77.392578"/>
    </g>
   </g>
   <g id="text_16">
    <!-- VII -->
    <g style="fill: #1f0909" transform="translate(131.103807 211.061599)scale(0.08 -0.08)">
     <use xlink:href="#DejaVuSans-Bold-56"/>
     <use xlink:href="#DejaVuSans-Bold-49" x="77.392578"/>
     <use xlink:href="#DejaVuSans-Bold-49" x="114.599609"/>
    </g>
   </g>
   <g id="text_17">
    <!-- VIII -->
    <g style="fill: #1f0909" transform="translate(71.994435 211.061599)scale(0.08 -0.08)">
     <use xlink:href="#DejaVuSans-Bold-56"/>
     <use xlink:href="#DejaVuSans-Bold-49" x="77.392578"/>
     <use xlink:href="#DejaVuSans-Bold-49" x="114.599609"/>
     <use xlink:href="#DejaVuSans-Bold-49" x="151.806641"/>
    </g>
   </g>
   <g id="text_18">
    <!-- IX -->
    <g style="fill: #1f0909" transform="translate(74.98256 148.518858)scale(0.08 -0.08)">
     <defs>
      <path id="DejaVuSans-Bold-58" d="M 3188 2381 
L 4806 0 
L 3553 0 
L 2463 1594 
L 1381 0 
L 122 0 
L 1741 2381 
L 184 4666 
L 1441 4666 
L 2463 3163 
L 3481 4666 
L 4744 4666 
L 3188 2381 
z
" transform="scale(0.015625)"/>
     </defs>
     <use xlink:href="#DejaVuSans-Bold-49"/>
     <use xlink:href="#DejaVuSans-Bold-58" x="37.207031"/>
    </g>
   </g>
   <g id="text_19">
    <!-- S -->
    <g style="fill: #1f0909" transform="translate(113.612477 259.240334)scale(0.07 -0.07)">
     <defs>
      <path id="DejaVuSans-53" d="M 3425 4513 
L 3425 3897 
Q 3066 4069 2747 4153 
Q 2428 4238 2131 4238 
Q 1616 4238 1336 4038 
Q 1056 3838 1056 3469 
Q 1056 3159 1242 3001 
Q 1428 2844 1947 2747 
L 2328 2669 
Q 3034 2534 3370 2195 
Q 3706 1856 3706 1288 
Q 3706 609 3251 259 
Q 2797 -91 1919 -91 
Q 1588 -91 1214 -16 
Q 841 59 441 206 
L 441 856 
Q 825 641 1194 531 
Q 1563 422 1919 422 
Q 2459 422 2753 634 
Q 3047 847 3047 1241 
Q 3047 1584 2836 1778 
Q 2625 1972 2144 2069 
L 1759 2144 
Q 1053 2284 737 2584 
Q 422 2884 422 3419 
Q 422 4038 858 4394 
Q 1294 4750 2059 4750 
Q 2388 4750 2728 4690 
Q 3069 4631 3425 4513 
z
" transform="scale(0.015625)"/>
     </defs>
     <use xlink:href="#DejaVuSans-53"/>
    </g>
   </g>
   <g id="text_20">
    <!-- R -->
    <g style="fill: #1f0909" transform="translate(188.563058 253.023862)scale(0.07 -0.07)">
     <defs>
      <path id="DejaVuSans-52" d="M 2841 2188 
Q 3044 2119 3236 1894 
Q 3428 1669 3622 1275 
L 4263 0 
L 3584 0 
L 2988 1197 
Q 2756 1666 2539 1819 
Q 2322 1972 1947 1972 
L 1259 1972 
L 1259 0 
L 628 0 
L 628 4666 
L 2053 4666 
Q 2853 4666 3247 4331 
Q 3641 3997 3641 3322 
Q 3641 2881 3436 2590 
Q 3231 2300 2841 2188 
z
M 1259 4147 
L 1259 2491 
L 2053 2491 
Q 2509 2491 2742 2702 
Q 2975 2913 2975 3322 
Q 2975 3731 2742 3939 
Q 2509 4147 2053 4147 
L 1259 4147 
z
" transform="scale(0.015625)"/>
     </defs>
     <use xlink:href="#DejaVuSans-52"/>
    </g>
   </g>
   <g id="text_21">
    <!-- Q -->
    <g style="fill: #1f0909" transform="translate(211.031653 228.383422)scale(0.07 -0.07)">
     <defs>
      <path id="DejaVuSans-51" d="M 2522 4238 
Q 1834 4238 1429 3725 
Q 1025 3213 1025 2328 
Q 1025 1447 1429 934 
Q 1834 422 2522 422 
Q 3209 422 3611 934 
Q 4013 1447 4013 2328 
Q 4013 3213 3611 3725 
Q 3209 4238 2522 4238 
z
M 3406 84 
L 4238 -825 
L 3475 -825 
L 2784 -78 
Q 2681 -84 2626 -87 
Q 2572 -91 2522 -91 
Q 1538 -91 948 567 
Q 359 1225 359 2328 
Q 359 3434 948 4092 
Q 1538 4750 2522 4750 
Q 3503 4750 4090 4092 
Q 4678 3434 4678 2328 
Q 4678 1516 4351 937 
Q 4025 359 3406 84 
z
" transform="scale(0.015625)"/>
     </defs>
     <use xlink:href="#DejaVuSans-51"/>
    </g>
   </g>
   <g id="text_22">
    <!-- P -->
    <g style="fill: #1f0909" transform="translate(213.954397 190.258191)scale(0.07 -0.07)">
     <defs>
      <path id="DejaVuSans-50" d="M 1259 4147 
L 1259 2394 
L 2053 2394 
Q 2494 2394 2734 2622 
Q 2975 2850 2975 3272 
Q 2975 3691 2734 3919 
Q 2494 4147 2053 4147 
L 1259 4147 
z
M 628 4666 
L 2053 4666 
Q 2838 4666 3239 4311 
Q 3641 3956 3641 3272 
Q 3641 2581 3239 2228 
Q 2838 1875 2053 1875 
L 1259 1875 
L 1259 0 
L 628 0 
L 628 4666 
z
" transform="scale(0.015625)"/>
     </defs>
     <use xlink:href="#DejaVuSans-50"/>
    </g>
   </g>
   <g id="text_23">
    <!-- O -->
    <g style="fill: #1f0909" transform="translate(249.589627 186.208039)scale(0.07 -0.07)">
     <defs>
      <path id="DejaVuSans-4f" d="M 2522 4238 
Q 1834 4238 1429 3725 
Q 1025 3213 1025 2328 
Q 1025 1447 1429 934 
Q 1834 422 2522 422 
Q 3209 422 3611 934 
Q 4013 1447 4013 2328 
Q 4013 3213 3611 3725 
Q 3209 4238 2522 4238 
z
M 2522 4750 
Q 3503 4750 4090 4092 
Q 4678 3434 4678 2328 
Q 4678 1225 4090 567 
Q 3503 -91 2522 -91 
Q 1538 -91 948 565 
Q 359 1222 359 2328 
Q 359 3434 948 4092 
Q 1538 4750 2522 4750 
z
" transform="scale(0.015625)"/>
     </defs>
     <use xlink:href="#DejaVuSans-4f"/>
    </g>
   </g>
   <g id="text_24">
    <!-- N -->
    <g style="fill: #1f0909" transform="translate(264.562114 179.939435)scale(0.07 -0.07)">
     <defs>
      <path id="DejaVuSans-4e" d="M 628 4666 
L 1478 4666 
L 3547 763 
L 3547 4666 
L 4159 4666 
L 4159 0 
L 3309 0 
L 1241 3903 
L 1241 0 
L 628 0 
L 628 4666 
z
" transform="scale(0.015625)"/>
     </defs>
     <use xlink:href="#DejaVuSans-4e"/>
    </g>
   </g>
   <g id="text_25">
    <!-- T -->
    <g style="fill: #1f0909" transform="translate(67.86803 331.800325)scale(0.07 -0.07)">
     <defs>
      <path id="DejaVuSans-54" d="M -19 4666 
L 3928 4666 
L 3928 4134 
L 2272 4134 
L 2272 0 
L 1638 0 
L 1638 4134 
L -19 4134 
L -19 4666 
z
" transform="scale(0.015625)"/>
     </defs>
     <use xlink:href="#DejaVuSans-54"/>
    </g>
   </g>
   <g id="text_26">
    <!-- S -->
    <g style="fill: #1f0909" transform="translate(99.631384 225.267204)scale(0.08 -0.08)">
     <defs>
      <path id="DejaVuSans-Bold-53" d="M 3834 4519 
L 3834 3531 
Q 3450 3703 3084 3790 
Q 2719 3878 2394 3878 
Q 1963 3878 1756 3759 
Q 1550 3641 1550 3391 
Q 1550 3203 1689 3098 
Q 1828 2994 2194 2919 
L 2706 2816 
Q 3484 2659 3812 2340 
Q 4141 2022 4141 1434 
Q 4141 663 3683 286 
Q 3225 -91 2284 -91 
Q 1841 -91 1394 -6 
Q 947 78 500 244 
L 500 1259 
Q 947 1022 1364 901 
Q 1781 781 2169 781 
Q 2563 781 2772 912 
Q 2981 1044 2981 1288 
Q 2981 1506 2839 1625 
Q 2697 1744 2272 1838 
L 1806 1941 
Q 1106 2091 782 2419 
Q 459 2747 459 3303 
Q 459 4000 909 4375 
Q 1359 4750 2203 4750 
Q 2588 4750 2994 4692 
Q 3400 4634 3834 4519 
z
" transform="scale(0.015625)"/>
     </defs>
     <use xlink:href="#DejaVuSans-Bold-53"/>
    </g>
   </g>
   <g id="text_27">
    <!-- R -->
    <g style="fill: #1f0909" transform="translate(197.820434 225.267204)scale(0.08 -0.08)">
     <defs>
      <path id="DejaVuSans-Bold-52" d="M 2297 2597 
Q 2675 2597 2839 2737 
Q 3003 2878 3003 3200 
Q 3003 3519 2839 3656 
Q 2675 3794 2297 3794 
L 1791 3794 
L 1791 2597 
L 2297 2597 
z
M 1791 1766 
L 1791 0 
L 588 0 
L 588 4666 
L 2425 4666 
Q 3347 4666 3776 4356 
Q 4206 4047 4206 3378 
Q 4206 2916 3982 2619 
Q 3759 2322 3309 2181 
Q 3556 2125 3751 1926 
Q 3947 1728 4147 1325 
L 4800 0 
L 3519 0 
L 2950 1159 
Q 2778 1509 2601 1637 
Q 2425 1766 2131 1766 
L 1791 1766 
z
" transform="scale(0.015625)"/>
     </defs>
     <use xlink:href="#DejaVuSans-Bold-52"/>
    </g>
   </g>
   <g id="text_28">
    <!-- Q -->
    <g style="fill: #1f0909" transform="translate(231.048072 196.793963)scale(0.08 -0.08)">
     <defs>
      <path id="DejaVuSans-Bold-51" d="M 2847 -84 
L 2753 -84 
Q 1600 -84 959 553 
Q 319 1191 319 2328 
Q 319 3463 958 4106 
Q 1597 4750 2719 4750 
Q 3853 4750 4486 4112 
Q 5119 3475 5119 2328 
Q 5119 1541 4783 972 
Q 4447 403 3816 116 
L 4756 -934 
L 3609 -934 
L 2847 -84 
z
M 2719 3878 
Q 2169 3878 1866 3472 
Q 1563 3066 1563 2328 
Q 1563 1578 1859 1179 
Q 2156 781 2719 781 
Q 3272 781 3575 1187 
Q 3878 1594 3878 2328 
Q 3878 3066 3575 3472 
Q 3272 3878 2719 3878 
z
" transform="scale(0.015625)"/>
     </defs>
     <use xlink:href="#DejaVuSans-Bold-51"/>
    </g>
   </g>
   <g id="text_29">
    <!-- P -->
    <g style="fill: #1f0909" transform="translate(233.717077 70.456387)scale(0.08 -0.08)">
     <defs>
      <path id="DejaVuSans-Bold-50" d="M 588 4666 
L 2584 4666 
Q 3475 4666 3951 4270 
Q 4428 3875 4428 3144 
Q 4428 2409 3951 2014 
Q 3475 1619 2584 1619 
L 1791 1619 
L 1791 0 
L 588 0 
L 588 4666 
z
M 1791 3794 
L 1791 2491 
L 2456 2491 
Q 2806 2491 2997 2661 
Q 3188 2831 3188 3144 
Q 3188 3456 2997 3625 
Q 2806 3794 2456 3794 
L 1791 3794 
z
" transform="scale(0.015625)"/>
     </defs>
     <use xlink:href="#DejaVuSans-Bold-50"/>
    </g>
   </g>
   <g id="text_30">
    <!-- O -->
    <g style="fill: #1f0909" transform="translate(258.492829 70.456387)scale(0.08 -0.08)">
     <defs>
      <path id="DejaVuSans-Bold-4f" d="M 2719 3878 
Q 2169 3878 1866 3472 
Q 1563 3066 1563 2328 
Q 1563 1594 1866 1187 
Q 2169 781 2719 781 
Q 3272 781 3575 1187 
Q 3878 1594 3878 2328 
Q 3878 3066 3575 3472 
Q 3272 3878 2719 3878 
z
M 2719 4750 
Q 3844 4750 4481 4106 
Q 5119 3463 5119 2328 
Q 5119 1197 4481 553 
Q 3844 -91 2719 -91 
Q 1597 -91 958 553 
Q 319 1197 319 2328 
Q 319 3463 958 4106 
Q 1597 4750 2719 4750 
z
" transform="scale(0.015625)"/>
     </defs>
     <use xlink:href="#DejaVuSans-Bold-4f"/>
    </g>
   </g>
   <g id="text_31">
    <!-- T -->
    <g style="fill: #1f0909" transform="translate(127.228016 278.12579)scale(0.08 -0.08)">
     <defs>
      <path id="DejaVuSans-Bold-54" d="M 31 4666 
L 4331 4666 
L 4331 3756 
L 2784 3756 
L 2784 0 
L 1581 0 
L 1581 3756 
L 31 3756 
L 31 4666 
z
" transform="scale(0.015625)"/>
     </defs>
     <use xlink:href="#DejaVuSans-Bold-54"/>
    </g>
   </g>
   <g id="text_32">
    <!-- Cu -->
    <g style="fill: #1f0909" transform="translate(286.286818 216.348697)scale(0.08 -0.08)">
     <defs>
      <path id="DejaVuSans-Bold-75" d="M 500 1363 
L 500 3500 
L 1625 3500 
L 1625 3150 
Q 1625 2866 1622 2436 
Q 1619 2006 1619 1863 
Q 1619 1441 1641 1255 
Q 1663 1069 1716 984 
Q 1784 875 1895 815 
Q 2006 756 2150 756 
Q 2500 756 2700 1025 
Q 2900 1294 2900 1772 
L 2900 3500 
L 4019 3500 
L 4019 0 
L 2900 0 
L 2900 506 
Q 2647 200 2364 54 
Q 2081 -91 1741 -91 
Q 1134 -91 817 281 
Q 500 653 500 1363 
z
" transform="scale(0.015625)"/>
     </defs>
     <use xlink:href="#DejaVuSans-Bold-43"/>
     <use xlink:href="#DejaVuSans-Bold-75" x="73.388672"/>
    </g>
   </g>
   <g id="text_33">
    <!-- Cs -->
    <g style="fill: #1f0909" transform="translate(286.753693 199.963207)scale(0.08 -0.08)">
     <use xlink:href="#DejaVuSans-Bold-43"/>
     <use xlink:href="#DejaVuSans-Bold-73" x="73.388672"/>
    </g>
   </g>
   <g id="text_34">
    <!-- Cr -->
    <g style="fill: #1f0909" transform="translate(287.161818 81.348941)scale(0.08 -0.08)">
     <use xlink:href="#DejaVuSans-Bold-43"/>
     <use xlink:href="#DejaVuSans-Bold-72" x="73.388672"/>
    </g>
   </g>
   <g id="text_35">
    <!-- Cu -->
    <g style="fill: #1f0909" transform="translate(286.741818 252.578815)scale(0.08 -0.08)">
     <defs>
      <path id="DejaVuSans-Oblique-43" d="M 4447 4306 
L 4319 3641 
Q 4019 3944 3683 4091 
Q 3347 4238 2956 4238 
Q 2422 4238 2017 3981 
Q 1613 3725 1319 3200 
Q 1131 2863 1032 2486 
Q 934 2109 934 1728 
Q 934 1091 1264 756 
Q 1594 422 2222 422 
Q 2656 422 3056 561 
Q 3456 700 3834 978 
L 3688 231 
Q 3316 72 2936 -9 
Q 2556 -91 2175 -91 
Q 1278 -91 773 396 
Q 269 884 269 1753 
Q 269 2309 461 2846 
Q 653 3384 1013 3828 
Q 1394 4300 1883 4525 
Q 2372 4750 3022 4750 
Q 3422 4750 3780 4639 
Q 4138 4528 4447 4306 
z
" transform="scale(0.015625)"/>
      <path id="DejaVuSans-Oblique-75" d="M 428 1388 
L 838 3500 
L 1416 3500 
L 1006 1409 
Q 975 1256 961 1147 
Q 947 1038 947 966 
Q 947 700 1109 554 
Q 1272 409 1569 409 
Q 2031 409 2368 721 
Q 2706 1034 2809 1563 
L 3194 3500 
L 3769 3500 
L 3091 0 
L 2516 0 
L 2631 550 
Q 2388 244 2052 76 
Q 1716 -91 1338 -91 
Q 878 -91 622 161 
Q 366 413 366 863 
Q 366 956 381 1097 
Q 397 1238 428 1388 
z
" transform="scale(0.015625)"/>
     </defs>
     <use xlink:href="#DejaVuSans-Oblique-43"/>
     <use xlink:href="#DejaVuSans-Oblique-75" x="69.824219"/>
    </g>
   </g>
   <g id="text_36">
    <!-- Cs -->
    <g style="fill: #1f0909" transform="translate(287.193068 228.604909)scale(0.08 -0.08)">
     <defs>
      <path id="DejaVuSans-Oblique-73" d="M 3200 3397 
L 3091 2853 
Q 2863 2978 2609 3040 
Q 2356 3103 2088 3103 
Q 1634 3103 1373 2948 
Q 1113 2794 1113 2528 
Q 1113 2219 1719 2053 
Q 1766 2041 1788 2034 
L 1972 1978 
Q 2547 1819 2739 1644 
Q 2931 1469 2931 1166 
Q 2931 609 2489 259 
Q 2047 -91 1331 -91 
Q 1053 -91 747 -37 
Q 441 16 72 128 
L 184 722 
Q 500 559 806 475 
Q 1113 391 1394 391 
Q 1816 391 2080 572 
Q 2344 753 2344 1031 
Q 2344 1331 1650 1516 
L 1591 1531 
L 1394 1581 
Q 956 1697 753 1886 
Q 550 2075 550 2369 
Q 550 2928 970 3256 
Q 1391 3584 2113 3584 
Q 2397 3584 2667 3537 
Q 2938 3491 3200 3397 
z
" transform="scale(0.015625)"/>
     </defs>
     <use xlink:href="#DejaVuSans-Oblique-43"/>
     <use xlink:href="#DejaVuSans-Oblique-73" x="69.824219"/>
    </g>
   </g>
   <g id="text_37">
    <!-- Cr -->
    <g style="fill: #1f0909" transform="translate(287.632443 192.987)scale(0.08 -0.08)">
     <defs>
      <path id="DejaVuSans-Oblique-72" d="M 2853 2969 
Q 2766 3016 2653 3041 
Q 2541 3066 2413 3066 
Q 1953 3066 1609 2717 
Q 1266 2369 1153 1784 
L 800 0 
L 225 0 
L 909 3500 
L 1484 3500 
L 1375 2956 
Q 1603 3259 1920 3421 
Q 2238 3584 2597 3584 
Q 2691 3584 2781 3573 
Q 2872 3563 2963 3538 
L 2853 2969 
z
" transform="scale(0.015625)"/>
     </defs>
     <use xlink:href="#DejaVuSans-Oblique-43"/>
     <use xlink:href="#DejaVuSans-Oblique-72" x="69.824219"/>
    </g>
   </g>
   <g id="text_38">
    <!-- rolling -->
    <g style="fill: #1f0909" transform="translate(252.585954 163.131337)scale(0.06 -0.06)">
     <defs>
      <path id="DejaVuSans-72" d="M 2631 2963 
Q 2534 3019 2420 3045 
Q 2306 3072 2169 3072 
Q 1681 3072 1420 2755 
Q 1159 2438 1159 1844 
L 1159 0 
L 581 0 
L 581 3500 
L 1159 3500 
L 1159 2956 
Q 1341 3275 1631 3429 
Q 1922 3584 2338 3584 
Q 2397 3584 2469 3576 
Q 2541 3569 2628 3553 
L 2631 2963 
z
" transform="scale(0.015625)"/>
      <path id="DejaVuSans-6f" d="M 1959 3097 
Q 1497 3097 1228 2736 
Q 959 2375 959 1747 
Q 959 1119 1226 758 
Q 1494 397 1959 397 
Q 2419 397 2687 759 
Q 2956 1122 2956 1747 
Q 2956 2369 2687 2733 
Q 2419 3097 1959 3097 
z
M 1959 3584 
Q 2709 3584 3137 3096 
Q 3566 2609 3566 1747 
Q 3566 888 3137 398 
Q 2709 -91 1959 -91 
Q 1206 -91 779 398 
Q 353 888 353 1747 
Q 353 2609 779 3096 
Q 1206 3584 1959 3584 
z
" transform="scale(0.015625)"/>
      <path id="DejaVuSans-6c" d="M 603 4863 
L 1178 4863 
L 1178 0 
L 603 0 
L 603 4863 
z
" transform="scale(0.015625)"/>
      <path id="DejaVuSans-6e" d="M 3513 2113 
L 3513 0 
L 2938 0 
L 2938 2094 
Q 2938 2591 2744 2837 
Q 2550 3084 2163 3084 
Q 1697 3084 1428 2787 
Q 1159 2491 1159 1978 
L 1159 0 
L 581 0 
L 581 3500 
L 1159 3500 
L 1159 2956 
Q 1366 3272 1645 3428 
Q 1925 3584 2291 3584 
Q 2894 3584 3203 3211 
Q 3513 2838 3513 2113 
z
" transform="scale(0.015625)"/>
      <path id="DejaVuSans-67" d="M 2906 1791 
Q 2906 2416 2648 2759 
Q 2391 3103 1925 3103 
Q 1463 3103 1205 2759 
Q 947 2416 947 1791 
Q 947 1169 1205 825 
Q 1463 481 1925 481 
Q 2391 481 2648 825 
Q 2906 1169 2906 1791 
z
M 3481 434 
Q 3481 -459 3084 -895 
Q 2688 -1331 1869 -1331 
Q 1566 -1331 1297 -1286 
Q 1028 -1241 775 -1147 
L 775 -588 
Q 1028 -725 1275 -790 
Q 1522 -856 1778 -856 
Q 2344 -856 2625 -561 
Q 2906 -266 2906 331 
L 2906 616 
Q 2728 306 2450 153 
Q 2172 0 1784 0 
Q 1141 0 747 490 
Q 353 981 353 1791 
Q 353 2603 747 3093 
Q 1141 3584 1784 3584 
Q 2172 3584 2450 3431 
Q 2728 3278 2906 2969 
L 2906 3500 
L 3481 3500 
L 3481 434 
z
" transform="scale(0.015625)"/>
     </defs>
     <use xlink:href="#DejaVuSans-72"/>
     <use xlink:href="#DejaVuSans-6f" x="38.863281"/>
     <use xlink:href="#DejaVuSans-6c" x="100.044922"/>
     <use xlink:href="#DejaVuSans-6c" x="127.828125"/>
     <use xlink:href="#DejaVuSans-69" x="155.611328"/>
     <use xlink:href="#DejaVuSans-6e" x="183.394531"/>
     <use xlink:href="#DejaVuSans-67" x="246.773438"/>
    </g>
   </g>
   <g id="text_39">
    <g id="patch_6">
     <path d="M 180.068715 176.422044 
L 221.732153 176.422044 
L 221.732153 155.856481 
L 180.068715 155.856481 
z
" style="fill: #f3f2ee; stroke: #f3f2ee; stroke-linejoin: miter"/>
    </g>
    <!-- rolling and -->
    <g style="fill: #1f0909" transform="translate(184.995278 164.435544)scale(0.06 -0.06)">
     <defs>
      <path id="DejaVuSans-61" d="M 2194 1759 
Q 1497 1759 1228 1600 
Q 959 1441 959 1056 
Q 959 750 1161 570 
Q 1363 391 1709 391 
Q 2188 391 2477 730 
Q 2766 1069 2766 1631 
L 2766 1759 
L 2194 1759 
z
M 3341 1997 
L 3341 0 
L 2766 0 
L 2766 531 
Q 2569 213 2275 61 
Q 1981 -91 1556 -91 
Q 1019 -91 701 211 
Q 384 513 384 1019 
Q 384 1609 779 1909 
Q 1175 2209 1959 2209 
L 2766 2209 
L 2766 2266 
Q 2766 2663 2505 2880 
Q 2244 3097 1772 3097 
Q 1472 3097 1187 3025 
Q 903 2953 641 2809 
L 641 3341 
Q 956 3463 1253 3523 
Q 1550 3584 1831 3584 
Q 2591 3584 2966 3190 
Q 3341 2797 3341 1997 
z
" transform="scale(0.015625)"/>
      <path id="DejaVuSans-64" d="M 2906 2969 
L 2906 4863 
L 3481 4863 
L 3481 0 
L 2906 0 
L 2906 525 
Q 2725 213 2448 61 
Q 2172 -91 1784 -91 
Q 1150 -91 751 415 
Q 353 922 353 1747 
Q 353 2572 751 3078 
Q 1150 3584 1784 3584 
Q 2172 3584 2448 3432 
Q 2725 3281 2906 2969 
z
M 947 1747 
Q 947 1113 1208 752 
Q 1469 391 1925 391 
Q 2381 391 2643 752 
Q 2906 1113 2906 1747 
Q 2906 2381 2643 2742 
Q 2381 3103 1925 3103 
Q 1469 3103 1208 2742 
Q 947 2381 947 1747 
z
" transform="scale(0.015625)"/>
     </defs>
     <use xlink:href="#DejaVuSans-72"/>
     <use xlink:href="#DejaVuSans-6f" x="38.863281"/>
     <use xlink:href="#DejaVuSans-6c" x="100.044922"/>
     <use xlink:href="#DejaVuSans-6c" x="127.828125"/>
     <use xlink:href="#DejaVuSans-69" x="155.611328"/>
     <use xlink:href="#DejaVuSans-6e" x="183.394531"/>
     <use xlink:href="#DejaVuSans-67" x="246.773438"/>
     <use xlink:href="#DejaVuSans-20" x="310.25"/>
     <use xlink:href="#DejaVuSans-61" x="342.037109"/>
     <use xlink:href="#DejaVuSans-6e" x="403.316406"/>
     <use xlink:href="#DejaVuSans-64" x="466.695312"/>
    </g>
    <!-- suspension -->
    <g style="fill: #1f0909" transform="translate(184.088715 171.154231)scale(0.06 -0.06)">
     <defs>
      <path id="DejaVuSans-73" d="M 2834 3397 
L 2834 2853 
Q 2591 2978 2328 3040 
Q 2066 3103 1784 3103 
Q 1356 3103 1142 2972 
Q 928 2841 928 2578 
Q 928 2378 1081 2264 
Q 1234 2150 1697 2047 
L 1894 2003 
Q 2506 1872 2764 1633 
Q 3022 1394 3022 966 
Q 3022 478 2636 193 
Q 2250 -91 1575 -91 
Q 1294 -91 989 -36 
Q 684 19 347 128 
L 347 722 
Q 666 556 975 473 
Q 1284 391 1588 391 
Q 1994 391 2212 530 
Q 2431 669 2431 922 
Q 2431 1156 2273 1281 
Q 2116 1406 1581 1522 
L 1381 1569 
Q 847 1681 609 1914 
Q 372 2147 372 2553 
Q 372 3047 722 3315 
Q 1072 3584 1716 3584 
Q 2034 3584 2315 3537 
Q 2597 3491 2834 3397 
z
" transform="scale(0.015625)"/>
      <path id="DejaVuSans-75" d="M 544 1381 
L 544 3500 
L 1119 3500 
L 1119 1403 
Q 1119 906 1312 657 
Q 1506 409 1894 409 
Q 2359 409 2629 706 
Q 2900 1003 2900 1516 
L 2900 3500 
L 3475 3500 
L 3475 0 
L 2900 0 
L 2900 538 
Q 2691 219 2414 64 
Q 2138 -91 1772 -91 
Q 1169 -91 856 284 
Q 544 659 544 1381 
z
M 1991 3584 
L 1991 3584 
z
" transform="scale(0.015625)"/>
      <path id="DejaVuSans-65" d="M 3597 1894 
L 3597 1613 
L 953 1613 
Q 991 1019 1311 708 
Q 1631 397 2203 397 
Q 2534 397 2845 478 
Q 3156 559 3463 722 
L 3463 178 
Q 3153 47 2828 -22 
Q 2503 -91 2169 -91 
Q 1331 -91 842 396 
Q 353 884 353 1716 
Q 353 2575 817 3079 
Q 1281 3584 2069 3584 
Q 2775 3584 3186 3129 
Q 3597 2675 3597 1894 
z
M 3022 2063 
Q 3016 2534 2758 2815 
Q 2500 3097 2075 3097 
Q 1594 3097 1305 2825 
Q 1016 2553 972 2059 
L 3022 2063 
z
" transform="scale(0.015625)"/>
     </defs>
     <use xlink:href="#DejaVuSans-73"/>
     <use xlink:href="#DejaVuSans-75" x="52.099609"/>
     <use xlink:href="#DejaVuSans-73" x="115.478516"/>
     <use xlink:href="#DejaVuSans-70" x="167.578125"/>
     <use xlink:href="#DejaVuSans-65" x="231.054688"/>
     <use xlink:href="#DejaVuSans-6e" x="292.578125"/>
     <use xlink:href="#DejaVuSans-73" x="355.957031"/>
     <use xlink:href="#DejaVuSans-69" x="408.056641"/>
     <use xlink:href="#DejaVuSans-6f" x="435.839844"/>
     <use xlink:href="#DejaVuSans-6e" x="497.021484"/>
    </g>
   </g>
   <g id="text_40">
    <g id="patch_7">
     <path d="M 164.014561 196.647885 
L 205.677999 196.647885 
L 205.677999 176.082323 
L 164.014561 176.082323 
z
" style="fill: #f3f2ee; stroke: #f3f2ee; stroke-linejoin: miter"/>
    </g>
    <!-- suspension -->
    <g style="fill: #1f0909" transform="translate(168.034561 184.661385)scale(0.06 -0.06)">
     <use xlink:href="#DejaVuSans-73"/>
     <use xlink:href="#DejaVuSans-75" x="52.099609"/>
     <use xlink:href="#DejaVuSans-73" x="115.478516"/>
     <use xlink:href="#DejaVuSans-70" x="167.578125"/>
     <use xlink:href="#DejaVuSans-65" x="231.054688"/>
     <use xlink:href="#DejaVuSans-6e" x="292.578125"/>
     <use xlink:href="#DejaVuSans-73" x="355.957031"/>
     <use xlink:href="#DejaVuSans-69" x="408.056641"/>
     <use xlink:href="#DejaVuSans-6f" x="435.839844"/>
     <use xlink:href="#DejaVuSans-6e" x="497.021484"/>
    </g>
    <!-- and rolling -->
    <g style="fill: #1f0909" transform="translate(168.941124 191.380073)scale(0.06 -0.06)">
     <use xlink:href="#DejaVuSans-61"/>
     <use xlink:href="#DejaVuSans-6e" x="61.279297"/>
     <use xlink:href="#DejaVuSans-64" x="124.658203"/>
     <use xlink:href="#DejaVuSans-20" x="188.134766"/>
     <use xlink:href="#DejaVuSans-72" x="219.921875"/>
     <use xlink:href="#DejaVuSans-6f" x="258.785156"/>
     <use xlink:href="#DejaVuSans-6c" x="319.966797"/>
     <use xlink:href="#DejaVuSans-6c" x="347.75"/>
     <use xlink:href="#DejaVuSans-69" x="375.533203"/>
     <use xlink:href="#DejaVuSans-6e" x="403.316406"/>
     <use xlink:href="#DejaVuSans-67" x="466.695312"/>
    </g>
   </g>
   <g id="text_41">
    <!-- graded suspension -->
    <g style="fill: #1f0909" transform="translate(235.564106 240.354878)scale(0.06 -0.06)">
     <use xlink:href="#DejaVuSans-67"/>
     <use xlink:href="#DejaVuSans-72" x="63.476562"/>
     <use xlink:href="#DejaVuSans-61" x="104.589844"/>
     <use xlink:href="#DejaVuSans-64" x="165.869141"/>
     <use xlink:href="#DejaVuSans-65" x="229.345703"/>
     <use xlink:href="#DejaVuSans-64" x="290.869141"/>
     <use xlink:href="#DejaVuSans-20" x="354.345703"/>
     <use xlink:href="#DejaVuSans-73" x="386.132812"/>
     <use xlink:href="#DejaVuSans-75" x="438.232422"/>
     <use xlink:href="#DejaVuSans-73" x="501.611328"/>
     <use xlink:href="#DejaVuSans-70" x="553.710938"/>
     <use xlink:href="#DejaVuSans-65" x="617.1875"/>
     <use xlink:href="#DejaVuSans-6e" x="678.710938"/>
     <use xlink:href="#DejaVuSans-73" x="742.089844"/>
     <use xlink:href="#DejaVuSans-69" x="794.189453"/>
     <use xlink:href="#DejaVuSans-6f" x="821.972656"/>
     <use xlink:href="#DejaVuSans-6e" x="883.154297"/>
    </g>
   </g>
   <g id="text_42">
    <!-- uniform -->
    <g style="fill: #1f0909" transform="translate(161.825052 274.214571)scale(0.06 -0.06)">
     <defs>
      <path id="DejaVuSans-66" d="M 2375 4863 
L 2375 4384 
L 1825 4384 
Q 1516 4384 1395 4259 
Q 1275 4134 1275 3809 
L 1275 3500 
L 2222 3500 
L 2222 3053 
L 1275 3053 
L 1275 0 
L 697 0 
L 697 3053 
L 147 3053 
L 147 3500 
L 697 3500 
L 697 3744 
Q 697 4328 969 4595 
Q 1241 4863 1831 4863 
L 2375 4863 
z
" transform="scale(0.015625)"/>
     </defs>
     <use xlink:href="#DejaVuSans-75"/>
     <use xlink:href="#DejaVuSans-6e" x="63.378906"/>
     <use xlink:href="#DejaVuSans-69" x="126.757812"/>
     <use xlink:href="#DejaVuSans-66" x="154.541016"/>
     <use xlink:href="#DejaVuSans-6f" x="189.746094"/>
     <use xlink:href="#DejaVuSans-72" x="250.927734"/>
     <use xlink:href="#DejaVuSans-6d" x="290.291016"/>
    </g>
    <!-- suspension -->
    <g style="fill: #1f0909" transform="translate(156.643958 280.933259)scale(0.06 -0.06)">
     <use xlink:href="#DejaVuSans-73"/>
     <use xlink:href="#DejaVuSans-75" x="52.099609"/>
     <use xlink:href="#DejaVuSans-73" x="115.478516"/>
     <use xlink:href="#DejaVuSans-70" x="167.578125"/>
     <use xlink:href="#DejaVuSans-65" x="231.054688"/>
     <use xlink:href="#DejaVuSans-6e" x="292.578125"/>
     <use xlink:href="#DejaVuSans-73" x="355.957031"/>
     <use xlink:href="#DejaVuSans-69" x="408.056641"/>
     <use xlink:href="#DejaVuSans-6f" x="435.839844"/>
     <use xlink:href="#DejaVuSans-6e" x="497.021484"/>
    </g>
   </g>
   <g id="text_43">
    <g id="patch_8">
     <path d="M 57.574972 303.871548 
L 99.238409 303.871548 
L 99.238409 283.305986 
L 57.574972 283.305986 
z
" style="fill: #f3f2ee; stroke: #f3f2ee; stroke-linejoin: miter"/>
    </g>
    <!-- pelagic -->
    <g style="fill: #1f0909" transform="translate(67.596847 291.885048)scale(0.06 -0.06)">
     <defs>
      <path id="DejaVuSans-63" d="M 3122 3366 
L 3122 2828 
Q 2878 2963 2633 3030 
Q 2388 3097 2138 3097 
Q 1578 3097 1268 2742 
Q 959 2388 959 1747 
Q 959 1106 1268 751 
Q 1578 397 2138 397 
Q 2388 397 2633 464 
Q 2878 531 3122 666 
L 3122 134 
Q 2881 22 2623 -34 
Q 2366 -91 2075 -91 
Q 1284 -91 818 406 
Q 353 903 353 1747 
Q 353 2603 823 3093 
Q 1294 3584 2113 3584 
Q 2378 3584 2631 3529 
Q 2884 3475 3122 3366 
z
" transform="scale(0.015625)"/>
     </defs>
     <use xlink:href="#DejaVuSans-70"/>
     <use xlink:href="#DejaVuSans-65" x="63.476562"/>
     <use xlink:href="#DejaVuSans-6c" x="125"/>
     <use xlink:href="#DejaVuSans-61" x="152.783203"/>
     <use xlink:href="#DejaVuSans-67" x="214.0625"/>
     <use xlink:href="#DejaVuSans-69" x="277.539062"/>
     <use xlink:href="#DejaVuSans-63" x="305.322266"/>
    </g>
    <!-- suspension -->
    <g style="fill: #1f0909" transform="translate(61.594972 298.603736)scale(0.06 -0.06)">
     <use xlink:href="#DejaVuSans-73"/>
     <use xlink:href="#DejaVuSans-75" x="52.099609"/>
     <use xlink:href="#DejaVuSans-73" x="115.478516"/>
     <use xlink:href="#DejaVuSans-70" x="167.578125"/>
     <use xlink:href="#DejaVuSans-65" x="231.054688"/>
     <use xlink:href="#DejaVuSans-6e" x="292.578125"/>
     <use xlink:href="#DejaVuSans-73" x="355.957031"/>
     <use xlink:href="#DejaVuSans-69" x="408.056641"/>
     <use xlink:href="#DejaVuSans-6f" x="435.839844"/>
     <use xlink:href="#DejaVuSans-6e" x="497.021484"/>
    </g>
   </g>
   <g id="text_44">
    <g id="patch_9">
     <path d="M 235.243532 49.784883 
L 261.898532 49.784883 
L 261.898532 35.938008 
L 235.243532 35.938008 
z
" style="fill: #f3f2ee; stroke: #f3f2ee; stroke-linejoin: miter"/>
    </g>
    <!-- rolling -->
    <g style="fill: #1f0909" transform="translate(239.263532 44.517071)scale(0.06 -0.06)">
     <use xlink:href="#DejaVuSans-72"/>
     <use xlink:href="#DejaVuSans-6f" x="38.863281"/>
     <use xlink:href="#DejaVuSans-6c" x="100.044922"/>
     <use xlink:href="#DejaVuSans-6c" x="127.828125"/>
     <use xlink:href="#DejaVuSans-69" x="155.611328"/>
     <use xlink:href="#DejaVuSans-6e" x="183.394531"/>
     <use xlink:href="#DejaVuSans-67" x="246.773438"/>
    </g>
   </g>
   <g id="text_45">
    <g id="patch_10">
     <path d="M 157.397838 137.907165 
L 225.146275 137.907165 
L 225.146275 124.06029 
L 157.397838 124.06029 
z
" style="fill: #f3f2ee; stroke: #f3f2ee; stroke-linejoin: miter"/>
    </g>
    <!-- saltation and rolling -->
    <g style="fill: #1f0909" transform="translate(161.417838 132.639353)scale(0.06 -0.06)">
     <defs>
      <path id="DejaVuSans-74" d="M 1172 4494 
L 1172 3500 
L 2356 3500 
L 2356 3053 
L 1172 3053 
L 1172 1153 
Q 1172 725 1289 603 
Q 1406 481 1766 481 
L 2356 481 
L 2356 0 
L 1766 0 
Q 1100 0 847 248 
Q 594 497 594 1153 
L 594 3053 
L 172 3053 
L 172 3500 
L 594 3500 
L 594 4494 
L 1172 4494 
z
" transform="scale(0.015625)"/>
     </defs>
     <use xlink:href="#DejaVuSans-73"/>
     <use xlink:href="#DejaVuSans-61" x="52.099609"/>
     <use xlink:href="#DejaVuSans-6c" x="113.378906"/>
     <use xlink:href="#DejaVuSans-74" x="141.162109"/>
     <use xlink:href="#DejaVuSans-61" x="180.371094"/>
     <use xlink:href="#DejaVuSans-74" x="241.650391"/>
     <use xlink:href="#DejaVuSans-69" x="280.859375"/>
     <use xlink:href="#DejaVuSans-6f" x="308.642578"/>
     <use xlink:href="#DejaVuSans-6e" x="369.824219"/>
     <use xlink:href="#DejaVuSans-20" x="433.203125"/>
     <use xlink:href="#DejaVuSans-61" x="464.990234"/>
     <use xlink:href="#DejaVuSans-6e" x="526.269531"/>
     <use xlink:href="#DejaVuSans-64" x="589.648438"/>
     <use xlink:href="#DejaVuSans-20" x="653.125"/>
     <use xlink:href="#DejaVuSans-72" x="684.912109"/>
     <use xlink:href="#DejaVuSans-6f" x="723.775391"/>
     <use xlink:href="#DejaVuSans-6c" x="784.957031"/>
     <use xlink:href="#DejaVuSans-6c" x="812.740234"/>
     <use xlink:href="#DejaVuSans-69" x="840.523438"/>
     <use xlink:href="#DejaVuSans-6e" x="868.306641"/>
     <use xlink:href="#DejaVuSans-67" x="931.685547"/>
    </g>
   </g>
   <g id="text_46">
    <!-- saltation -->
    <g style="fill: #1f0909" transform="translate(255.789948 221.814088)scale(0.06 -0.06)">
     <use xlink:href="#DejaVuSans-73"/>
     <use xlink:href="#DejaVuSans-61" x="52.099609"/>
     <use xlink:href="#DejaVuSans-6c" x="113.378906"/>
     <use xlink:href="#DejaVuSans-74" x="141.162109"/>
     <use xlink:href="#DejaVuSans-61" x="180.371094"/>
     <use xlink:href="#DejaVuSans-74" x="241.650391"/>
     <use xlink:href="#DejaVuSans-69" x="280.859375"/>
     <use xlink:href="#DejaVuSans-6f" x="308.642578"/>
     <use xlink:href="#DejaVuSans-6e" x="369.824219"/>
    </g>
   </g>
   <g id="text_47">
    <g id="patch_11">
     <path d="M 100.289809 197.604019 
L 141.953247 197.604019 
L 141.953247 183.757144 
L 100.289809 183.757144 
z
" style="fill: #f3f2ee; stroke: #f3f2ee; stroke-linejoin: miter"/>
    </g>
    <!-- suspension -->
    <g style="fill: #1f0909" transform="translate(104.309809 192.336207)scale(0.06 -0.06)">
     <use xlink:href="#DejaVuSans-73"/>
     <use xlink:href="#DejaVuSans-75" x="52.099609"/>
     <use xlink:href="#DejaVuSans-73" x="115.478516"/>
     <use xlink:href="#DejaVuSans-70" x="167.578125"/>
     <use xlink:href="#DejaVuSans-65" x="231.054688"/>
     <use xlink:href="#DejaVuSans-6e" x="292.578125"/>
     <use xlink:href="#DejaVuSans-73" x="355.957031"/>
     <use xlink:href="#DejaVuSans-69" x="408.056641"/>
     <use xlink:href="#DejaVuSans-6f" x="435.839844"/>
     <use xlink:href="#DejaVuSans-6e" x="497.021484"/>
    </g>
   </g>
   <g id="text_48">
    <g id="patch_12">
     <path d="M 52.823253 285.073232 
L 103.990128 285.073232 
L 103.990128 257.788982 
L 52.823253 257.788982 
z
" style="fill: #f3f2ee; stroke: #f3f2ee; stroke-linejoin: miter"/>
    </g>
    <!-- overbank-pool -->
    <g style="fill: #1f0909" transform="translate(56.843253 266.368045)scale(0.06 -0.06)">
     <defs>
      <path id="DejaVuSans-76" d="M 191 3500 
L 800 3500 
L 1894 563 
L 2988 3500 
L 3597 3500 
L 2284 0 
L 1503 0 
L 191 3500 
z
" transform="scale(0.015625)"/>
      <path id="DejaVuSans-62" d="M 3116 1747 
Q 3116 2381 2855 2742 
Q 2594 3103 2138 3103 
Q 1681 3103 1420 2742 
Q 1159 2381 1159 1747 
Q 1159 1113 1420 752 
Q 1681 391 2138 391 
Q 2594 391 2855 752 
Q 3116 1113 3116 1747 
z
M 1159 2969 
Q 1341 3281 1617 3432 
Q 1894 3584 2278 3584 
Q 2916 3584 3314 3078 
Q 3713 2572 3713 1747 
Q 3713 922 3314 415 
Q 2916 -91 2278 -91 
Q 1894 -91 1617 61 
Q 1341 213 1159 525 
L 1159 0 
L 581 0 
L 581 4863 
L 1159 4863 
L 1159 2969 
z
" transform="scale(0.015625)"/>
      <path id="DejaVuSans-6b" d="M 581 4863 
L 1159 4863 
L 1159 1991 
L 2875 3500 
L 3609 3500 
L 1753 1863 
L 3688 0 
L 2938 0 
L 1159 1709 
L 1159 0 
L 581 0 
L 581 4863 
z
" transform="scale(0.015625)"/>
      <path id="DejaVuSans-2d" d="M 313 2009 
L 1997 2009 
L 1997 1497 
L 313 1497 
L 313 2009 
z
" transform="scale(0.015625)"/>
     </defs>
     <use xlink:href="#DejaVuSans-6f"/>
     <use xlink:href="#DejaVuSans-76" x="61.181641"/>
     <use xlink:href="#DejaVuSans-65" x="120.361328"/>
     <use xlink:href="#DejaVuSans-72" x="181.884766"/>
     <use xlink:href="#DejaVuSans-62" x="222.998047"/>
     <use xlink:href="#DejaVuSans-61" x="286.474609"/>
     <use xlink:href="#DejaVuSans-6e" x="347.753906"/>
     <use xlink:href="#DejaVuSans-6b" x="411.132812"/>
     <use xlink:href="#DejaVuSans-2d" x="469.042969"/>
     <use xlink:href="#DejaVuSans-70" x="505.126953"/>
     <use xlink:href="#DejaVuSans-6f" x="568.603516"/>
     <use xlink:href="#DejaVuSans-6f" x="629.785156"/>
     <use xlink:href="#DejaVuSans-6c" x="690.966797"/>
    </g>
    <!-- facies -->
    <g style="fill: #1f0909" transform="translate(69.620441 273.086732)scale(0.06 -0.06)">
     <use xlink:href="#DejaVuSans-66"/>
     <use xlink:href="#DejaVuSans-61" x="35.205078"/>
     <use xlink:href="#DejaVuSans-63" x="96.484375"/>
     <use xlink:href="#DejaVuSans-69" x="151.464844"/>
     <use xlink:href="#DejaVuSans-65" x="179.248047"/>
     <use xlink:href="#DejaVuSans-73" x="240.771484"/>
    </g>
    <!-- suspension -->
    <g style="fill: #1f0909" transform="translate(61.594972 279.80542)scale(0.06 -0.06)">
     <use xlink:href="#DejaVuSans-73"/>
     <use xlink:href="#DejaVuSans-75" x="52.099609"/>
     <use xlink:href="#DejaVuSans-73" x="115.478516"/>
     <use xlink:href="#DejaVuSans-70" x="167.578125"/>
     <use xlink:href="#DejaVuSans-65" x="231.054688"/>
     <use xlink:href="#DejaVuSans-6e" x="292.578125"/>
     <use xlink:href="#DejaVuSans-73" x="355.957031"/>
     <use xlink:href="#DejaVuSans-69" x="408.056641"/>
     <use xlink:href="#DejaVuSans-6f" x="435.839844"/>
     <use xlink:href="#DejaVuSans-6e" x="497.021484"/>
    </g>
   </g>
   <g id="text_49">
    <!-- .004 -->
    <g style="fill: #1f0909" transform="translate(50.717088 28.291212)scale(0.06 -0.06)">
     <defs>
      <path id="DejaVuSans-34" d="M 2419 4116 
L 825 1625 
L 2419 1625 
L 2419 4116 
z
M 2253 4666 
L 3047 4666 
L 3047 1625 
L 3713 1625 
L 3713 1100 
L 3047 1100 
L 3047 0 
L 2419 0 
L 2419 1100 
L 313 1100 
L 313 1709 
L 2253 4666 
z
" transform="scale(0.015625)"/>
     </defs>
     <use xlink:href="#DejaVuSans-2e"/>
     <use xlink:href="#DejaVuSans-30" x="31.787109"/>
     <use xlink:href="#DejaVuSans-30" x="95.410156"/>
     <use xlink:href="#DejaVuSans-34" x="159.033203"/>
    </g>
   </g>
   <g id="text_50">
    <!-- 8.0 -->
    <g style="fill: #1f0909" transform="translate(52.625838 22.187706)scale(0.06 -0.06)">
     <defs>
      <path id="DejaVuSans-38" d="M 2034 2216 
Q 1584 2216 1326 1975 
Q 1069 1734 1069 1313 
Q 1069 891 1326 650 
Q 1584 409 2034 409 
Q 2484 409 2743 651 
Q 3003 894 3003 1313 
Q 3003 1734 2745 1975 
Q 2488 2216 2034 2216 
z
M 1403 2484 
Q 997 2584 770 2862 
Q 544 3141 544 3541 
Q 544 4100 942 4425 
Q 1341 4750 2034 4750 
Q 2731 4750 3128 4425 
Q 3525 4100 3525 3541 
Q 3525 3141 3298 2862 
Q 3072 2584 2669 2484 
Q 3125 2378 3379 2068 
Q 3634 1759 3634 1313 
Q 3634 634 3220 271 
Q 2806 -91 2034 -91 
Q 1263 -91 848 271 
Q 434 634 434 1313 
Q 434 1759 690 2068 
Q 947 2378 1403 2484 
z
M 1172 3481 
Q 1172 3119 1398 2916 
Q 1625 2713 2034 2713 
Q 2441 2713 2670 2916 
Q 2900 3119 2900 3481 
Q 2900 3844 2670 4047 
Q 2441 4250 2034 4250 
Q 1625 4250 1398 4047 
Q 1172 3844 1172 3481 
z
" transform="scale(0.015625)"/>
     </defs>
     <use xlink:href="#DejaVuSans-38"/>
     <use xlink:href="#DejaVuSans-2e" x="63.623047"/>
     <use xlink:href="#DejaVuSans-30" x="95.410156"/>
    </g>
   </g>
   <g id="text_51">
    <!-- .01 -->
    <g style="fill: #1f0909" transform="translate(88.905833 28.291212)scale(0.06 -0.06)">
     <use xlink:href="#DejaVuSans-2e"/>
     <use xlink:href="#DejaVuSans-30" x="31.787109"/>
     <use xlink:href="#DejaVuSans-31" x="95.410156"/>
    </g>
   </g>
   <g id="text_52">
    <!-- 6.6 -->
    <g style="fill: #1f0909" transform="translate(88.905833 22.187706)scale(0.06 -0.06)">
     <defs>
      <path id="DejaVuSans-36" d="M 2113 2584 
Q 1688 2584 1439 2293 
Q 1191 2003 1191 1497 
Q 1191 994 1439 701 
Q 1688 409 2113 409 
Q 2538 409 2786 701 
Q 3034 994 3034 1497 
Q 3034 2003 2786 2293 
Q 2538 2584 2113 2584 
z
M 3366 4563 
L 3366 3988 
Q 3128 4100 2886 4159 
Q 2644 4219 2406 4219 
Q 1781 4219 1451 3797 
Q 1122 3375 1075 2522 
Q 1259 2794 1537 2939 
Q 1816 3084 2150 3084 
Q 2853 3084 3261 2657 
Q 3669 2231 3669 1497 
Q 3669 778 3244 343 
Q 2819 -91 2113 -91 
Q 1303 -91 875 529 
Q 447 1150 447 2328 
Q 447 3434 972 4092 
Q 1497 4750 2381 4750 
Q 2619 4750 2861 4703 
Q 3103 4656 3366 4563 
z
" transform="scale(0.015625)"/>
     </defs>
     <use xlink:href="#DejaVuSans-36"/>
     <use xlink:href="#DejaVuSans-2e" x="63.623047"/>
     <use xlink:href="#DejaVuSans-36" x="95.410156"/>
    </g>
   </g>
   <g id="text_53">
    <!-- .015 -->
    <g style="fill: #1f0909" transform="translate(103.051237 28.291212)scale(0.06 -0.06)">
     <defs>
      <path id="DejaVuSans-35" d="M 691 4666 
L 3169 4666 
L 3169 4134 
L 1269 4134 
L 1269 2991 
Q 1406 3038 1543 3061 
Q 1681 3084 1819 3084 
Q 2600 3084 3056 2656 
Q 3513 2228 3513 1497 
Q 3513 744 3044 326 
Q 2575 -91 1722 -91 
Q 1428 -91 1123 -41 
Q 819 9 494 109 
L 494 744 
Q 775 591 1075 516 
Q 1375 441 1709 441 
Q 2250 441 2565 725 
Q 2881 1009 2881 1497 
Q 2881 1984 2565 2268 
Q 2250 2553 1709 2553 
Q 1456 2553 1204 2497 
Q 953 2441 691 2322 
L 691 4666 
z
" transform="scale(0.015625)"/>
     </defs>
     <use xlink:href="#DejaVuSans-2e"/>
     <use xlink:href="#DejaVuSans-30" x="31.787109"/>
     <use xlink:href="#DejaVuSans-31" x="95.410156"/>
     <use xlink:href="#DejaVuSans-35" x="159.033203"/>
    </g>
   </g>
   <g id="text_54">
    <!-- 6.1 -->
    <g style="fill: #1f0909" transform="translate(104.959987 22.187706)scale(0.06 -0.06)">
     <use xlink:href="#DejaVuSans-36"/>
     <use xlink:href="#DejaVuSans-2e" x="63.623047"/>
     <use xlink:href="#DejaVuSans-31" x="95.410156"/>
    </g>
   </g>
   <g id="text_55">
    <!-- .02 -->
    <g style="fill: #1f0909" transform="translate(116.35059 28.291212)scale(0.06 -0.06)">
     <defs>
      <path id="DejaVuSans-32" d="M 1228 531 
L 3431 531 
L 3431 0 
L 469 0 
L 469 531 
Q 828 903 1448 1529 
Q 2069 2156 2228 2338 
Q 2531 2678 2651 2914 
Q 2772 3150 2772 3378 
Q 2772 3750 2511 3984 
Q 2250 4219 1831 4219 
Q 1534 4219 1204 4116 
Q 875 4013 500 3803 
L 500 4441 
Q 881 4594 1212 4672 
Q 1544 4750 1819 4750 
Q 2544 4750 2975 4387 
Q 3406 4025 3406 3419 
Q 3406 3131 3298 2873 
Q 3191 2616 2906 2266 
Q 2828 2175 2409 1742 
Q 1991 1309 1228 531 
z
" transform="scale(0.015625)"/>
     </defs>
     <use xlink:href="#DejaVuSans-2e"/>
     <use xlink:href="#DejaVuSans-30" x="31.787109"/>
     <use xlink:href="#DejaVuSans-32" x="95.410156"/>
    </g>
   </g>
   <g id="text_56">
    <!-- 5.6 -->
    <g style="fill: #1f0909" transform="translate(116.35059 22.187706)scale(0.06 -0.06)">
     <use xlink:href="#DejaVuSans-35"/>
     <use xlink:href="#DejaVuSans-2e" x="63.623047"/>
     <use xlink:href="#DejaVuSans-36" x="95.410156"/>
    </g>
   </g>
   <g id="text_57">
    <!-- .04 -->
    <g style="fill: #1f0909" transform="translate(143.795347 28.291212)scale(0.06 -0.06)">
     <use xlink:href="#DejaVuSans-2e"/>
     <use xlink:href="#DejaVuSans-30" x="31.787109"/>
     <use xlink:href="#DejaVuSans-34" x="95.410156"/>
    </g>
   </g>
   <g id="text_58">
    <!-- 4.6 -->
    <g style="fill: #1f0909" transform="translate(143.795347 22.187706)scale(0.06 -0.06)">
     <use xlink:href="#DejaVuSans-34"/>
     <use xlink:href="#DejaVuSans-2e" x="63.623047"/>
     <use xlink:href="#DejaVuSans-36" x="95.410156"/>
    </g>
   </g>
   <g id="text_59">
    <!-- .06 -->
    <g style="fill: #1f0909" transform="translate(159.849501 28.291212)scale(0.06 -0.06)">
     <use xlink:href="#DejaVuSans-2e"/>
     <use xlink:href="#DejaVuSans-30" x="31.787109"/>
     <use xlink:href="#DejaVuSans-36" x="95.410156"/>
    </g>
   </g>
   <g id="text_60">
    <!-- 4.1 -->
    <g style="fill: #1f0909" transform="translate(159.849501 22.187706)scale(0.06 -0.06)">
     <use xlink:href="#DejaVuSans-34"/>
     <use xlink:href="#DejaVuSans-2e" x="63.623047"/>
     <use xlink:href="#DejaVuSans-31" x="95.410156"/>
    </g>
   </g>
   <g id="text_61">
    <!-- .08 -->
    <g style="fill: #1f0909" transform="translate(171.240104 28.291212)scale(0.06 -0.06)">
     <use xlink:href="#DejaVuSans-2e"/>
     <use xlink:href="#DejaVuSans-30" x="31.787109"/>
     <use xlink:href="#DejaVuSans-38" x="95.410156"/>
    </g>
   </g>
   <g id="text_62">
    <!-- 3.6 -->
    <g style="fill: #1f0909" transform="translate(171.240104 22.187706)scale(0.06 -0.06)">
     <defs>
      <path id="DejaVuSans-33" d="M 2597 2516 
Q 3050 2419 3304 2112 
Q 3559 1806 3559 1356 
Q 3559 666 3084 287 
Q 2609 -91 1734 -91 
Q 1441 -91 1130 -33 
Q 819 25 488 141 
L 488 750 
Q 750 597 1062 519 
Q 1375 441 1716 441 
Q 2309 441 2620 675 
Q 2931 909 2931 1356 
Q 2931 1769 2642 2001 
Q 2353 2234 1838 2234 
L 1294 2234 
L 1294 2753 
L 1863 2753 
Q 2328 2753 2575 2939 
Q 2822 3125 2822 3475 
Q 2822 3834 2567 4026 
Q 2313 4219 1838 4219 
Q 1578 4219 1281 4162 
Q 984 4106 628 3988 
L 628 4550 
Q 988 4650 1302 4700 
Q 1616 4750 1894 4750 
Q 2613 4750 3031 4423 
Q 3450 4097 3450 3541 
Q 3450 3153 3228 2886 
Q 3006 2619 2597 2516 
z
" transform="scale(0.015625)"/>
     </defs>
     <use xlink:href="#DejaVuSans-33"/>
     <use xlink:href="#DejaVuSans-2e" x="63.623047"/>
     <use xlink:href="#DejaVuSans-36" x="95.410156"/>
    </g>
   </g>
   <g id="text_63">
    <!-- .1 -->
    <g style="fill: #1f0909" transform="translate(181.984093 28.291212)scale(0.06 -0.06)">
     <use xlink:href="#DejaVuSans-2e"/>
     <use xlink:href="#DejaVuSans-31" x="31.787109"/>
    </g>
   </g>
   <g id="text_64">
    <!-- 3.3 -->
    <g style="fill: #1f0909" transform="translate(180.075343 22.187706)scale(0.06 -0.06)">
     <use xlink:href="#DejaVuSans-33"/>
     <use xlink:href="#DejaVuSans-2e" x="63.623047"/>
     <use xlink:href="#DejaVuSans-33" x="95.410156"/>
    </g>
   </g>
   <g id="text_65">
    <!-- .2 -->
    <g style="fill: #1f0909" transform="translate(209.42885 28.291212)scale(0.06 -0.06)">
     <use xlink:href="#DejaVuSans-2e"/>
     <use xlink:href="#DejaVuSans-32" x="31.787109"/>
    </g>
   </g>
   <g id="text_66">
    <!-- 2.3 -->
    <g style="fill: #1f0909" transform="translate(207.5201 22.187706)scale(0.06 -0.06)">
     <use xlink:href="#DejaVuSans-32"/>
     <use xlink:href="#DejaVuSans-2e" x="63.623047"/>
     <use xlink:href="#DejaVuSans-33" x="95.410156"/>
    </g>
   </g>
   <g id="text_67">
    <!-- .4 -->
    <g style="fill: #1f0909" transform="translate(236.873607 28.291212)scale(0.06 -0.06)">
     <use xlink:href="#DejaVuSans-2e"/>
     <use xlink:href="#DejaVuSans-34" x="31.787109"/>
    </g>
   </g>
   <g id="text_68">
    <!-- 1.3 -->
    <g style="fill: #1f0909" transform="translate(234.964857 22.187706)scale(0.06 -0.06)">
     <use xlink:href="#DejaVuSans-31"/>
     <use xlink:href="#DejaVuSans-2e" x="63.623047"/>
     <use xlink:href="#DejaVuSans-33" x="95.410156"/>
    </g>
   </g>
   <g id="text_69">
    <!-- .6 -->
    <g style="fill: #1f0909" transform="translate(252.92776 28.291212)scale(0.06 -0.06)">
     <use xlink:href="#DejaVuSans-2e"/>
     <use xlink:href="#DejaVuSans-36" x="31.787109"/>
    </g>
   </g>
   <g id="text_70">
    <!-- 0.7 -->
    <g style="fill: #1f0909" transform="translate(251.01901 22.187706)scale(0.06 -0.06)">
     <defs>
      <path id="DejaVuSans-37" d="M 525 4666 
L 3525 4666 
L 3525 4397 
L 1831 0 
L 1172 0 
L 2766 4134 
L 525 4134 
L 525 4666 
z
" transform="scale(0.015625)"/>
     </defs>
     <use xlink:href="#DejaVuSans-30"/>
     <use xlink:href="#DejaVuSans-2e" x="63.623047"/>
     <use xlink:href="#DejaVuSans-37" x="95.410156"/>
    </g>
   </g>
   <g id="text_71">
    <!-- .8 -->
    <g style="fill: #1f0909" transform="translate(264.318364 28.291212)scale(0.06 -0.06)">
     <use xlink:href="#DejaVuSans-2e"/>
     <use xlink:href="#DejaVuSans-38" x="31.787109"/>
    </g>
   </g>
   <g id="text_72">
    <!-- 0.3 -->
    <g style="fill: #1f0909" transform="translate(262.409614 22.187706)scale(0.06 -0.06)">
     <use xlink:href="#DejaVuSans-30"/>
     <use xlink:href="#DejaVuSans-2e" x="63.623047"/>
     <use xlink:href="#DejaVuSans-33" x="95.410156"/>
    </g>
   </g>
   <g id="text_73">
    <!-- 0.02 -->
    <g style="fill: #1f0909" transform="translate(30.615869 350.133906)scale(0.06 -0.06)">
     <use xlink:href="#DejaVuSans-30"/>
     <use xlink:href="#DejaVuSans-2e" x="63.623047"/>
     <use xlink:href="#DejaVuSans-30" x="95.410156"/>
     <use xlink:href="#DejaVuSans-32" x="159.033203"/>
    </g>
   </g>
   <g id="text_74">
    <!-- 5.6 -->
    <g style="fill: #1f0909" transform="translate(18.379216 350.133906)scale(0.06 -0.06)">
     <use xlink:href="#DejaVuSans-35"/>
     <use xlink:href="#DejaVuSans-2e" x="63.623047"/>
     <use xlink:href="#DejaVuSans-36" x="95.410156"/>
    </g>
   </g>
   <g id="text_75">
    <!-- 0.04 -->
    <g style="fill: #1f0909" transform="translate(30.615869 322.689149)scale(0.06 -0.06)">
     <use xlink:href="#DejaVuSans-30"/>
     <use xlink:href="#DejaVuSans-2e" x="63.623047"/>
     <use xlink:href="#DejaVuSans-30" x="95.410156"/>
     <use xlink:href="#DejaVuSans-34" x="159.033203"/>
    </g>
   </g>
   <g id="text_76">
    <!-- 4.6 -->
    <g style="fill: #1f0909" transform="translate(18.379216 322.689149)scale(0.06 -0.06)">
     <use xlink:href="#DejaVuSans-34"/>
     <use xlink:href="#DejaVuSans-2e" x="63.623047"/>
     <use xlink:href="#DejaVuSans-36" x="95.410156"/>
    </g>
   </g>
   <g id="text_77">
    <!-- 0.06 -->
    <g style="fill: #1f0909" transform="translate(30.615869 306.634995)scale(0.06 -0.06)">
     <use xlink:href="#DejaVuSans-30"/>
     <use xlink:href="#DejaVuSans-2e" x="63.623047"/>
     <use xlink:href="#DejaVuSans-30" x="95.410156"/>
     <use xlink:href="#DejaVuSans-36" x="159.033203"/>
    </g>
   </g>
   <g id="text_78">
    <!-- 4.1 -->
    <g style="fill: #1f0909" transform="translate(18.379216 306.634995)scale(0.06 -0.06)">
     <use xlink:href="#DejaVuSans-34"/>
     <use xlink:href="#DejaVuSans-2e" x="63.623047"/>
     <use xlink:href="#DejaVuSans-31" x="95.410156"/>
    </g>
   </g>
   <g id="text_79">
    <!-- 0.08 -->
    <g style="fill: #1f0909" transform="translate(30.615869 295.244392)scale(0.06 -0.06)">
     <use xlink:href="#DejaVuSans-30"/>
     <use xlink:href="#DejaVuSans-2e" x="63.623047"/>
     <use xlink:href="#DejaVuSans-30" x="95.410156"/>
     <use xlink:href="#DejaVuSans-38" x="159.033203"/>
    </g>
   </g>
   <g id="text_80">
    <!-- 3.6 -->
    <g style="fill: #1f0909" transform="translate(18.379216 295.244392)scale(0.06 -0.06)">
     <use xlink:href="#DejaVuSans-33"/>
     <use xlink:href="#DejaVuSans-2e" x="63.623047"/>
     <use xlink:href="#DejaVuSans-36" x="95.410156"/>
    </g>
   </g>
   <g id="text_81">
    <!-- 0.1 -->
    <g style="fill: #1f0909" transform="translate(34.433369 286.409153)scale(0.06 -0.06)">
     <use xlink:href="#DejaVuSans-30"/>
     <use xlink:href="#DejaVuSans-2e" x="63.623047"/>
     <use xlink:href="#DejaVuSans-31" x="95.410156"/>
    </g>
   </g>
   <g id="text_82">
    <!-- 3.3 -->
    <g style="fill: #1f0909" transform="translate(18.379216 286.409153)scale(0.06 -0.06)">
     <use xlink:href="#DejaVuSans-33"/>
     <use xlink:href="#DejaVuSans-2e" x="63.623047"/>
     <use xlink:href="#DejaVuSans-33" x="95.410156"/>
    </g>
   </g>
   <g id="text_83">
    <!-- 0.2 -->
    <g style="fill: #1f0909" transform="translate(34.433369 258.964396)scale(0.06 -0.06)">
     <use xlink:href="#DejaVuSans-30"/>
     <use xlink:href="#DejaVuSans-2e" x="63.623047"/>
     <use xlink:href="#DejaVuSans-32" x="95.410156"/>
    </g>
   </g>
   <g id="text_84">
    <!-- 2.3 -->
    <g style="fill: #1f0909" transform="translate(18.379216 258.964396)scale(0.06 -0.06)">
     <use xlink:href="#DejaVuSans-32"/>
     <use xlink:href="#DejaVuSans-2e" x="63.623047"/>
     <use xlink:href="#DejaVuSans-33" x="95.410156"/>
    </g>
   </g>
   <g id="text_85">
    <!-- 0.4 -->
    <g style="fill: #1f0909" transform="translate(34.433369 231.51964)scale(0.06 -0.06)">
     <use xlink:href="#DejaVuSans-30"/>
     <use xlink:href="#DejaVuSans-2e" x="63.623047"/>
     <use xlink:href="#DejaVuSans-34" x="95.410156"/>
    </g>
   </g>
   <g id="text_86">
    <!-- 1.3 -->
    <g style="fill: #1f0909" transform="translate(18.379216 231.51964)scale(0.06 -0.06)">
     <use xlink:href="#DejaVuSans-31"/>
     <use xlink:href="#DejaVuSans-2e" x="63.623047"/>
     <use xlink:href="#DejaVuSans-33" x="95.410156"/>
    </g>
   </g>
   <g id="text_87">
    <!-- 0.6 -->
    <g style="fill: #1f0909" transform="translate(34.433369 215.465486)scale(0.06 -0.06)">
     <use xlink:href="#DejaVuSans-30"/>
     <use xlink:href="#DejaVuSans-2e" x="63.623047"/>
     <use xlink:href="#DejaVuSans-36" x="95.410156"/>
    </g>
   </g>
   <g id="text_88">
    <!-- 0.7 -->
    <g style="fill: #1f0909" transform="translate(18.379216 215.465486)scale(0.06 -0.06)">
     <use xlink:href="#DejaVuSans-30"/>
     <use xlink:href="#DejaVuSans-2e" x="63.623047"/>
     <use xlink:href="#DejaVuSans-37" x="95.410156"/>
    </g>
   </g>
   <g id="text_89">
    <!-- 0.8 -->
    <g style="fill: #1f0909" transform="translate(34.433369 204.074883)scale(0.06 -0.06)">
     <use xlink:href="#DejaVuSans-30"/>
     <use xlink:href="#DejaVuSans-2e" x="63.623047"/>
     <use xlink:href="#DejaVuSans-38" x="95.410156"/>
    </g>
   </g>
   <g id="text_90">
    <!-- 0.3 -->
    <g style="fill: #1f0909" transform="translate(18.379216 204.074883)scale(0.06 -0.06)">
     <use xlink:href="#DejaVuSans-30"/>
     <use xlink:href="#DejaVuSans-2e" x="63.623047"/>
     <use xlink:href="#DejaVuSans-33" x="95.410156"/>
    </g>
   </g>
   <g id="text_91">
    <!-- 1.0 -->
    <g style="fill: #1f0909" transform="translate(34.433369 195.239644)scale(0.06 -0.06)">
     <use xlink:href="#DejaVuSans-31"/>
     <use xlink:href="#DejaVuSans-2e" x="63.623047"/>
     <use xlink:href="#DejaVuSans-30" x="95.410156"/>
    </g>
   </g>
   <g id="text_92">
    <!-- -0.0 -->
    <g style="fill: #1f0909" transform="translate(16.214528 195.239644)scale(0.06 -0.06)">
     <use xlink:href="#DejaVuSans-2d"/>
     <use xlink:href="#DejaVuSans-30" x="36.083984"/>
     <use xlink:href="#DejaVuSans-2e" x="99.707031"/>
     <use xlink:href="#DejaVuSans-30" x="131.494141"/>
    </g>
   </g>
   <g id="text_93">
    <!-- 2.0 -->
    <g style="fill: #1f0909" transform="translate(34.433369 167.794887)scale(0.06 -0.06)">
     <use xlink:href="#DejaVuSans-32"/>
     <use xlink:href="#DejaVuSans-2e" x="63.623047"/>
     <use xlink:href="#DejaVuSans-30" x="95.410156"/>
    </g>
   </g>
   <g id="text_94">
    <!-- -1.0 -->
    <g style="fill: #1f0909" transform="translate(16.214528 167.794887)scale(0.06 -0.06)">
     <use xlink:href="#DejaVuSans-2d"/>
     <use xlink:href="#DejaVuSans-31" x="36.083984"/>
     <use xlink:href="#DejaVuSans-2e" x="99.707031"/>
     <use xlink:href="#DejaVuSans-30" x="131.494141"/>
    </g>
   </g>
   <g id="text_95">
    <!-- 4.0 -->
    <g style="fill: #1f0909" transform="translate(34.433369 140.35013)scale(0.06 -0.06)">
     <use xlink:href="#DejaVuSans-34"/>
     <use xlink:href="#DejaVuSans-2e" x="63.623047"/>
     <use xlink:href="#DejaVuSans-30" x="95.410156"/>
    </g>
   </g>
   <g id="text_96">
    <!-- -2.0 -->
    <g style="fill: #1f0909" transform="translate(16.214528 140.35013)scale(0.06 -0.06)">
     <use xlink:href="#DejaVuSans-2d"/>
     <use xlink:href="#DejaVuSans-32" x="36.083984"/>
     <use xlink:href="#DejaVuSans-2e" x="99.707031"/>
     <use xlink:href="#DejaVuSans-30" x="131.494141"/>
    </g>
   </g>
   <g id="text_97">
    <!-- 6.0 -->
    <g style="fill: #1f0909" transform="translate(34.433369 124.295977)scale(0.06 -0.06)">
     <use xlink:href="#DejaVuSans-36"/>
     <use xlink:href="#DejaVuSans-2e" x="63.623047"/>
     <use xlink:href="#DejaVuSans-30" x="95.410156"/>
    </g>
   </g>
   <g id="text_98">
    <!-- -2.6 -->
    <g style="fill: #1f0909" transform="translate(16.214528 124.295977)scale(0.06 -0.06)">
     <use xlink:href="#DejaVuSans-2d"/>
     <use xlink:href="#DejaVuSans-32" x="36.083984"/>
     <use xlink:href="#DejaVuSans-2e" x="99.707031"/>
     <use xlink:href="#DejaVuSans-36" x="131.494141"/>
    </g>
   </g>
   <g id="text_99">
    <!-- 8.0 -->
    <g style="fill: #1f0909" transform="translate(34.433369 112.905373)scale(0.06 -0.06)">
     <use xlink:href="#DejaVuSans-38"/>
     <use xlink:href="#DejaVuSans-2e" x="63.623047"/>
     <use xlink:href="#DejaVuSans-30" x="95.410156"/>
    </g>
   </g>
   <g id="text_100">
    <!-- -3.0 -->
    <g style="fill: #1f0909" transform="translate(16.214528 112.905373)scale(0.06 -0.06)">
     <use xlink:href="#DejaVuSans-2d"/>
     <use xlink:href="#DejaVuSans-33" x="36.083984"/>
     <use xlink:href="#DejaVuSans-2e" x="99.707031"/>
     <use xlink:href="#DejaVuSans-30" x="131.494141"/>
    </g>
   </g>
   <g id="text_101">
    <!-- 10.0 -->
    <g style="fill: #1f0909" transform="translate(30.615869 104.070135)scale(0.06 -0.06)">
     <use xlink:href="#DejaVuSans-31"/>
     <use xlink:href="#DejaVuSans-30" x="63.623047"/>
     <use xlink:href="#DejaVuSans-2e" x="127.246094"/>
     <use xlink:href="#DejaVuSans-30" x="159.033203"/>
    </g>
   </g>
   <g id="text_102">
    <!-- -3.3 -->
    <g style="fill: #1f0909" transform="translate(16.214528 104.070135)scale(0.06 -0.06)">
     <use xlink:href="#DejaVuSans-2d"/>
     <use xlink:href="#DejaVuSans-33" x="36.083984"/>
     <use xlink:href="#DejaVuSans-2e" x="99.707031"/>
     <use xlink:href="#DejaVuSans-33" x="131.494141"/>
    </g>
   </g>
   <g id="text_103">
    <!-- 20.0 -->
    <g style="fill: #1f0909" transform="translate(30.615869 76.625378)scale(0.06 -0.06)">
     <use xlink:href="#DejaVuSans-32"/>
     <use xlink:href="#DejaVuSans-30" x="63.623047"/>
     <use xlink:href="#DejaVuSans-2e" x="127.246094"/>
     <use xlink:href="#DejaVuSans-30" x="159.033203"/>
    </g>
   </g>
   <g id="text_104">
    <!-- -4.3 -->
    <g style="fill: #1f0909" transform="translate(16.214528 76.625378)scale(0.06 -0.06)">
     <use xlink:href="#DejaVuSans-2d"/>
     <use xlink:href="#DejaVuSans-34" x="36.083984"/>
     <use xlink:href="#DejaVuSans-2e" x="99.707031"/>
     <use xlink:href="#DejaVuSans-33" x="131.494141"/>
    </g>
   </g>
   <g id="text_105">
    <!-- 40.0 -->
    <g style="fill: #1f0909" transform="translate(30.615869 49.180621)scale(0.06 -0.06)">
     <use xlink:href="#DejaVuSans-34"/>
     <use xlink:href="#DejaVuSans-30" x="63.623047"/>
     <use xlink:href="#DejaVuSans-2e" x="127.246094"/>
     <use xlink:href="#DejaVuSans-30" x="159.033203"/>
    </g>
   </g>
   <g id="text_106">
    <!-- -5.3 -->
    <g style="fill: #1f0909" transform="translate(16.214528 49.180621)scale(0.06 -0.06)">
     <use xlink:href="#DejaVuSans-2d"/>
     <use xlink:href="#DejaVuSans-35" x="36.083984"/>
     <use xlink:href="#DejaVuSans-2e" x="99.707031"/>
     <use xlink:href="#DejaVuSans-33" x="131.494141"/>
    </g>
   </g>
   <g id="line2d_31">
    <path d="M 236.110245 213.809861 
L 284.851028 213.809861 
" clip-path="url(#pe0935c6003)" style="fill: none; stroke-dasharray: 2.96,1.28; stroke-dashoffset: 0; stroke: #1f0909; stroke-width: 0.8"/>
   </g>
   <g id="line2d_32">
    <path d="M 248.571032 197.755707 
L 284.851028 197.755707 
" clip-path="url(#pe0935c6003)" style="fill: none; stroke-dasharray: 2.96,1.28; stroke-dashoffset: 0; stroke: #1f0909; stroke-width: 0.8"/>
   </g>
   <g id="line2d_33">
    <path d="M 248.571032 79.141441 
L 284.851028 79.141441 
" clip-path="url(#pe0935c6003)" style="fill: none; stroke-dasharray: 2.96,1.28; stroke-dashoffset: 0; stroke: #1f0909; stroke-width: 0.8"/>
   </g>
   <g id="line2d_34">
    <path d="M 200.900434 250.371315 
L 284.851028 250.371315 
" clip-path="url(#pe0935c6003)" style="fill: none; stroke-dasharray: 2.96,1.28; stroke-dashoffset: 0; stroke: #1f0909; stroke-width: 0.8"/>
   </g>
   <g id="line2d_35">
    <path d="M 224.173503 226.397409 
L 284.851028 226.397409 
" clip-path="url(#pe0935c6003)" style="fill: none; stroke-dasharray: 2.96,1.28; stroke-dashoffset: 0; stroke: #1f0909; stroke-width: 0.8"/>
   </g>
   <g id="line2d_36">
    <path d="M 248.571032 190.7795 
L 284.851028 190.7795 
" clip-path="url(#pe0935c6003)" style="fill: none; stroke-dasharray: 2.96,1.28; stroke-dashoffset: 0; stroke: #1f0909; stroke-width: 0.8"/>
   </g>
   <g id="line2d_37">
    <path d="M 261.893454 165.161573 
L 261.893454 177.529866 
" clip-path="url(#pe0935c6003)" style="fill: none; stroke: #1f0909; stroke-width: 0.5; stroke-linecap: square"/>
   </g>
   <g id="line2d_38">
    <path d="M 219.509952 166.139262 
L 224.900026 186.365104 
" clip-path="url(#pe0935c6003)" style="fill: none; stroke: #1f0909; stroke-width: 0.5; stroke-linecap: square"/>
   </g>
   <g id="line2d_39">
    <path d="M 200.900434 193.584019 
L 212.291037 197.755707 
" clip-path="url(#pe0935c6003)" style="fill: none; stroke: #1f0909; stroke-width: 0.5; stroke-linecap: square"/>
   </g>
   <g id="line2d_40">
    <path d="M 234.448697 238.699253 
L 200.900434 238.699253 
" clip-path="url(#pe0935c6003)" style="fill: none; stroke: #1f0909; stroke-width: 0.5; stroke-linecap: square"/>
   </g>
   <g id="line2d_41">
    <path d="M 170.723944 266.14401 
L 170.723944 257.308771 
" clip-path="url(#pe0935c6003)" style="fill: none; stroke: #1f0909; stroke-width: 0.5; stroke-linecap: square"/>
   </g>
   <g id="line2d_42">
    <path d="M 73.450929 301.810126 
L 73.450929 312.198285 
" clip-path="url(#pe0935c6003)" style="fill: none; stroke: #1f0909; stroke-width: 0.5; stroke-linecap: square"/>
   </g>
   <g id="line2d_43">
    <path d="M 248.571032 47.524996 
L 248.571032 66.134515 
" clip-path="url(#pe0935c6003)" style="fill: none; stroke: #1f0909; stroke-width: 0.5; stroke-linecap: square"/>
   </g>
   <g id="line2d_44">
    <path d="M 221.126275 129.859267 
L 234.448697 129.859267 
" clip-path="url(#pe0935c6003)" style="fill: none; stroke: #1f0909; stroke-width: 0.5; stroke-linecap: square"/>
   </g>
   <g id="line2d_45">
    <path d="M 254.447636 221.028776 
L 228.345191 202.419258 
" clip-path="url(#pe0935c6003)" style="fill: none; stroke: #1f0909; stroke-width: 0.5; stroke-linecap: square"/>
   </g>
   <g id="line2d_46">
    <path d="M 121.121528 195.614947 
L 129.956766 221.028776 
" clip-path="url(#pe0935c6003)" style="fill: none; stroke: #1f0909; stroke-width: 0.5; stroke-linecap: square"/>
   </g>
   <g id="line2d_47">
    <path d="M 93.676771 268.699375 
L 121.121528 284.753528 
" clip-path="url(#pe0935c6003)" style="fill: none; stroke: #1f0909; stroke-width: 0.5; stroke-linecap: square"/>
   </g>
   <g id="line2d_48">
    <path d="M 102.746728 280.970119 
L 124.34613 277.021297 
L 125.230645 276.628365 
L 96.532123 282.157021 
L 113.669806 279.04028 
L 89.931855 283.816932 
L 119.285347 277.897439 
L 106.579554 280.653662 
L 94.740125 282.546591 
L 122.442534 277.077042 
L 116.489335 278.22404 
L 97.783332 281.855864 
L 123.788658 277.019433 
L 107.889453 280.552769 
L 95.99907 282.054098 
L 102.399005 280.871819 
L 106.023915 280.65273 
L 93.925122 282.839104 
L 103.941425 280.8532 
L 108.208578 280.276337 
L 104.619596 280.76275 
L 122.784572 277.052372 
L 113.129299 279.04028 
L 113.303943 279.149773 
L 119.658869 277.846876 
L 107.293227 280.46335 
L 95.964284 282.376007 
L 117.892327 278.051949 
L 95.286951 282.435414 
L 100.147384 281.412776 
L 105.50564 280.65273 
L 114.977109 278.506026 
L 76.635742 286.144693 
L 113.827967 279.150925 
L 94.529893 282.54996 
L 117.303597 278.055154 
L 123.969159 276.738945 
L 116.234402 278.440836 
L 110.631927 279.943564 
L 120.262469 277.543351 
L 117.027612 278.217471 
L 109.518019 279.93901 
L 101.130714 281.283468 
L 113.517282 279.034517 
L 104.368586 280.757989 
L 106.223475 280.650866 
L 81.118139 285.615116 
L 101.109697 281.285459 
L 111.452956 279.579804 
L 102.211161 281.307866 
L 95.702795 282.158116 
L 120.11669 277.64215 
L 123.620019 276.951448 
L 95.655561 282.433168 
L 102.781386 281.06842 
L 106.727812 280.462438 
L 88.969953 284.181221 
L 107.614238 280.457876 
L 107.150588 280.460613 
L 112.872858 279.243566 
L 115.514507 278.622818 
L 77.088807 287.364742 
L 73.699646 287.790619 
L 104.074541 280.857009 
L 74.174479 289.385735 
L 92.501341 282.725001 
L 89.735229 283.032608 
L 121.29068 277.503976 
L 108.186818 280.283488 
L 107.847882 280.280806 
L 99.919976 281.413794 
L 78.259952 285.992554 
L 114.965614 278.620572 
L 118.094246 278.151294 
L 84.222657 284.670489 
L 116.756599 278.216376 
L 107.797787 280.279913 
L 82.756571 285.745287 
L 112.299615 279.24475 
L 123.112929 277.047611 
L 115.933703 278.506026 
L 91.469862 283.027874 
L 116.086078 278.654347 
L 113.178787 279.36312 
L 96.420727 282.268704 
L 115.34563 278.73175 
L 87.031481 284.186374 
L 112.54471 279.361937 
L 80.760666 285.180346 
L 95.879839 282.267609 
L 84.34415 284.966407 
L 105.202973 280.567931 
L 96.22447 282.162496 
L 99.509932 281.650435 
L 86.510566 284.308748 
L 115.561835 278.620572 
L 82.993272 285.175254 
L 119.268845 277.892225 
L 118.315993 278.161976 
L 98.134041 281.748457 
" clip-path="url(#pe0935c6003)" style="fill: none; stroke: #ffffff; stroke-opacity: 0; stroke-linecap: square"/>
    <defs>
     <path id="m7b18cf15fe" d="M 0 2 
C 0.530406 2 1.03916 1.789267 1.414214 1.414214 
C 1.789267 1.03916 2 0.530406 2 0 
C 2 -0.530406 1.789267 -1.03916 1.414214 -1.414214 
C 1.03916 -1.789267 0.530406 -2 0 -2 
C -0.530406 -2 -1.03916 -1.789267 -1.414214 -1.414214 
C -1.789267 -1.03916 -2 -0.530406 -2 0 
C -2 0.530406 -1.789267 1.03916 -1.414214 1.414214 
C -1.03916 1.789267 -0.530406 2 0 2 
z
"/>
    </defs>
    <g clip-path="url(#pe0935c6003)">
     <use xlink:href="#m7b18cf15fe" x="102.746728" y="280.970119" style="fill: #3c6f93"/>
     <use xlink:href="#m7b18cf15fe" x="124.34613" y="277.021297" style="fill: #3c6f93"/>
     <use xlink:href="#m7b18cf15fe" x="125.230645" y="276.628365" style="fill: #3c6f93"/>
     <use xlink:href="#m7b18cf15fe" x="96.532123" y="282.157021" style="fill: #3c6f93"/>
     <use xlink:href="#m7b18cf15fe" x="113.669806" y="279.04028" style="fill: #3c6f93"/>
     <use xlink:href="#m7b18cf15fe" x="89.931855" y="283.816932" style="fill: #3c6f93"/>
     <use xlink:href="#m7b18cf15fe" x="119.285347" y="277.897439" style="fill: #3c6f93"/>
     <use xlink:href="#m7b18cf15fe" x="106.579554" y="280.653662" style="fill: #3c6f93"/>
     <use xlink:href="#m7b18cf15fe" x="94.740125" y="282.546591" style="fill: #3c6f93"/>
     <use xlink:href="#m7b18cf15fe" x="122.442534" y="277.077042" style="fill: #3c6f93"/>
     <use xlink:href="#m7b18cf15fe" x="116.489335" y="278.22404" style="fill: #3c6f93"/>
     <use xlink:href="#m7b18cf15fe" x="97.783332" y="281.855864" style="fill: #3c6f93"/>
     <use xlink:href="#m7b18cf15fe" x="123.788658" y="277.019433" style="fill: #3c6f93"/>
     <use xlink:href="#m7b18cf15fe" x="107.889453" y="280.552769" style="fill: #3c6f93"/>
     <use xlink:href="#m7b18cf15fe" x="95.99907" y="282.054098" style="fill: #3c6f93"/>
     <use xlink:href="#m7b18cf15fe" x="102.399005" y="280.871819" style="fill: #3c6f93"/>
     <use xlink:href="#m7b18cf15fe" x="106.023915" y="280.65273" style="fill: #3c6f93"/>
     <use xlink:href="#m7b18cf15fe" x="93.925122" y="282.839104" style="fill: #3c6f93"/>
     <use xlink:href="#m7b18cf15fe" x="103.941425" y="280.8532" style="fill: #3c6f93"/>
     <use xlink:href="#m7b18cf15fe" x="108.208578" y="280.276337" style="fill: #3c6f93"/>
     <use xlink:href="#m7b18cf15fe" x="104.619596" y="280.76275" style="fill: #3c6f93"/>
     <use xlink:href="#m7b18cf15fe" x="122.784572" y="277.052372" style="fill: #3c6f93"/>
     <use xlink:href="#m7b18cf15fe" x="113.129299" y="279.04028" style="fill: #3c6f93"/>
     <use xlink:href="#m7b18cf15fe" x="113.303943" y="279.149773" style="fill: #3c6f93"/>
     <use xlink:href="#m7b18cf15fe" x="119.658869" y="277.846876" style="fill: #3c6f93"/>
     <use xlink:href="#m7b18cf15fe" x="107.293227" y="280.46335" style="fill: #3c6f93"/>
     <use xlink:href="#m7b18cf15fe" x="95.964284" y="282.376007" style="fill: #3c6f93"/>
     <use xlink:href="#m7b18cf15fe" x="117.892327" y="278.051949" style="fill: #3c6f93"/>
     <use xlink:href="#m7b18cf15fe" x="95.286951" y="282.435414" style="fill: #3c6f93"/>
     <use xlink:href="#m7b18cf15fe" x="100.147384" y="281.412776" style="fill: #3c6f93"/>
     <use xlink:href="#m7b18cf15fe" x="105.50564" y="280.65273" style="fill: #3c6f93"/>
     <use xlink:href="#m7b18cf15fe" x="114.977109" y="278.506026" style="fill: #3c6f93"/>
     <use xlink:href="#m7b18cf15fe" x="76.635742" y="286.144693" style="fill: #3c6f93"/>
     <use xlink:href="#m7b18cf15fe" x="113.827967" y="279.150925" style="fill: #3c6f93"/>
     <use xlink:href="#m7b18cf15fe" x="94.529893" y="282.54996" style="fill: #3c6f93"/>
     <use xlink:href="#m7b18cf15fe" x="117.303597" y="278.055154" style="fill: #3c6f93"/>
     <use xlink:href="#m7b18cf15fe" x="123.969159" y="276.738945" style="fill: #3c6f93"/>
     <use xlink:href="#m7b18cf15fe" x="116.234402" y="278.440836" style="fill: #3c6f93"/>
     <use xlink:href="#m7b18cf15fe" x="110.631927" y="279.943564" style="fill: #3c6f93"/>
     <use xlink:href="#m7b18cf15fe" x="120.262469" y="277.543351" style="fill: #3c6f93"/>
     <use xlink:href="#m7b18cf15fe" x="117.027612" y="278.217471" style="fill: #3c6f93"/>
     <use xlink:href="#m7b18cf15fe" x="109.518019" y="279.93901" style="fill: #3c6f93"/>
     <use xlink:href="#m7b18cf15fe" x="101.130714" y="281.283468" style="fill: #3c6f93"/>
     <use xlink:href="#m7b18cf15fe" x="113.517282" y="279.034517" style="fill: #3c6f93"/>
     <use xlink:href="#m7b18cf15fe" x="104.368586" y="280.757989" style="fill: #3c6f93"/>
     <use xlink:href="#m7b18cf15fe" x="106.223475" y="280.650866" style="fill: #3c6f93"/>
     <use xlink:href="#m7b18cf15fe" x="81.118139" y="285.615116" style="fill: #3c6f93"/>
     <use xlink:href="#m7b18cf15fe" x="101.109697" y="281.285459" style="fill: #3c6f93"/>
     <use xlink:href="#m7b18cf15fe" x="111.452956" y="279.579804" style="fill: #3c6f93"/>
     <use xlink:href="#m7b18cf15fe" x="102.211161" y="281.307866" style="fill: #3c6f93"/>
     <use xlink:href="#m7b18cf15fe" x="95.702795" y="282.158116" style="fill: #3c6f93"/>
     <use xlink:href="#m7b18cf15fe" x="120.11669" y="277.64215" style="fill: #3c6f93"/>
     <use xlink:href="#m7b18cf15fe" x="123.620019" y="276.951448" style="fill: #3c6f93"/>
     <use xlink:href="#m7b18cf15fe" x="95.655561" y="282.433168" style="fill: #3c6f93"/>
     <use xlink:href="#m7b18cf15fe" x="102.781386" y="281.06842" style="fill: #3c6f93"/>
     <use xlink:href="#m7b18cf15fe" x="106.727812" y="280.462438" style="fill: #3c6f93"/>
     <use xlink:href="#m7b18cf15fe" x="88.969953" y="284.181221" style="fill: #3c6f93"/>
     <use xlink:href="#m7b18cf15fe" x="107.614238" y="280.457876" style="fill: #3c6f93"/>
     <use xlink:href="#m7b18cf15fe" x="107.150588" y="280.460613" style="fill: #3c6f93"/>
     <use xlink:href="#m7b18cf15fe" x="112.872858" y="279.243566" style="fill: #3c6f93"/>
     <use xlink:href="#m7b18cf15fe" x="115.514507" y="278.622818" style="fill: #3c6f93"/>
     <use xlink:href="#m7b18cf15fe" x="77.088807" y="287.364742" style="fill: #3c6f93"/>
     <use xlink:href="#m7b18cf15fe" x="73.699646" y="287.790619" style="fill: #3c6f93"/>
     <use xlink:href="#m7b18cf15fe" x="104.074541" y="280.857009" style="fill: #3c6f93"/>
     <use xlink:href="#m7b18cf15fe" x="74.174479" y="289.385735" style="fill: #3c6f93"/>
     <use xlink:href="#m7b18cf15fe" x="92.501341" y="282.725001" style="fill: #3c6f93"/>
     <use xlink:href="#m7b18cf15fe" x="89.735229" y="283.032608" style="fill: #3c6f93"/>
     <use xlink:href="#m7b18cf15fe" x="121.29068" y="277.503976" style="fill: #3c6f93"/>
     <use xlink:href="#m7b18cf15fe" x="108.186818" y="280.283488" style="fill: #3c6f93"/>
     <use xlink:href="#m7b18cf15fe" x="107.847882" y="280.280806" style="fill: #3c6f93"/>
     <use xlink:href="#m7b18cf15fe" x="99.919976" y="281.413794" style="fill: #3c6f93"/>
     <use xlink:href="#m7b18cf15fe" x="78.259952" y="285.992554" style="fill: #3c6f93"/>
     <use xlink:href="#m7b18cf15fe" x="114.965614" y="278.620572" style="fill: #3c6f93"/>
     <use xlink:href="#m7b18cf15fe" x="118.094246" y="278.151294" style="fill: #3c6f93"/>
     <use xlink:href="#m7b18cf15fe" x="84.222657" y="284.670489" style="fill: #3c6f93"/>
     <use xlink:href="#m7b18cf15fe" x="116.756599" y="278.216376" style="fill: #3c6f93"/>
     <use xlink:href="#m7b18cf15fe" x="107.797787" y="280.279913" style="fill: #3c6f93"/>
     <use xlink:href="#m7b18cf15fe" x="82.756571" y="285.745287" style="fill: #3c6f93"/>
     <use xlink:href="#m7b18cf15fe" x="112.299615" y="279.24475" style="fill: #3c6f93"/>
     <use xlink:href="#m7b18cf15fe" x="123.112929" y="277.047611" style="fill: #3c6f93"/>
     <use xlink:href="#m7b18cf15fe" x="115.933703" y="278.506026" style="fill: #3c6f93"/>
     <use xlink:href="#m7b18cf15fe" x="91.469862" y="283.027874" style="fill: #3c6f93"/>
     <use xlink:href="#m7b18cf15fe" x="116.086078" y="278.654347" style="fill: #3c6f93"/>
     <use xlink:href="#m7b18cf15fe" x="113.178787" y="279.36312" style="fill: #3c6f93"/>
     <use xlink:href="#m7b18cf15fe" x="96.420727" y="282.268704" style="fill: #3c6f93"/>
     <use xlink:href="#m7b18cf15fe" x="115.34563" y="278.73175" style="fill: #3c6f93"/>
     <use xlink:href="#m7b18cf15fe" x="87.031481" y="284.186374" style="fill: #3c6f93"/>
     <use xlink:href="#m7b18cf15fe" x="112.54471" y="279.361937" style="fill: #3c6f93"/>
     <use xlink:href="#m7b18cf15fe" x="80.760666" y="285.180346" style="fill: #3c6f93"/>
     <use xlink:href="#m7b18cf15fe" x="95.879839" y="282.267609" style="fill: #3c6f93"/>
     <use xlink:href="#m7b18cf15fe" x="84.34415" y="284.966407" style="fill: #3c6f93"/>
     <use xlink:href="#m7b18cf15fe" x="105.202973" y="280.567931" style="fill: #3c6f93"/>
     <use xlink:href="#m7b18cf15fe" x="96.22447" y="282.162496" style="fill: #3c6f93"/>
     <use xlink:href="#m7b18cf15fe" x="99.509932" y="281.650435" style="fill: #3c6f93"/>
     <use xlink:href="#m7b18cf15fe" x="86.510566" y="284.308748" style="fill: #3c6f93"/>
     <use xlink:href="#m7b18cf15fe" x="115.561835" y="278.620572" style="fill: #3c6f93"/>
     <use xlink:href="#m7b18cf15fe" x="82.993272" y="285.175254" style="fill: #3c6f93"/>
     <use xlink:href="#m7b18cf15fe" x="119.268845" y="277.892225" style="fill: #3c6f93"/>
     <use xlink:href="#m7b18cf15fe" x="118.315993" y="278.161976" style="fill: #3c6f93"/>
     <use xlink:href="#m7b18cf15fe" x="98.134041" y="281.748457" style="fill: #3c6f93"/>
    </g>
   </g>
  </g>
 </g>
 <defs>
  <clipPath id="pe0935c6003">
   <rect x="34.06393" y="14.248233" width="262.729341" height="378.897415"/>
  </clipPath>
 </defs>
</svg>
