<?xml version="1.0" encoding="utf-8" standalone="no"?>
<!DOCTYPE svg PUBLIC "-//W3C//DTD SVG 1.1//EN"
  "http://www.w3.org/Graphics/SVG/1.1/DTD/svg11.dtd">
<svg xmlns:xlink="http://www.w3.org/1999/xlink" width="360.355915pt" height="314.78125pt" viewBox="0 0 360.355915 314.78125" xmlns="http://www.w3.org/2000/svg" version="1.1">
 <metadata>
  <rdf:RDF xmlns:dc="http://purl.org/dc/elements/1.1/" xmlns:cc="http://creativecommons.org/ns#" xmlns:rdf="http://www.w3.org/1999/02/22-rdf-syntax-ns#">
   <cc:Work>
    <dc:type rdf:resource="http://purl.org/dc/dcmitype/StillImage"/>
    <dc:date>2022-08-17T11:41:22.808030</dc:date>
    <dc:format>image/svg+xml</dc:format>
    <dc:creator>
     <cc:Agent>
      <dc:title>Matplotlib v3.5.3, https://matplotlib.org/</dc:title>
     </cc:Agent>
    </dc:creator>
   </cc:Work>
  </rdf:RDF>
 </metadata>
 <defs>
  <style type="text/css">*{stroke-linejoin: round; stroke-linecap: butt}</style>
 </defs>
 <g id="figure_1">
  <g id="patch_1">
   <path d="M 0 314.78125 
L 360.355915 314.78125 
L 360.355915 0 
L 0 0 
L 0 314.78125 
z
" style="fill: none"/>
  </g>
  <g id="axes_1">
   <g id="line2d_1">
    <path d="M 27.543752 290.35875 
L 178.578582 28.75875 
L 329.613413 290.35875 
L 27.543752 290.35875 
" clip-path="url(#p3b9543edc4)" style="fill: none; stroke: #1f0909; stroke-width: 0.8; stroke-linecap: square"/>
   </g>
   <g id="line2d_2">
    <path d="M 29.0541 287.74275 
L 328.103064 287.74275 
" clip-path="url(#p3b9543edc4)" style="fill: none; stroke: #1f0909; stroke-width: 0.8; stroke-linecap: square"/>
   </g>
   <g id="line2d_3">
    <path d="M 35.095493 277.27875 
L 322.061671 277.27875 
" clip-path="url(#p3b9543edc4)" style="fill: none; stroke: #1f0909; stroke-width: 0.8; stroke-linecap: square"/>
   </g>
   <g id="line2d_4">
    <path d="M 72.854201 211.87875 
L 284.302964 211.87875 
" clip-path="url(#p3b9543edc4)" style="fill: none; stroke: #1f0909; stroke-width: 0.8; stroke-linecap: square"/>
   </g>
   <g id="line2d_5">
    <path d="M 148.371616 81.07875 
L 208.785548 81.07875 
" clip-path="url(#p3b9543edc4)" style="fill: none; stroke: #1f0909; stroke-width: 0.8; stroke-linecap: square"/>
   </g>
   <g id="line2d_6">
    <path d="M 57.750718 290.35875 
L 63.792111 277.27875 
" clip-path="url(#p3b9543edc4)" style="fill: none; stroke: #1f0909; stroke-width: 0.8; stroke-linecap: square"/>
   </g>
   <g id="line2d_7">
    <path d="M 178.578582 290.35875 
L 178.578582 81.07875 
" clip-path="url(#p3b9543edc4)" style="fill: none; stroke: #1f0909; stroke-width: 0.8; stroke-linecap: square"/>
   </g>
   <g id="line2d_8">
    <path d="M 299.406447 290.35875 
L 202.744155 81.07875 
" clip-path="url(#p3b9543edc4)" style="fill: none; stroke: #1f0909; stroke-width: 0.8; stroke-linecap: square"/>
   </g>
   <g id="line2d_9">
    <path d="M 45.365862 285.12675 
L 37.693292 258.96675 
" clip-path="url(#p3b9543edc4)" style="fill: none; stroke: #1f0909; stroke-width: 0.8; stroke-linecap: square"/>
   </g>
   <g id="line2d_10">
    <path d="M 119.372929 285.12675 
L 121.789486 274.66275 
" clip-path="url(#p3b9543edc4)" style="fill: none; stroke: #1f0909; stroke-width: 0.8; stroke-linecap: square"/>
   </g>
   <g id="line2d_11">
    <path d="M 237.784236 285.12675 
L 235.367679 274.66275 
" clip-path="url(#p3b9543edc4)" style="fill: none; stroke: #1f0909; stroke-width: 0.8; stroke-linecap: square"/>
   </g>
   <g id="line2d_12">
    <path d="M 311.791303 285.12675 
L 319.463872 258.96675 
" clip-path="url(#p3b9543edc4)" style="fill: none; stroke: #1f0909; stroke-width: 0.8; stroke-linecap: square"/>
   </g>
   <g id="line2d_13">
    <path d="M 311.791303 285.12675 
L 319.463872 258.96675 
" clip-path="url(#p3b9543edc4)" style="fill: none; stroke: #1f0909; stroke-width: 0.8; stroke-linecap: square"/>
   </g>
   <g id="line2d_14">
    <path d="M 287.32366 238.03875 
L 294.648849 218.41875 
" clip-path="url(#p3b9543edc4)" style="fill: none; stroke: #1f0909; stroke-width: 0.8; stroke-linecap: square"/>
   </g>
   <g id="line2d_15">
    <path d="M 246.544256 159.55875 
L 250.622196 146.47875 
" clip-path="url(#p3b9543edc4)" style="fill: none; stroke: #1f0909; stroke-width: 0.8; stroke-linecap: square"/>
   </g>
   <g id="line2d_16">
    <path d="M 49.950599 290.35875 
L 51.198172 290.35875 
L 57.363991 290.35875 
L 67.096536 290.35875 
L 48.20945 290.35875 
L 63.026292 290.35875 
L 57.68729 290.35875 
L 56.128117 290.35875 
L 56.831875 290.35875 
L 58.542299 290.35875 
L 47.655558 290.35875 
L 53.790981 290.35875 
L 52.24564 290.35875 
L 65.491291 290.35875 
L 53.89862 290.35875 
L 64.970183 290.35875 
L 59.206985 290.35875 
L 48.904349 290.35875 
L 49.569035 290.35875 
L 59.575949 290.35875 
L 55.067803 290.35875 
L 53.164383 290.35875 
L 67.330305 290.35875 
L 50.224647 290.35875 
L 53.592576 290.35875 
L 48.908623 290.35875 
L 57.841339 290.35875 
L 55.847679 290.35875 
L 47.002876 290.35875 
L 46.060622 290.35875 
L 57.512059 290.35875 
L 56.361198 290.35875 
L 54.211169 290.35875 
L 56.762654 290.35875 
L 47.111995 290.35875 
L 52.046502 290.35875 
L 41.108036 290.35875 
L 56.899052 290.35875 
L 62.409564 290.35875 
L 60.213817 290.35875 
L 53.884226 290.35875 
L 66.246616 290.35875 
L 60.170538 290.35875 
L 55.817472 290.35875 
L 50.001002 290.35875 
L 65.064556 290.35875 
L 59.989278 290.35875 
L 56.699305 290.35875 
L 67.179255 290.35875 
L 56.161196 290.35875 
L 51.540081 290.35875 
L 64.184802 290.35875 
L 67.972801 290.35875 
L 52.25305 290.35875 
L 60.328145 290.35875 
L 56.248981 290.35875 
L 57.759783 290.35875 
L 49.778302 290.35875 
L 64.92876 290.35875 
L 49.48498 290.35875 
L 61.499777 290.35875 
L 60.076654 290.35875 
L 52.562625 290.35875 
L 61.597219 290.35875 
L 46.968774 290.35875 
L 66.333375 290.35875 
L 59.059072 290.35875 
L 61.298435 290.35875 
L 65.819806 290.35875 
L 59.200652 290.35875 
L 54.570401 290.35875 
L 47.963661 290.35875 
L 57.403164 290.35875 
L 55.032091 290.35875 
L 42.289175 290.35875 
L 54.801338 290.35875 
L 60.355079 290.35875 
L 54.416556 290.35875 
L 52.703639 290.35875 
L 61.20441 290.35875 
L 66.321741 290.35875 
L 56.351156 290.35875 
L 49.808512 290.35875 
L 55.754237 290.35875 
L 58.297519 290.35875 
L 62.338697 290.35875 
L 56.493605 290.35875 
L 59.354868 290.35875 
L 59.928858 290.35875 
L 57.182713 290.35875 
L 58.539199 290.35875 
L 53.274941 290.35875 
L 59.647336 290.35875 
L 58.291369 290.35875 
L 45.149131 290.35875 
L 52.731324 290.35875 
L 52.98565 290.35875 
L 52.139601 290.35875 
L 47.446162 290.35875 
L 56.418724 290.35875 
" clip-path="url(#p3b9543edc4)" style="fill: none; stroke: #ffffff; stroke-opacity: 0; stroke-linecap: square"/>
    <defs>
     <path id="m98d9b9443a" d="M 0 2 
C 0.530406 2 1.03916 1.789267 1.414214 1.414214 
C 1.789267 1.03916 2 0.530406 2 0 
C 2 -0.530406 1.789267 -1.03916 1.414214 -1.414214 
C 1.03916 -1.789267 0.530406 -2 0 -2 
C -0.530406 -2 -1.03916 -1.789267 -1.414214 -1.414214 
C -1.789267 -1.03916 -2 -0.530406 -2 0 
C -2 0.530406 -1.789267 1.03916 -1.414214 1.414214 
C -1.03916 1.789267 -0.530406 2 0 2 
z
"/>
    </defs>
    <g clip-path="url(#p3b9543edc4)">
     <use xlink:href="#m98d9b9443a" x="49.950599" y="290.35875" style="fill: #3c6f93"/>
     <use xlink:href="#m98d9b9443a" x="51.198172" y="290.35875" style="fill: #3c6f93"/>
     <use xlink:href="#m98d9b9443a" x="57.363991" y="290.35875" style="fill: #3c6f93"/>
     <use xlink:href="#m98d9b9443a" x="67.096536" y="290.35875" style="fill: #3c6f93"/>
     <use xlink:href="#m98d9b9443a" x="48.20945" y="290.35875" style="fill: #3c6f93"/>
     <use xlink:href="#m98d9b9443a" x="63.026292" y="290.35875" style="fill: #3c6f93"/>
     <use xlink:href="#m98d9b9443a" x="57.68729" y="290.35875" style="fill: #3c6f93"/>
     <use xlink:href="#m98d9b9443a" x="56.128117" y="290.35875" style="fill: #3c6f93"/>
     <use xlink:href="#m98d9b9443a" x="56.831875" y="290.35875" style="fill: #3c6f93"/>
     <use xlink:href="#m98d9b9443a" x="58.542299" y="290.35875" style="fill: #3c6f93"/>
     <use xlink:href="#m98d9b9443a" x="47.655558" y="290.35875" style="fill: #3c6f93"/>
     <use xlink:href="#m98d9b9443a" x="53.790981" y="290.35875" style="fill: #3c6f93"/>
     <use xlink:href="#m98d9b9443a" x="52.24564" y="290.35875" style="fill: #3c6f93"/>
     <use xlink:href="#m98d9b9443a" x="65.491291" y="290.35875" style="fill: #3c6f93"/>
     <use xlink:href="#m98d9b9443a" x="53.89862" y="290.35875" style="fill: #3c6f93"/>
     <use xlink:href="#m98d9b9443a" x="64.970183" y="290.35875" style="fill: #3c6f93"/>
     <use xlink:href="#m98d9b9443a" x="59.206985" y="290.35875" style="fill: #3c6f93"/>
     <use xlink:href="#m98d9b9443a" x="48.904349" y="290.35875" style="fill: #3c6f93"/>
     <use xlink:href="#m98d9b9443a" x="49.569035" y="290.35875" style="fill: #3c6f93"/>
     <use xlink:href="#m98d9b9443a" x="59.575949" y="290.35875" style="fill: #3c6f93"/>
     <use xlink:href="#m98d9b9443a" x="55.067803" y="290.35875" style="fill: #3c6f93"/>
     <use xlink:href="#m98d9b9443a" x="53.164383" y="290.35875" style="fill: #3c6f93"/>
     <use xlink:href="#m98d9b9443a" x="67.330305" y="290.35875" style="fill: #3c6f93"/>
     <use xlink:href="#m98d9b9443a" x="50.224647" y="290.35875" style="fill: #3c6f93"/>
     <use xlink:href="#m98d9b9443a" x="53.592576" y="290.35875" style="fill: #3c6f93"/>
     <use xlink:href="#m98d9b9443a" x="48.908623" y="290.35875" style="fill: #3c6f93"/>
     <use xlink:href="#m98d9b9443a" x="57.841339" y="290.35875" style="fill: #3c6f93"/>
     <use xlink:href="#m98d9b9443a" x="55.847679" y="290.35875" style="fill: #3c6f93"/>
     <use xlink:href="#m98d9b9443a" x="47.002876" y="290.35875" style="fill: #3c6f93"/>
     <use xlink:href="#m98d9b9443a" x="46.060622" y="290.35875" style="fill: #3c6f93"/>
     <use xlink:href="#m98d9b9443a" x="57.512059" y="290.35875" style="fill: #3c6f93"/>
     <use xlink:href="#m98d9b9443a" x="56.361198" y="290.35875" style="fill: #3c6f93"/>
     <use xlink:href="#m98d9b9443a" x="54.211169" y="290.35875" style="fill: #3c6f93"/>
     <use xlink:href="#m98d9b9443a" x="56.762654" y="290.35875" style="fill: #3c6f93"/>
     <use xlink:href="#m98d9b9443a" x="47.111995" y="290.35875" style="fill: #3c6f93"/>
     <use xlink:href="#m98d9b9443a" x="52.046502" y="290.35875" style="fill: #3c6f93"/>
     <use xlink:href="#m98d9b9443a" x="41.108036" y="290.35875" style="fill: #3c6f93"/>
     <use xlink:href="#m98d9b9443a" x="56.899052" y="290.35875" style="fill: #3c6f93"/>
     <use xlink:href="#m98d9b9443a" x="62.409564" y="290.35875" style="fill: #3c6f93"/>
     <use xlink:href="#m98d9b9443a" x="60.213817" y="290.35875" style="fill: #3c6f93"/>
     <use xlink:href="#m98d9b9443a" x="53.884226" y="290.35875" style="fill: #3c6f93"/>
     <use xlink:href="#m98d9b9443a" x="66.246616" y="290.35875" style="fill: #3c6f93"/>
     <use xlink:href="#m98d9b9443a" x="60.170538" y="290.35875" style="fill: #3c6f93"/>
     <use xlink:href="#m98d9b9443a" x="55.817472" y="290.35875" style="fill: #3c6f93"/>
     <use xlink:href="#m98d9b9443a" x="50.001002" y="290.35875" style="fill: #3c6f93"/>
     <use xlink:href="#m98d9b9443a" x="65.064556" y="290.35875" style="fill: #3c6f93"/>
     <use xlink:href="#m98d9b9443a" x="59.989278" y="290.35875" style="fill: #3c6f93"/>
     <use xlink:href="#m98d9b9443a" x="56.699305" y="290.35875" style="fill: #3c6f93"/>
     <use xlink:href="#m98d9b9443a" x="67.179255" y="290.35875" style="fill: #3c6f93"/>
     <use xlink:href="#m98d9b9443a" x="56.161196" y="290.35875" style="fill: #3c6f93"/>
     <use xlink:href="#m98d9b9443a" x="51.540081" y="290.35875" style="fill: #3c6f93"/>
     <use xlink:href="#m98d9b9443a" x="64.184802" y="290.35875" style="fill: #3c6f93"/>
     <use xlink:href="#m98d9b9443a" x="67.972801" y="290.35875" style="fill: #3c6f93"/>
     <use xlink:href="#m98d9b9443a" x="52.25305" y="290.35875" style="fill: #3c6f93"/>
     <use xlink:href="#m98d9b9443a" x="60.328145" y="290.35875" style="fill: #3c6f93"/>
     <use xlink:href="#m98d9b9443a" x="56.248981" y="290.35875" style="fill: #3c6f93"/>
     <use xlink:href="#m98d9b9443a" x="57.759783" y="290.35875" style="fill: #3c6f93"/>
     <use xlink:href="#m98d9b9443a" x="49.778302" y="290.35875" style="fill: #3c6f93"/>
     <use xlink:href="#m98d9b9443a" x="64.92876" y="290.35875" style="fill: #3c6f93"/>
     <use xlink:href="#m98d9b9443a" x="49.48498" y="290.35875" style="fill: #3c6f93"/>
     <use xlink:href="#m98d9b9443a" x="61.499777" y="290.35875" style="fill: #3c6f93"/>
     <use xlink:href="#m98d9b9443a" x="60.076654" y="290.35875" style="fill: #3c6f93"/>
     <use xlink:href="#m98d9b9443a" x="52.562625" y="290.35875" style="fill: #3c6f93"/>
     <use xlink:href="#m98d9b9443a" x="61.597219" y="290.35875" style="fill: #3c6f93"/>
     <use xlink:href="#m98d9b9443a" x="46.968774" y="290.35875" style="fill: #3c6f93"/>
     <use xlink:href="#m98d9b9443a" x="66.333375" y="290.35875" style="fill: #3c6f93"/>
     <use xlink:href="#m98d9b9443a" x="59.059072" y="290.35875" style="fill: #3c6f93"/>
     <use xlink:href="#m98d9b9443a" x="61.298435" y="290.35875" style="fill: #3c6f93"/>
     <use xlink:href="#m98d9b9443a" x="65.819806" y="290.35875" style="fill: #3c6f93"/>
     <use xlink:href="#m98d9b9443a" x="59.200652" y="290.35875" style="fill: #3c6f93"/>
     <use xlink:href="#m98d9b9443a" x="54.570401" y="290.35875" style="fill: #3c6f93"/>
     <use xlink:href="#m98d9b9443a" x="47.963661" y="290.35875" style="fill: #3c6f93"/>
     <use xlink:href="#m98d9b9443a" x="57.403164" y="290.35875" style="fill: #3c6f93"/>
     <use xlink:href="#m98d9b9443a" x="55.032091" y="290.35875" style="fill: #3c6f93"/>
     <use xlink:href="#m98d9b9443a" x="42.289175" y="290.35875" style="fill: #3c6f93"/>
     <use xlink:href="#m98d9b9443a" x="54.801338" y="290.35875" style="fill: #3c6f93"/>
     <use xlink:href="#m98d9b9443a" x="60.355079" y="290.35875" style="fill: #3c6f93"/>
     <use xlink:href="#m98d9b9443a" x="54.416556" y="290.35875" style="fill: #3c6f93"/>
     <use xlink:href="#m98d9b9443a" x="52.703639" y="290.35875" style="fill: #3c6f93"/>
     <use xlink:href="#m98d9b9443a" x="61.20441" y="290.35875" style="fill: #3c6f93"/>
     <use xlink:href="#m98d9b9443a" x="66.321741" y="290.35875" style="fill: #3c6f93"/>
     <use xlink:href="#m98d9b9443a" x="56.351156" y="290.35875" style="fill: #3c6f93"/>
     <use xlink:href="#m98d9b9443a" x="49.808512" y="290.35875" style="fill: #3c6f93"/>
     <use xlink:href="#m98d9b9443a" x="55.754237" y="290.35875" style="fill: #3c6f93"/>
     <use xlink:href="#m98d9b9443a" x="58.297519" y="290.35875" style="fill: #3c6f93"/>
     <use xlink:href="#m98d9b9443a" x="62.338697" y="290.35875" style="fill: #3c6f93"/>
     <use xlink:href="#m98d9b9443a" x="56.493605" y="290.35875" style="fill: #3c6f93"/>
     <use xlink:href="#m98d9b9443a" x="59.354868" y="290.35875" style="fill: #3c6f93"/>
     <use xlink:href="#m98d9b9443a" x="59.928858" y="290.35875" style="fill: #3c6f93"/>
     <use xlink:href="#m98d9b9443a" x="57.182713" y="290.35875" style="fill: #3c6f93"/>
     <use xlink:href="#m98d9b9443a" x="58.539199" y="290.35875" style="fill: #3c6f93"/>
     <use xlink:href="#m98d9b9443a" x="53.274941" y="290.35875" style="fill: #3c6f93"/>
     <use xlink:href="#m98d9b9443a" x="59.647336" y="290.35875" style="fill: #3c6f93"/>
     <use xlink:href="#m98d9b9443a" x="58.291369" y="290.35875" style="fill: #3c6f93"/>
     <use xlink:href="#m98d9b9443a" x="45.149131" y="290.35875" style="fill: #3c6f93"/>
     <use xlink:href="#m98d9b9443a" x="52.731324" y="290.35875" style="fill: #3c6f93"/>
     <use xlink:href="#m98d9b9443a" x="52.98565" y="290.35875" style="fill: #3c6f93"/>
     <use xlink:href="#m98d9b9443a" x="52.139601" y="290.35875" style="fill: #3c6f93"/>
     <use xlink:href="#m98d9b9443a" x="47.446162" y="290.35875" style="fill: #3c6f93"/>
     <use xlink:href="#m98d9b9443a" x="56.418724" y="290.35875" style="fill: #3c6f93"/>
    </g>
   </g>
   <g id="text_1">
    <!-- Mud -->
    <g style="fill: #1f0909" transform="translate(3.6 299.0535)scale(0.08 -0.08)">
     <defs>
      <path id="DejaVuSans-Bold-4d" d="M 588 4666 
L 2119 4666 
L 3181 2169 
L 4250 4666 
L 5778 4666 
L 5778 0 
L 4641 0 
L 4641 3413 
L 3566 897 
L 2803 897 
L 1728 3413 
L 1728 0 
L 588 0 
L 588 4666 
z
" transform="scale(0.015625)"/>
      <path id="DejaVuSans-Bold-75" d="M 500 1363 
L 500 3500 
L 1625 3500 
L 1625 3150 
Q 1625 2866 1622 2436 
Q 1619 2006 1619 1863 
Q 1619 1441 1641 1255 
Q 1663 1069 1716 984 
Q 1784 875 1895 815 
Q 2006 756 2150 756 
Q 2500 756 2700 1025 
Q 2900 1294 2900 1772 
L 2900 3500 
L 4019 3500 
L 4019 0 
L 2900 0 
L 2900 506 
Q 2647 200 2364 54 
Q 2081 -91 1741 -91 
Q 1134 -91 817 281 
Q 500 653 500 1363 
z
" transform="scale(0.015625)"/>
      <path id="DejaVuSans-Bold-64" d="M 2919 2988 
L 2919 4863 
L 4044 4863 
L 4044 0 
L 2919 0 
L 2919 506 
Q 2688 197 2409 53 
Q 2131 -91 1766 -91 
Q 1119 -91 703 423 
Q 288 938 288 1747 
Q 288 2556 703 3070 
Q 1119 3584 1766 3584 
Q 2128 3584 2408 3439 
Q 2688 3294 2919 2988 
z
M 2181 722 
Q 2541 722 2730 984 
Q 2919 1247 2919 1747 
Q 2919 2247 2730 2509 
Q 2541 2772 2181 2772 
Q 1825 2772 1636 2509 
Q 1447 2247 1447 1747 
Q 1447 1247 1636 984 
Q 1825 722 2181 722 
z
" transform="scale(0.015625)"/>
     </defs>
     <use xlink:href="#DejaVuSans-Bold-4d"/>
     <use xlink:href="#DejaVuSans-Bold-75" x="99.511719"/>
     <use xlink:href="#DejaVuSans-Bold-64" x="170.703125"/>
    </g>
   </g>
   <g id="text_2">
    <!-- Gravel -->
    <g style="fill: #1f0909" transform="translate(163.931707 24.479)scale(0.08 -0.08)">
     <defs>
      <path id="DejaVuSans-Bold-47" d="M 4781 347 
Q 4331 128 3847 18 
Q 3363 -91 2847 -91 
Q 1681 -91 1000 561 
Q 319 1213 319 2328 
Q 319 3456 1012 4103 
Q 1706 4750 2913 4750 
Q 3378 4750 3804 4662 
Q 4231 4575 4609 4403 
L 4609 3438 
Q 4219 3659 3833 3768 
Q 3447 3878 3059 3878 
Q 2341 3878 1952 3476 
Q 1563 3075 1563 2328 
Q 1563 1588 1938 1184 
Q 2313 781 3003 781 
Q 3191 781 3352 804 
Q 3513 828 3641 878 
L 3641 1784 
L 2906 1784 
L 2906 2591 
L 4781 2591 
L 4781 347 
z
" transform="scale(0.015625)"/>
      <path id="DejaVuSans-Bold-72" d="M 3138 2547 
Q 2991 2616 2845 2648 
Q 2700 2681 2553 2681 
Q 2122 2681 1889 2404 
Q 1656 2128 1656 1613 
L 1656 0 
L 538 0 
L 538 3500 
L 1656 3500 
L 1656 2925 
Q 1872 3269 2151 3426 
Q 2431 3584 2822 3584 
Q 2878 3584 2943 3579 
Q 3009 3575 3134 3559 
L 3138 2547 
z
" transform="scale(0.015625)"/>
      <path id="DejaVuSans-Bold-61" d="M 2106 1575 
Q 1756 1575 1579 1456 
Q 1403 1338 1403 1106 
Q 1403 894 1545 773 
Q 1688 653 1941 653 
Q 2256 653 2472 879 
Q 2688 1106 2688 1447 
L 2688 1575 
L 2106 1575 
z
M 3816 1997 
L 3816 0 
L 2688 0 
L 2688 519 
Q 2463 200 2181 54 
Q 1900 -91 1497 -91 
Q 953 -91 614 226 
Q 275 544 275 1050 
Q 275 1666 698 1953 
Q 1122 2241 2028 2241 
L 2688 2241 
L 2688 2328 
Q 2688 2594 2478 2717 
Q 2269 2841 1825 2841 
Q 1466 2841 1156 2769 
Q 847 2697 581 2553 
L 581 3406 
Q 941 3494 1303 3539 
Q 1666 3584 2028 3584 
Q 2975 3584 3395 3211 
Q 3816 2838 3816 1997 
z
" transform="scale(0.015625)"/>
      <path id="DejaVuSans-Bold-76" d="M 97 3500 
L 1216 3500 
L 2088 1081 
L 2956 3500 
L 4078 3500 
L 2700 0 
L 1472 0 
L 97 3500 
z
" transform="scale(0.015625)"/>
      <path id="DejaVuSans-Bold-65" d="M 4031 1759 
L 4031 1441 
L 1416 1441 
Q 1456 1047 1700 850 
Q 1944 653 2381 653 
Q 2734 653 3104 758 
Q 3475 863 3866 1075 
L 3866 213 
Q 3469 63 3072 -14 
Q 2675 -91 2278 -91 
Q 1328 -91 801 392 
Q 275 875 275 1747 
Q 275 2603 792 3093 
Q 1309 3584 2216 3584 
Q 3041 3584 3536 3087 
Q 4031 2591 4031 1759 
z
M 2881 2131 
Q 2881 2450 2695 2645 
Q 2509 2841 2209 2841 
Q 1884 2841 1681 2658 
Q 1478 2475 1428 2131 
L 2881 2131 
z
" transform="scale(0.015625)"/>
      <path id="DejaVuSans-Bold-6c" d="M 538 4863 
L 1656 4863 
L 1656 0 
L 538 0 
L 538 4863 
z
" transform="scale(0.015625)"/>
     </defs>
     <use xlink:href="#DejaVuSans-Bold-47"/>
     <use xlink:href="#DejaVuSans-Bold-72" x="82.080078"/>
     <use xlink:href="#DejaVuSans-Bold-61" x="131.396484"/>
     <use xlink:href="#DejaVuSans-Bold-76" x="198.876953"/>
     <use xlink:href="#DejaVuSans-Bold-65" x="264.0625"/>
     <use xlink:href="#DejaVuSans-Bold-6c" x="331.884766"/>
    </g>
   </g>
   <g id="text_3">
    <!-- Sand -->
    <g style="fill: #1f0909" transform="translate(334.174665 299.0535)scale(0.08 -0.08)">
     <defs>
      <path id="DejaVuSans-Bold-53" d="M 3834 4519 
L 3834 3531 
Q 3450 3703 3084 3790 
Q 2719 3878 2394 3878 
Q 1963 3878 1756 3759 
Q 1550 3641 1550 3391 
Q 1550 3203 1689 3098 
Q 1828 2994 2194 2919 
L 2706 2816 
Q 3484 2659 3812 2340 
Q 4141 2022 4141 1434 
Q 4141 663 3683 286 
Q 3225 -91 2284 -91 
Q 1841 -91 1394 -6 
Q 947 78 500 244 
L 500 1259 
Q 947 1022 1364 901 
Q 1781 781 2169 781 
Q 2563 781 2772 912 
Q 2981 1044 2981 1288 
Q 2981 1506 2839 1625 
Q 2697 1744 2272 1838 
L 1806 1941 
Q 1106 2091 782 2419 
Q 459 2747 459 3303 
Q 459 4000 909 4375 
Q 1359 4750 2203 4750 
Q 2588 4750 2994 4692 
Q 3400 4634 3834 4519 
z
" transform="scale(0.015625)"/>
      <path id="DejaVuSans-Bold-6e" d="M 4056 2131 
L 4056 0 
L 2931 0 
L 2931 347 
L 2931 1631 
Q 2931 2084 2911 2256 
Q 2891 2428 2841 2509 
Q 2775 2619 2662 2680 
Q 2550 2741 2406 2741 
Q 2056 2741 1856 2470 
Q 1656 2200 1656 1722 
L 1656 0 
L 538 0 
L 538 3500 
L 1656 3500 
L 1656 2988 
Q 1909 3294 2193 3439 
Q 2478 3584 2822 3584 
Q 3428 3584 3742 3212 
Q 4056 2841 4056 2131 
z
" transform="scale(0.015625)"/>
     </defs>
     <use xlink:href="#DejaVuSans-Bold-53"/>
     <use xlink:href="#DejaVuSans-Bold-61" x="72.021484"/>
     <use xlink:href="#DejaVuSans-Bold-6e" x="139.501953"/>
     <use xlink:href="#DejaVuSans-Bold-64" x="210.693359"/>
    </g>
   </g>
   <g id="text_4">
    <!-- Gravel % -->
    <g style="fill: #1f0909" transform="translate(63.721341 148.68625)scale(0.08 -0.08)">
     <defs>
      <path id="DejaVuSans-Bold-20" transform="scale(0.015625)"/>
      <path id="DejaVuSans-Bold-25" d="M 4959 1925 
Q 4738 1925 4616 1733 
Q 4494 1541 4494 1184 
Q 4494 825 4614 633 
Q 4734 441 4959 441 
Q 5184 441 5303 633 
Q 5422 825 5422 1184 
Q 5422 1541 5301 1733 
Q 5181 1925 4959 1925 
z
M 4959 2450 
Q 5541 2450 5875 2112 
Q 6209 1775 6209 1184 
Q 6209 594 5875 251 
Q 5541 -91 4959 -91 
Q 4378 -91 4042 251 
Q 3706 594 3706 1184 
Q 3706 1772 4042 2111 
Q 4378 2450 4959 2450 
z
M 2094 -91 
L 1403 -91 
L 4319 4750 
L 5013 4750 
L 2094 -91 
z
M 1453 4750 
Q 2034 4750 2367 4411 
Q 2700 4072 2700 3481 
Q 2700 2891 2367 2550 
Q 2034 2209 1453 2209 
Q 872 2209 539 2550 
Q 206 2891 206 3481 
Q 206 4072 539 4411 
Q 872 4750 1453 4750 
z
M 1453 4225 
Q 1228 4225 1106 4031 
Q 984 3838 984 3481 
Q 984 3122 1106 2926 
Q 1228 2731 1453 2731 
Q 1678 2731 1798 2926 
Q 1919 3122 1919 3481 
Q 1919 3838 1797 4031 
Q 1675 4225 1453 4225 
z
" transform="scale(0.015625)"/>
     </defs>
     <use xlink:href="#DejaVuSans-Bold-47"/>
     <use xlink:href="#DejaVuSans-Bold-72" x="82.080078"/>
     <use xlink:href="#DejaVuSans-Bold-61" x="131.396484"/>
     <use xlink:href="#DejaVuSans-Bold-76" x="198.876953"/>
     <use xlink:href="#DejaVuSans-Bold-65" x="264.0625"/>
     <use xlink:href="#DejaVuSans-Bold-6c" x="331.884766"/>
     <use xlink:href="#DejaVuSans-Bold-20" x="366.162109"/>
     <use xlink:href="#DejaVuSans-Bold-25" x="400.976562"/>
    </g>
   </g>
   <g id="text_5">
    <!-- Sand:Mud Ratio -->
    <g style="fill: #1f0909" transform="translate(142.794207 309.5175)scale(0.08 -0.08)">
     <defs>
      <path id="DejaVuSans-Bold-3a" d="M 716 3500 
L 1844 3500 
L 1844 2291 
L 716 2291 
L 716 3500 
z
M 716 1209 
L 1844 1209 
L 1844 0 
L 716 0 
L 716 1209 
z
" transform="scale(0.015625)"/>
      <path id="DejaVuSans-Bold-52" d="M 2297 2597 
Q 2675 2597 2839 2737 
Q 3003 2878 3003 3200 
Q 3003 3519 2839 3656 
Q 2675 3794 2297 3794 
L 1791 3794 
L 1791 2597 
L 2297 2597 
z
M 1791 1766 
L 1791 0 
L 588 0 
L 588 4666 
L 2425 4666 
Q 3347 4666 3776 4356 
Q 4206 4047 4206 3378 
Q 4206 2916 3982 2619 
Q 3759 2322 3309 2181 
Q 3556 2125 3751 1926 
Q 3947 1728 4147 1325 
L 4800 0 
L 3519 0 
L 2950 1159 
Q 2778 1509 2601 1637 
Q 2425 1766 2131 1766 
L 1791 1766 
z
" transform="scale(0.015625)"/>
      <path id="DejaVuSans-Bold-74" d="M 1759 4494 
L 1759 3500 
L 2913 3500 
L 2913 2700 
L 1759 2700 
L 1759 1216 
Q 1759 972 1856 886 
Q 1953 800 2241 800 
L 2816 800 
L 2816 0 
L 1856 0 
Q 1194 0 917 276 
Q 641 553 641 1216 
L 641 2700 
L 84 2700 
L 84 3500 
L 641 3500 
L 641 4494 
L 1759 4494 
z
" transform="scale(0.015625)"/>
      <path id="DejaVuSans-Bold-69" d="M 538 3500 
L 1656 3500 
L 1656 0 
L 538 0 
L 538 3500 
z
M 538 4863 
L 1656 4863 
L 1656 3950 
L 538 3950 
L 538 4863 
z
" transform="scale(0.015625)"/>
      <path id="DejaVuSans-Bold-6f" d="M 2203 2784 
Q 1831 2784 1636 2517 
Q 1441 2250 1441 1747 
Q 1441 1244 1636 976 
Q 1831 709 2203 709 
Q 2569 709 2762 976 
Q 2956 1244 2956 1747 
Q 2956 2250 2762 2517 
Q 2569 2784 2203 2784 
z
M 2203 3584 
Q 3106 3584 3614 3096 
Q 4122 2609 4122 1747 
Q 4122 884 3614 396 
Q 3106 -91 2203 -91 
Q 1297 -91 786 396 
Q 275 884 275 1747 
Q 275 2609 786 3096 
Q 1297 3584 2203 3584 
z
" transform="scale(0.015625)"/>
     </defs>
     <use xlink:href="#DejaVuSans-Bold-53"/>
     <use xlink:href="#DejaVuSans-Bold-61" x="72.021484"/>
     <use xlink:href="#DejaVuSans-Bold-6e" x="139.501953"/>
     <use xlink:href="#DejaVuSans-Bold-64" x="210.693359"/>
     <use xlink:href="#DejaVuSans-Bold-3a" x="282.275391"/>
     <use xlink:href="#DejaVuSans-Bold-4d" x="322.265625"/>
     <use xlink:href="#DejaVuSans-Bold-75" x="421.777344"/>
     <use xlink:href="#DejaVuSans-Bold-64" x="492.96875"/>
     <use xlink:href="#DejaVuSans-Bold-20" x="564.550781"/>
     <use xlink:href="#DejaVuSans-Bold-52" x="599.365234"/>
     <use xlink:href="#DejaVuSans-Bold-61" x="676.367188"/>
     <use xlink:href="#DejaVuSans-Bold-74" x="743.847656"/>
     <use xlink:href="#DejaVuSans-Bold-69" x="791.650391"/>
     <use xlink:href="#DejaVuSans-Bold-6f" x="825.927734"/>
    </g>
   </g>
   <g id="text_6">
    <!-- Mud -->
    <g style="fill: #1f0909" transform="translate(33.828 298.293656)scale(0.07 -0.07)">
     <defs>
      <path id="DejaVuSans-4d" d="M 628 4666 
L 1569 4666 
L 2759 1491 
L 3956 4666 
L 4897 4666 
L 4897 0 
L 4281 0 
L 4281 4097 
L 3078 897 
L 2444 897 
L 1241 4097 
L 1241 0 
L 628 0 
L 628 4666 
z
" transform="scale(0.015625)"/>
      <path id="DejaVuSans-75" d="M 544 1381 
L 544 3500 
L 1119 3500 
L 1119 1403 
Q 1119 906 1312 657 
Q 1506 409 1894 409 
Q 2359 409 2629 706 
Q 2900 1003 2900 1516 
L 2900 3500 
L 3475 3500 
L 3475 0 
L 2900 0 
L 2900 538 
Q 2691 219 2414 64 
Q 2138 -91 1772 -91 
Q 1169 -91 856 284 
Q 544 659 544 1381 
z
M 1991 3584 
L 1991 3584 
z
" transform="scale(0.015625)"/>
      <path id="DejaVuSans-64" d="M 2906 2969 
L 2906 4863 
L 3481 4863 
L 3481 0 
L 2906 0 
L 2906 525 
Q 2725 213 2448 61 
Q 2172 -91 1784 -91 
Q 1150 -91 751 415 
Q 353 922 353 1747 
Q 353 2572 751 3078 
Q 1150 3584 1784 3584 
Q 2172 3584 2448 3432 
Q 2725 3281 2906 2969 
z
M 947 1747 
Q 947 1113 1208 752 
Q 1469 391 1925 391 
Q 2381 391 2643 752 
Q 2906 1113 2906 1747 
Q 2906 2381 2643 2742 
Q 2381 3103 1925 3103 
Q 1469 3103 1208 2742 
Q 947 2381 947 1747 
z
" transform="scale(0.015625)"/>
     </defs>
     <use xlink:href="#DejaVuSans-4d"/>
     <use xlink:href="#DejaVuSans-75" x="86.279297"/>
     <use xlink:href="#DejaVuSans-64" x="149.658203"/>
    </g>
   </g>
   <g id="text_7">
    <!-- Sandy Mud -->
    <g style="fill: #1f0909" transform="translate(98.109808 298.293656)scale(0.07 -0.07)">
     <defs>
      <path id="DejaVuSans-53" d="M 3425 4513 
L 3425 3897 
Q 3066 4069 2747 4153 
Q 2428 4238 2131 4238 
Q 1616 4238 1336 4038 
Q 1056 3838 1056 3469 
Q 1056 3159 1242 3001 
Q 1428 2844 1947 2747 
L 2328 2669 
Q 3034 2534 3370 2195 
Q 3706 1856 3706 1288 
Q 3706 609 3251 259 
Q 2797 -91 1919 -91 
Q 1588 -91 1214 -16 
Q 841 59 441 206 
L 441 856 
Q 825 641 1194 531 
Q 1563 422 1919 422 
Q 2459 422 2753 634 
Q 3047 847 3047 1241 
Q 3047 1584 2836 1778 
Q 2625 1972 2144 2069 
L 1759 2144 
Q 1053 2284 737 2584 
Q 422 2884 422 3419 
Q 422 4038 858 4394 
Q 1294 4750 2059 4750 
Q 2388 4750 2728 4690 
Q 3069 4631 3425 4513 
z
" transform="scale(0.015625)"/>
      <path id="DejaVuSans-61" d="M 2194 1759 
Q 1497 1759 1228 1600 
Q 959 1441 959 1056 
Q 959 750 1161 570 
Q 1363 391 1709 391 
Q 2188 391 2477 730 
Q 2766 1069 2766 1631 
L 2766 1759 
L 2194 1759 
z
M 3341 1997 
L 3341 0 
L 2766 0 
L 2766 531 
Q 2569 213 2275 61 
Q 1981 -91 1556 -91 
Q 1019 -91 701 211 
Q 384 513 384 1019 
Q 384 1609 779 1909 
Q 1175 2209 1959 2209 
L 2766 2209 
L 2766 2266 
Q 2766 2663 2505 2880 
Q 2244 3097 1772 3097 
Q 1472 3097 1187 3025 
Q 903 2953 641 2809 
L 641 3341 
Q 956 3463 1253 3523 
Q 1550 3584 1831 3584 
Q 2591 3584 2966 3190 
Q 3341 2797 3341 1997 
z
" transform="scale(0.015625)"/>
      <path id="DejaVuSans-6e" d="M 3513 2113 
L 3513 0 
L 2938 0 
L 2938 2094 
Q 2938 2591 2744 2837 
Q 2550 3084 2163 3084 
Q 1697 3084 1428 2787 
Q 1159 2491 1159 1978 
L 1159 0 
L 581 0 
L 581 3500 
L 1159 3500 
L 1159 2956 
Q 1366 3272 1645 3428 
Q 1925 3584 2291 3584 
Q 2894 3584 3203 3211 
Q 3513 2838 3513 2113 
z
" transform="scale(0.015625)"/>
      <path id="DejaVuSans-79" d="M 2059 -325 
Q 1816 -950 1584 -1140 
Q 1353 -1331 966 -1331 
L 506 -1331 
L 506 -850 
L 844 -850 
Q 1081 -850 1212 -737 
Q 1344 -625 1503 -206 
L 1606 56 
L 191 3500 
L 800 3500 
L 1894 763 
L 2988 3500 
L 3597 3500 
L 2059 -325 
z
" transform="scale(0.015625)"/>
      <path id="DejaVuSans-20" transform="scale(0.015625)"/>
     </defs>
     <use xlink:href="#DejaVuSans-53"/>
     <use xlink:href="#DejaVuSans-61" x="63.476562"/>
     <use xlink:href="#DejaVuSans-6e" x="124.755859"/>
     <use xlink:href="#DejaVuSans-64" x="188.134766"/>
     <use xlink:href="#DejaVuSans-79" x="251.611328"/>
     <use xlink:href="#DejaVuSans-20" x="310.791016"/>
     <use xlink:href="#DejaVuSans-4d" x="342.578125"/>
     <use xlink:href="#DejaVuSans-75" x="428.857422"/>
     <use xlink:href="#DejaVuSans-64" x="492.236328"/>
    </g>
   </g>
   <g id="text_8">
    <!-- Muddy Sand -->
    <g style="fill: #1f0909" transform="translate(217.923998 298.293656)scale(0.07 -0.07)">
     <use xlink:href="#DejaVuSans-4d"/>
     <use xlink:href="#DejaVuSans-75" x="86.279297"/>
     <use xlink:href="#DejaVuSans-64" x="149.658203"/>
     <use xlink:href="#DejaVuSans-64" x="213.134766"/>
     <use xlink:href="#DejaVuSans-79" x="276.611328"/>
     <use xlink:href="#DejaVuSans-20" x="335.791016"/>
     <use xlink:href="#DejaVuSans-53" x="367.578125"/>
     <use xlink:href="#DejaVuSans-61" x="431.054688"/>
     <use xlink:href="#DejaVuSans-6e" x="492.333984"/>
     <use xlink:href="#DejaVuSans-64" x="555.712891"/>
    </g>
   </g>
   <g id="text_9">
    <!-- Sand -->
    <g style="fill: #1f0909" transform="translate(307.062368 298.293656)scale(0.07 -0.07)">
     <use xlink:href="#DejaVuSans-53"/>
     <use xlink:href="#DejaVuSans-61" x="63.476562"/>
     <use xlink:href="#DejaVuSans-6e" x="124.755859"/>
     <use xlink:href="#DejaVuSans-64" x="188.134766"/>
    </g>
   </g>
   <g id="text_10">
    <!-- Slightly -->
    <g style="fill: #1f0909" transform="translate(11.647824 241.834031)scale(0.07 -0.07)">
     <defs>
      <path id="DejaVuSans-6c" d="M 603 4863 
L 1178 4863 
L 1178 0 
L 603 0 
L 603 4863 
z
" transform="scale(0.015625)"/>
      <path id="DejaVuSans-69" d="M 603 3500 
L 1178 3500 
L 1178 0 
L 603 0 
L 603 3500 
z
M 603 4863 
L 1178 4863 
L 1178 4134 
L 603 4134 
L 603 4863 
z
" transform="scale(0.015625)"/>
      <path id="DejaVuSans-67" d="M 2906 1791 
Q 2906 2416 2648 2759 
Q 2391 3103 1925 3103 
Q 1463 3103 1205 2759 
Q 947 2416 947 1791 
Q 947 1169 1205 825 
Q 1463 481 1925 481 
Q 2391 481 2648 825 
Q 2906 1169 2906 1791 
z
M 3481 434 
Q 3481 -459 3084 -895 
Q 2688 -1331 1869 -1331 
Q 1566 -1331 1297 -1286 
Q 1028 -1241 775 -1147 
L 775 -588 
Q 1028 -725 1275 -790 
Q 1522 -856 1778 -856 
Q 2344 -856 2625 -561 
Q 2906 -266 2906 331 
L 2906 616 
Q 2728 306 2450 153 
Q 2172 0 1784 0 
Q 1141 0 747 490 
Q 353 981 353 1791 
Q 353 2603 747 3093 
Q 1141 3584 1784 3584 
Q 2172 3584 2450 3431 
Q 2728 3278 2906 2969 
L 2906 3500 
L 3481 3500 
L 3481 434 
z
" transform="scale(0.015625)"/>
      <path id="DejaVuSans-68" d="M 3513 2113 
L 3513 0 
L 2938 0 
L 2938 2094 
Q 2938 2591 2744 2837 
Q 2550 3084 2163 3084 
Q 1697 3084 1428 2787 
Q 1159 2491 1159 1978 
L 1159 0 
L 581 0 
L 581 4863 
L 1159 4863 
L 1159 2956 
Q 1366 3272 1645 3428 
Q 1925 3584 2291 3584 
Q 2894 3584 3203 3211 
Q 3513 2838 3513 2113 
z
" transform="scale(0.015625)"/>
      <path id="DejaVuSans-74" d="M 1172 4494 
L 1172 3500 
L 2356 3500 
L 2356 3053 
L 1172 3053 
L 1172 1153 
Q 1172 725 1289 603 
Q 1406 481 1766 481 
L 2356 481 
L 2356 0 
L 1766 0 
Q 1100 0 847 248 
Q 594 497 594 1153 
L 594 3053 
L 172 3053 
L 172 3500 
L 594 3500 
L 594 4494 
L 1172 4494 
z
" transform="scale(0.015625)"/>
     </defs>
     <use xlink:href="#DejaVuSans-53"/>
     <use xlink:href="#DejaVuSans-6c" x="63.476562"/>
     <use xlink:href="#DejaVuSans-69" x="91.259766"/>
     <use xlink:href="#DejaVuSans-67" x="119.042969"/>
     <use xlink:href="#DejaVuSans-68" x="182.519531"/>
     <use xlink:href="#DejaVuSans-74" x="245.898438"/>
     <use xlink:href="#DejaVuSans-6c" x="285.107422"/>
     <use xlink:href="#DejaVuSans-79" x="312.890625"/>
    </g>
    <!-- Gravelly -->
    <g style="fill: #1f0909" transform="translate(8.61923 249.6725)scale(0.07 -0.07)">
     <defs>
      <path id="DejaVuSans-47" d="M 3809 666 
L 3809 1919 
L 2778 1919 
L 2778 2438 
L 4434 2438 
L 4434 434 
Q 4069 175 3628 42 
Q 3188 -91 2688 -91 
Q 1594 -91 976 548 
Q 359 1188 359 2328 
Q 359 3472 976 4111 
Q 1594 4750 2688 4750 
Q 3144 4750 3555 4637 
Q 3966 4525 4313 4306 
L 4313 3634 
Q 3963 3931 3569 4081 
Q 3175 4231 2741 4231 
Q 1884 4231 1454 3753 
Q 1025 3275 1025 2328 
Q 1025 1384 1454 906 
Q 1884 428 2741 428 
Q 3075 428 3337 486 
Q 3600 544 3809 666 
z
" transform="scale(0.015625)"/>
      <path id="DejaVuSans-72" d="M 2631 2963 
Q 2534 3019 2420 3045 
Q 2306 3072 2169 3072 
Q 1681 3072 1420 2755 
Q 1159 2438 1159 1844 
L 1159 0 
L 581 0 
L 581 3500 
L 1159 3500 
L 1159 2956 
Q 1341 3275 1631 3429 
Q 1922 3584 2338 3584 
Q 2397 3584 2469 3576 
Q 2541 3569 2628 3553 
L 2631 2963 
z
" transform="scale(0.015625)"/>
      <path id="DejaVuSans-76" d="M 191 3500 
L 800 3500 
L 1894 563 
L 2988 3500 
L 3597 3500 
L 2284 0 
L 1503 0 
L 191 3500 
z
" transform="scale(0.015625)"/>
      <path id="DejaVuSans-65" d="M 3597 1894 
L 3597 1613 
L 953 1613 
Q 991 1019 1311 708 
Q 1631 397 2203 397 
Q 2534 397 2845 478 
Q 3156 559 3463 722 
L 3463 178 
Q 3153 47 2828 -22 
Q 2503 -91 2169 -91 
Q 1331 -91 842 396 
Q 353 884 353 1716 
Q 353 2575 817 3079 
Q 1281 3584 2069 3584 
Q 2775 3584 3186 3129 
Q 3597 2675 3597 1894 
z
M 3022 2063 
Q 3016 2534 2758 2815 
Q 2500 3097 2075 3097 
Q 1594 3097 1305 2825 
Q 1016 2553 972 2059 
L 3022 2063 
z
" transform="scale(0.015625)"/>
     </defs>
     <use xlink:href="#DejaVuSans-47"/>
     <use xlink:href="#DejaVuSans-72" x="77.490234"/>
     <use xlink:href="#DejaVuSans-61" x="118.603516"/>
     <use xlink:href="#DejaVuSans-76" x="179.882812"/>
     <use xlink:href="#DejaVuSans-65" x="239.0625"/>
     <use xlink:href="#DejaVuSans-6c" x="300.585938"/>
     <use xlink:href="#DejaVuSans-6c" x="328.369141"/>
     <use xlink:href="#DejaVuSans-79" x="356.152344"/>
    </g>
    <!-- Mud -->
    <g style="fill: #1f0909" transform="translate(22.773449 257.510969)scale(0.07 -0.07)">
     <use xlink:href="#DejaVuSans-4d"/>
     <use xlink:href="#DejaVuSans-75" x="86.279297"/>
     <use xlink:href="#DejaVuSans-64" x="149.658203"/>
    </g>
   </g>
   <g id="text_11">
    <!-- Slightly Gravelly Sandy Mud -->
    <g style="fill: #1f0909" transform="translate(73.762608 267.974969)scale(0.07 -0.07)">
     <use xlink:href="#DejaVuSans-53"/>
     <use xlink:href="#DejaVuSans-6c" x="63.476562"/>
     <use xlink:href="#DejaVuSans-69" x="91.259766"/>
     <use xlink:href="#DejaVuSans-67" x="119.042969"/>
     <use xlink:href="#DejaVuSans-68" x="182.519531"/>
     <use xlink:href="#DejaVuSans-74" x="245.898438"/>
     <use xlink:href="#DejaVuSans-6c" x="285.107422"/>
     <use xlink:href="#DejaVuSans-79" x="312.890625"/>
     <use xlink:href="#DejaVuSans-20" x="372.070312"/>
     <use xlink:href="#DejaVuSans-47" x="403.857422"/>
     <use xlink:href="#DejaVuSans-72" x="481.347656"/>
     <use xlink:href="#DejaVuSans-61" x="522.460938"/>
     <use xlink:href="#DejaVuSans-76" x="583.740234"/>
     <use xlink:href="#DejaVuSans-65" x="642.919922"/>
     <use xlink:href="#DejaVuSans-6c" x="704.443359"/>
     <use xlink:href="#DejaVuSans-6c" x="732.226562"/>
     <use xlink:href="#DejaVuSans-79" x="760.009766"/>
     <use xlink:href="#DejaVuSans-20" x="819.189453"/>
     <use xlink:href="#DejaVuSans-53" x="850.976562"/>
     <use xlink:href="#DejaVuSans-61" x="914.453125"/>
     <use xlink:href="#DejaVuSans-6e" x="975.732422"/>
     <use xlink:href="#DejaVuSans-64" x="1039.111328"/>
     <use xlink:href="#DejaVuSans-79" x="1102.587891"/>
     <use xlink:href="#DejaVuSans-20" x="1161.767578"/>
     <use xlink:href="#DejaVuSans-4d" x="1193.554688"/>
     <use xlink:href="#DejaVuSans-75" x="1279.833984"/>
     <use xlink:href="#DejaVuSans-64" x="1343.212891"/>
    </g>
   </g>
   <g id="text_12">
    <!-- Slightly Gravelly Muddy Sand -->
    <g style="fill: #1f0909" transform="translate(182.702291 267.974969)scale(0.07 -0.07)">
     <use xlink:href="#DejaVuSans-53"/>
     <use xlink:href="#DejaVuSans-6c" x="63.476562"/>
     <use xlink:href="#DejaVuSans-69" x="91.259766"/>
     <use xlink:href="#DejaVuSans-67" x="119.042969"/>
     <use xlink:href="#DejaVuSans-68" x="182.519531"/>
     <use xlink:href="#DejaVuSans-74" x="245.898438"/>
     <use xlink:href="#DejaVuSans-6c" x="285.107422"/>
     <use xlink:href="#DejaVuSans-79" x="312.890625"/>
     <use xlink:href="#DejaVuSans-20" x="372.070312"/>
     <use xlink:href="#DejaVuSans-47" x="403.857422"/>
     <use xlink:href="#DejaVuSans-72" x="481.347656"/>
     <use xlink:href="#DejaVuSans-61" x="522.460938"/>
     <use xlink:href="#DejaVuSans-76" x="583.740234"/>
     <use xlink:href="#DejaVuSans-65" x="642.919922"/>
     <use xlink:href="#DejaVuSans-6c" x="704.443359"/>
     <use xlink:href="#DejaVuSans-6c" x="732.226562"/>
     <use xlink:href="#DejaVuSans-79" x="760.009766"/>
     <use xlink:href="#DejaVuSans-20" x="819.189453"/>
     <use xlink:href="#DejaVuSans-4d" x="850.976562"/>
     <use xlink:href="#DejaVuSans-75" x="937.255859"/>
     <use xlink:href="#DejaVuSans-64" x="1000.634766"/>
     <use xlink:href="#DejaVuSans-64" x="1064.111328"/>
     <use xlink:href="#DejaVuSans-79" x="1127.587891"/>
     <use xlink:href="#DejaVuSans-20" x="1186.767578"/>
     <use xlink:href="#DejaVuSans-53" x="1218.554688"/>
     <use xlink:href="#DejaVuSans-61" x="1282.03125"/>
     <use xlink:href="#DejaVuSans-6e" x="1343.310547"/>
     <use xlink:href="#DejaVuSans-64" x="1406.689453"/>
    </g>
   </g>
   <g id="text_13">
    <!-- Slightly -->
    <g style="fill: #1f0909" transform="translate(319.463872 241.834031)scale(0.07 -0.07)">
     <use xlink:href="#DejaVuSans-53"/>
     <use xlink:href="#DejaVuSans-6c" x="63.476562"/>
     <use xlink:href="#DejaVuSans-69" x="91.259766"/>
     <use xlink:href="#DejaVuSans-67" x="119.042969"/>
     <use xlink:href="#DejaVuSans-68" x="182.519531"/>
     <use xlink:href="#DejaVuSans-74" x="245.898438"/>
     <use xlink:href="#DejaVuSans-6c" x="285.107422"/>
     <use xlink:href="#DejaVuSans-79" x="312.890625"/>
    </g>
    <!-- Gravelly -->
    <g style="fill: #1f0909" transform="translate(319.463872 249.6725)scale(0.07 -0.07)">
     <use xlink:href="#DejaVuSans-47"/>
     <use xlink:href="#DejaVuSans-72" x="77.490234"/>
     <use xlink:href="#DejaVuSans-61" x="118.603516"/>
     <use xlink:href="#DejaVuSans-76" x="179.882812"/>
     <use xlink:href="#DejaVuSans-65" x="239.0625"/>
     <use xlink:href="#DejaVuSans-6c" x="300.585938"/>
     <use xlink:href="#DejaVuSans-6c" x="328.369141"/>
     <use xlink:href="#DejaVuSans-79" x="356.152344"/>
    </g>
    <!-- Sand -->
    <g style="fill: #1f0909" transform="translate(319.463872 257.510969)scale(0.07 -0.07)">
     <use xlink:href="#DejaVuSans-53"/>
     <use xlink:href="#DejaVuSans-61" x="63.476562"/>
     <use xlink:href="#DejaVuSans-6e" x="124.755859"/>
     <use xlink:href="#DejaVuSans-64" x="188.134766"/>
    </g>
   </g>
   <g id="text_14">
    <!-- Gravelly Mud -->
    <g style="fill: #1f0909" transform="translate(82.972567 239.970313)scale(0.07 -0.07)">
     <use xlink:href="#DejaVuSans-47"/>
     <use xlink:href="#DejaVuSans-72" x="77.490234"/>
     <use xlink:href="#DejaVuSans-61" x="118.603516"/>
     <use xlink:href="#DejaVuSans-76" x="179.882812"/>
     <use xlink:href="#DejaVuSans-65" x="239.0625"/>
     <use xlink:href="#DejaVuSans-6c" x="300.585938"/>
     <use xlink:href="#DejaVuSans-6c" x="328.369141"/>
     <use xlink:href="#DejaVuSans-79" x="356.152344"/>
     <use xlink:href="#DejaVuSans-20" x="415.332031"/>
     <use xlink:href="#DejaVuSans-4d" x="447.119141"/>
     <use xlink:href="#DejaVuSans-75" x="533.398438"/>
     <use xlink:href="#DejaVuSans-64" x="596.777344"/>
    </g>
   </g>
   <g id="text_15">
    <!-- Gravelly Muddy Sand -->
    <g style="fill: #1f0909" transform="translate(189.587697 239.970313)scale(0.07 -0.07)">
     <use xlink:href="#DejaVuSans-47"/>
     <use xlink:href="#DejaVuSans-72" x="77.490234"/>
     <use xlink:href="#DejaVuSans-61" x="118.603516"/>
     <use xlink:href="#DejaVuSans-76" x="179.882812"/>
     <use xlink:href="#DejaVuSans-65" x="239.0625"/>
     <use xlink:href="#DejaVuSans-6c" x="300.585938"/>
     <use xlink:href="#DejaVuSans-6c" x="328.369141"/>
     <use xlink:href="#DejaVuSans-79" x="356.152344"/>
     <use xlink:href="#DejaVuSans-20" x="415.332031"/>
     <use xlink:href="#DejaVuSans-4d" x="447.119141"/>
     <use xlink:href="#DejaVuSans-75" x="533.398438"/>
     <use xlink:href="#DejaVuSans-64" x="596.777344"/>
     <use xlink:href="#DejaVuSans-64" x="660.253906"/>
     <use xlink:href="#DejaVuSans-79" x="723.730469"/>
     <use xlink:href="#DejaVuSans-20" x="782.910156"/>
     <use xlink:href="#DejaVuSans-53" x="814.697266"/>
     <use xlink:href="#DejaVuSans-61" x="878.173828"/>
     <use xlink:href="#DejaVuSans-6e" x="939.453125"/>
     <use xlink:href="#DejaVuSans-64" x="1002.832031"/>
    </g>
   </g>
   <g id="text_16">
    <!-- Gravelly -->
    <g style="fill: #1f0909" transform="translate(293.848365 207.8165)scale(0.07 -0.07)">
     <use xlink:href="#DejaVuSans-47"/>
     <use xlink:href="#DejaVuSans-72" x="77.490234"/>
     <use xlink:href="#DejaVuSans-61" x="118.603516"/>
     <use xlink:href="#DejaVuSans-76" x="179.882812"/>
     <use xlink:href="#DejaVuSans-65" x="239.0625"/>
     <use xlink:href="#DejaVuSans-6c" x="300.585938"/>
     <use xlink:href="#DejaVuSans-6c" x="328.369141"/>
     <use xlink:href="#DejaVuSans-79" x="356.152344"/>
    </g>
    <!-- Sand -->
    <g style="fill: #1f0909" transform="translate(293.848365 215.654969)scale(0.07 -0.07)">
     <use xlink:href="#DejaVuSans-53"/>
     <use xlink:href="#DejaVuSans-61" x="63.476562"/>
     <use xlink:href="#DejaVuSans-6e" x="124.755859"/>
     <use xlink:href="#DejaVuSans-64" x="188.134766"/>
    </g>
   </g>
   <g id="text_17">
    <!-- Muddy -->
    <g style="fill: #1f0909" transform="translate(126.045741 144.491078)scale(0.07 -0.07)">
     <use xlink:href="#DejaVuSans-4d"/>
     <use xlink:href="#DejaVuSans-75" x="86.279297"/>
     <use xlink:href="#DejaVuSans-64" x="149.658203"/>
     <use xlink:href="#DejaVuSans-64" x="213.134766"/>
     <use xlink:href="#DejaVuSans-79" x="276.611328"/>
    </g>
    <!-- Gravel -->
    <g style="fill: #1f0909" transform="translate(126.306053 152.329547)scale(0.07 -0.07)">
     <use xlink:href="#DejaVuSans-47"/>
     <use xlink:href="#DejaVuSans-72" x="77.490234"/>
     <use xlink:href="#DejaVuSans-61" x="118.603516"/>
     <use xlink:href="#DejaVuSans-76" x="179.882812"/>
     <use xlink:href="#DejaVuSans-65" x="239.0625"/>
     <use xlink:href="#DejaVuSans-6c" x="300.585938"/>
    </g>
   </g>
   <g id="text_18">
    <!-- Muddy -->
    <g style="fill: #1f0909" transform="translate(194.011414 140.571844)scale(0.07 -0.07)">
     <use xlink:href="#DejaVuSans-4d"/>
     <use xlink:href="#DejaVuSans-75" x="86.279297"/>
     <use xlink:href="#DejaVuSans-64" x="149.658203"/>
     <use xlink:href="#DejaVuSans-64" x="213.134766"/>
     <use xlink:href="#DejaVuSans-79" x="276.611328"/>
    </g>
    <!-- Sandy -->
    <g style="fill: #1f0909" transform="translate(194.886414 148.410313)scale(0.07 -0.07)">
     <use xlink:href="#DejaVuSans-53"/>
     <use xlink:href="#DejaVuSans-61" x="63.476562"/>
     <use xlink:href="#DejaVuSans-6e" x="124.755859"/>
     <use xlink:href="#DejaVuSans-64" x="188.134766"/>
     <use xlink:href="#DejaVuSans-79" x="251.611328"/>
    </g>
    <!-- Gravel -->
    <g style="fill: #1f0909" transform="translate(194.271727 156.248781)scale(0.07 -0.07)">
     <use xlink:href="#DejaVuSans-47"/>
     <use xlink:href="#DejaVuSans-72" x="77.490234"/>
     <use xlink:href="#DejaVuSans-61" x="118.603516"/>
     <use xlink:href="#DejaVuSans-76" x="179.882812"/>
     <use xlink:href="#DejaVuSans-65" x="239.0625"/>
     <use xlink:href="#DejaVuSans-6c" x="300.585938"/>
    </g>
   </g>
   <g id="text_19">
    <!-- Sandy -->
    <g style="fill: #1f0909" transform="translate(250.622196 137.1845)scale(0.07 -0.07)">
     <use xlink:href="#DejaVuSans-53"/>
     <use xlink:href="#DejaVuSans-61" x="63.476562"/>
     <use xlink:href="#DejaVuSans-6e" x="124.755859"/>
     <use xlink:href="#DejaVuSans-64" x="188.134766"/>
     <use xlink:href="#DejaVuSans-79" x="251.611328"/>
    </g>
    <!-- Gravel -->
    <g style="fill: #1f0909" transform="translate(250.622196 145.022969)scale(0.07 -0.07)">
     <use xlink:href="#DejaVuSans-47"/>
     <use xlink:href="#DejaVuSans-72" x="77.490234"/>
     <use xlink:href="#DejaVuSans-61" x="118.603516"/>
     <use xlink:href="#DejaVuSans-76" x="179.882812"/>
     <use xlink:href="#DejaVuSans-65" x="239.0625"/>
     <use xlink:href="#DejaVuSans-6c" x="300.585938"/>
    </g>
   </g>
   <g id="text_20">
    <!-- Gravel -->
    <g style="fill: #1f0909" transform="translate(167.085457 66.542969)scale(0.07 -0.07)">
     <use xlink:href="#DejaVuSans-47"/>
     <use xlink:href="#DejaVuSans-72" x="77.490234"/>
     <use xlink:href="#DejaVuSans-61" x="118.603516"/>
     <use xlink:href="#DejaVuSans-76" x="179.882812"/>
     <use xlink:href="#DejaVuSans-65" x="239.0625"/>
     <use xlink:href="#DejaVuSans-6c" x="300.585938"/>
    </g>
   </g>
   <g id="text_21">
    <!-- Trace -->
    <g style="fill: #1f0909" transform="translate(7.497204 289.674313)scale(0.07 -0.07)">
     <defs>
      <path id="DejaVuSans-54" d="M -19 4666 
L 3928 4666 
L 3928 4134 
L 2272 4134 
L 2272 0 
L 1638 0 
L 1638 4134 
L -19 4134 
L -19 4666 
z
" transform="scale(0.015625)"/>
      <path id="DejaVuSans-63" d="M 3122 3366 
L 3122 2828 
Q 2878 2963 2633 3030 
Q 2388 3097 2138 3097 
Q 1578 3097 1268 2742 
Q 959 2388 959 1747 
Q 959 1106 1268 751 
Q 1578 397 2138 397 
Q 2388 397 2633 464 
Q 2878 531 3122 666 
L 3122 134 
Q 2881 22 2623 -34 
Q 2366 -91 2075 -91 
Q 1284 -91 818 406 
Q 353 903 353 1747 
Q 353 2603 823 3093 
Q 1294 3584 2113 3584 
Q 2378 3584 2631 3529 
Q 2884 3475 3122 3366 
z
" transform="scale(0.015625)"/>
     </defs>
     <use xlink:href="#DejaVuSans-54"/>
     <use xlink:href="#DejaVuSans-72" x="46.333984"/>
     <use xlink:href="#DejaVuSans-61" x="87.447266"/>
     <use xlink:href="#DejaVuSans-63" x="148.726562"/>
     <use xlink:href="#DejaVuSans-65" x="203.707031"/>
    </g>
   </g>
   <g id="text_22">
    <!-- 5% -->
    <g style="fill: #1f0909" transform="translate(21.120988 279.210313)scale(0.07 -0.07)">
     <defs>
      <path id="DejaVuSans-35" d="M 691 4666 
L 3169 4666 
L 3169 4134 
L 1269 4134 
L 1269 2991 
Q 1406 3038 1543 3061 
Q 1681 3084 1819 3084 
Q 2600 3084 3056 2656 
Q 3513 2228 3513 1497 
Q 3513 744 3044 326 
Q 2575 -91 1722 -91 
Q 1428 -91 1123 -41 
Q 819 9 494 109 
L 494 744 
Q 775 591 1075 516 
Q 1375 441 1709 441 
Q 2250 441 2565 725 
Q 2881 1009 2881 1497 
Q 2881 1984 2565 2268 
Q 2250 2553 1709 2553 
Q 1456 2553 1204 2497 
Q 953 2441 691 2322 
L 691 4666 
z
" transform="scale(0.015625)"/>
      <path id="DejaVuSans-25" d="M 4653 2053 
Q 4381 2053 4226 1822 
Q 4072 1591 4072 1178 
Q 4072 772 4226 539 
Q 4381 306 4653 306 
Q 4919 306 5073 539 
Q 5228 772 5228 1178 
Q 5228 1588 5073 1820 
Q 4919 2053 4653 2053 
z
M 4653 2450 
Q 5147 2450 5437 2106 
Q 5728 1763 5728 1178 
Q 5728 594 5436 251 
Q 5144 -91 4653 -91 
Q 4153 -91 3862 251 
Q 3572 594 3572 1178 
Q 3572 1766 3864 2108 
Q 4156 2450 4653 2450 
z
M 1428 4353 
Q 1159 4353 1004 4120 
Q 850 3888 850 3481 
Q 850 3069 1003 2837 
Q 1156 2606 1428 2606 
Q 1700 2606 1854 2837 
Q 2009 3069 2009 3481 
Q 2009 3884 1853 4118 
Q 1697 4353 1428 4353 
z
M 4250 4750 
L 4750 4750 
L 1831 -91 
L 1331 -91 
L 4250 4750 
z
M 1428 4750 
Q 1922 4750 2215 4408 
Q 2509 4066 2509 3481 
Q 2509 2891 2217 2550 
Q 1925 2209 1428 2209 
Q 931 2209 642 2551 
Q 353 2894 353 3481 
Q 353 4063 643 4406 
Q 934 4750 1428 4750 
z
" transform="scale(0.015625)"/>
     </defs>
     <use xlink:href="#DejaVuSans-35"/>
     <use xlink:href="#DejaVuSans-25" x="63.623047"/>
    </g>
   </g>
   <g id="text_23">
    <!-- 30% -->
    <g style="fill: #1f0909" transform="translate(50.952144 213.810313)scale(0.07 -0.07)">
     <defs>
      <path id="DejaVuSans-33" d="M 2597 2516 
Q 3050 2419 3304 2112 
Q 3559 1806 3559 1356 
Q 3559 666 3084 287 
Q 2609 -91 1734 -91 
Q 1441 -91 1130 -33 
Q 819 25 488 141 
L 488 750 
Q 750 597 1062 519 
Q 1375 441 1716 441 
Q 2309 441 2620 675 
Q 2931 909 2931 1356 
Q 2931 1769 2642 2001 
Q 2353 2234 1838 2234 
L 1294 2234 
L 1294 2753 
L 1863 2753 
Q 2328 2753 2575 2939 
Q 2822 3125 2822 3475 
Q 2822 3834 2567 4026 
Q 2313 4219 1838 4219 
Q 1578 4219 1281 4162 
Q 984 4106 628 3988 
L 628 4550 
Q 988 4650 1302 4700 
Q 1616 4750 1894 4750 
Q 2613 4750 3031 4423 
Q 3450 4097 3450 3541 
Q 3450 3153 3228 2886 
Q 3006 2619 2597 2516 
z
" transform="scale(0.015625)"/>
      <path id="DejaVuSans-30" d="M 2034 4250 
Q 1547 4250 1301 3770 
Q 1056 3291 1056 2328 
Q 1056 1369 1301 889 
Q 1547 409 2034 409 
Q 2525 409 2770 889 
Q 3016 1369 3016 2328 
Q 3016 3291 2770 3770 
Q 2525 4250 2034 4250 
z
M 2034 4750 
Q 2819 4750 3233 4129 
Q 3647 3509 3647 2328 
Q 3647 1150 3233 529 
Q 2819 -91 2034 -91 
Q 1250 -91 836 529 
Q 422 1150 422 2328 
Q 422 3509 836 4129 
Q 1250 4750 2034 4750 
z
" transform="scale(0.015625)"/>
     </defs>
     <use xlink:href="#DejaVuSans-33"/>
     <use xlink:href="#DejaVuSans-30" x="63.623047"/>
     <use xlink:href="#DejaVuSans-25" x="127.246094"/>
    </g>
   </g>
   <g id="text_24">
    <!-- 80% -->
    <g style="fill: #1f0909" transform="translate(127.979908 83.010313)scale(0.07 -0.07)">
     <defs>
      <path id="DejaVuSans-38" d="M 2034 2216 
Q 1584 2216 1326 1975 
Q 1069 1734 1069 1313 
Q 1069 891 1326 650 
Q 1584 409 2034 409 
Q 2484 409 2743 651 
Q 3003 894 3003 1313 
Q 3003 1734 2745 1975 
Q 2488 2216 2034 2216 
z
M 1403 2484 
Q 997 2584 770 2862 
Q 544 3141 544 3541 
Q 544 4100 942 4425 
Q 1341 4750 2034 4750 
Q 2731 4750 3128 4425 
Q 3525 4100 3525 3541 
Q 3525 3141 3298 2862 
Q 3072 2584 2669 2484 
Q 3125 2378 3379 2068 
Q 3634 1759 3634 1313 
Q 3634 634 3220 271 
Q 2806 -91 2034 -91 
Q 1263 -91 848 271 
Q 434 634 434 1313 
Q 434 1759 690 2068 
Q 947 2378 1403 2484 
z
M 1172 3481 
Q 1172 3119 1398 2916 
Q 1625 2713 2034 2713 
Q 2441 2713 2670 2916 
Q 2900 3119 2900 3481 
Q 2900 3844 2670 4047 
Q 2441 4250 2034 4250 
Q 1625 4250 1398 4047 
Q 1172 3844 1172 3481 
z
" transform="scale(0.015625)"/>
     </defs>
     <use xlink:href="#DejaVuSans-38"/>
     <use xlink:href="#DejaVuSans-30" x="63.623047"/>
     <use xlink:href="#DejaVuSans-25" x="127.246094"/>
    </g>
   </g>
   <g id="text_25">
    <!-- 1:9 -->
    <g style="fill: #1f0909" transform="translate(50.909627 298.293656)scale(0.07 -0.07)">
     <defs>
      <path id="DejaVuSans-31" d="M 794 531 
L 1825 531 
L 1825 4091 
L 703 3866 
L 703 4441 
L 1819 4666 
L 2450 4666 
L 2450 531 
L 3481 531 
L 3481 0 
L 794 0 
L 794 531 
z
" transform="scale(0.015625)"/>
      <path id="DejaVuSans-3a" d="M 750 794 
L 1409 794 
L 1409 0 
L 750 0 
L 750 794 
z
M 750 3309 
L 1409 3309 
L 1409 2516 
L 750 2516 
L 750 3309 
z
" transform="scale(0.015625)"/>
      <path id="DejaVuSans-39" d="M 703 97 
L 703 672 
Q 941 559 1184 500 
Q 1428 441 1663 441 
Q 2288 441 2617 861 
Q 2947 1281 2994 2138 
Q 2813 1869 2534 1725 
Q 2256 1581 1919 1581 
Q 1219 1581 811 2004 
Q 403 2428 403 3163 
Q 403 3881 828 4315 
Q 1253 4750 1959 4750 
Q 2769 4750 3195 4129 
Q 3622 3509 3622 2328 
Q 3622 1225 3098 567 
Q 2575 -91 1691 -91 
Q 1453 -91 1209 -44 
Q 966 3 703 97 
z
M 1959 2075 
Q 2384 2075 2632 2365 
Q 2881 2656 2881 3163 
Q 2881 3666 2632 3958 
Q 2384 4250 1959 4250 
Q 1534 4250 1286 3958 
Q 1038 3666 1038 3163 
Q 1038 2656 1286 2365 
Q 1534 2075 1959 2075 
z
" transform="scale(0.015625)"/>
     </defs>
     <use xlink:href="#DejaVuSans-31"/>
     <use xlink:href="#DejaVuSans-3a" x="63.623047"/>
     <use xlink:href="#DejaVuSans-39" x="97.314453"/>
    </g>
   </g>
   <g id="text_26">
    <!-- 1:1 -->
    <g style="fill: #1f0909" transform="translate(172.94577 298.293656)scale(0.07 -0.07)">
     <use xlink:href="#DejaVuSans-31"/>
     <use xlink:href="#DejaVuSans-3a" x="63.623047"/>
     <use xlink:href="#DejaVuSans-31" x="97.314453"/>
    </g>
   </g>
   <g id="text_27">
    <!-- 9:1 -->
    <g style="fill: #1f0909" transform="translate(294.981913 298.293656)scale(0.07 -0.07)">
     <use xlink:href="#DejaVuSans-39"/>
     <use xlink:href="#DejaVuSans-3a" x="63.623047"/>
     <use xlink:href="#DejaVuSans-31" x="97.314453"/>
    </g>
   </g>
   <g id="text_28">
    <!-- Gravel-sand-mud diagram (Folk, 1954) -->
    <g style="fill: #1f0909" transform="translate(100.927332 9.67875)scale(0.08 -0.08)">
     <defs>
      <path id="DejaVuSans-2d" d="M 313 2009 
L 1997 2009 
L 1997 1497 
L 313 1497 
L 313 2009 
z
" transform="scale(0.015625)"/>
      <path id="DejaVuSans-73" d="M 2834 3397 
L 2834 2853 
Q 2591 2978 2328 3040 
Q 2066 3103 1784 3103 
Q 1356 3103 1142 2972 
Q 928 2841 928 2578 
Q 928 2378 1081 2264 
Q 1234 2150 1697 2047 
L 1894 2003 
Q 2506 1872 2764 1633 
Q 3022 1394 3022 966 
Q 3022 478 2636 193 
Q 2250 -91 1575 -91 
Q 1294 -91 989 -36 
Q 684 19 347 128 
L 347 722 
Q 666 556 975 473 
Q 1284 391 1588 391 
Q 1994 391 2212 530 
Q 2431 669 2431 922 
Q 2431 1156 2273 1281 
Q 2116 1406 1581 1522 
L 1381 1569 
Q 847 1681 609 1914 
Q 372 2147 372 2553 
Q 372 3047 722 3315 
Q 1072 3584 1716 3584 
Q 2034 3584 2315 3537 
Q 2597 3491 2834 3397 
z
" transform="scale(0.015625)"/>
      <path id="DejaVuSans-6d" d="M 3328 2828 
Q 3544 3216 3844 3400 
Q 4144 3584 4550 3584 
Q 5097 3584 5394 3201 
Q 5691 2819 5691 2113 
L 5691 0 
L 5113 0 
L 5113 2094 
Q 5113 2597 4934 2840 
Q 4756 3084 4391 3084 
Q 3944 3084 3684 2787 
Q 3425 2491 3425 1978 
L 3425 0 
L 2847 0 
L 2847 2094 
Q 2847 2600 2669 2842 
Q 2491 3084 2119 3084 
Q 1678 3084 1418 2786 
Q 1159 2488 1159 1978 
L 1159 0 
L 581 0 
L 581 3500 
L 1159 3500 
L 1159 2956 
Q 1356 3278 1631 3431 
Q 1906 3584 2284 3584 
Q 2666 3584 2933 3390 
Q 3200 3197 3328 2828 
z
" transform="scale(0.015625)"/>
      <path id="DejaVuSans-28" d="M 1984 4856 
Q 1566 4138 1362 3434 
Q 1159 2731 1159 2009 
Q 1159 1288 1364 580 
Q 1569 -128 1984 -844 
L 1484 -844 
Q 1016 -109 783 600 
Q 550 1309 550 2009 
Q 550 2706 781 3412 
Q 1013 4119 1484 4856 
L 1984 4856 
z
" transform="scale(0.015625)"/>
      <path id="DejaVuSans-46" d="M 628 4666 
L 3309 4666 
L 3309 4134 
L 1259 4134 
L 1259 2759 
L 3109 2759 
L 3109 2228 
L 1259 2228 
L 1259 0 
L 628 0 
L 628 4666 
z
" transform="scale(0.015625)"/>
      <path id="DejaVuSans-6f" d="M 1959 3097 
Q 1497 3097 1228 2736 
Q 959 2375 959 1747 
Q 959 1119 1226 758 
Q 1494 397 1959 397 
Q 2419 397 2687 759 
Q 2956 1122 2956 1747 
Q 2956 2369 2687 2733 
Q 2419 3097 1959 3097 
z
M 1959 3584 
Q 2709 3584 3137 3096 
Q 3566 2609 3566 1747 
Q 3566 888 3137 398 
Q 2709 -91 1959 -91 
Q 1206 -91 779 398 
Q 353 888 353 1747 
Q 353 2609 779 3096 
Q 1206 3584 1959 3584 
z
" transform="scale(0.015625)"/>
      <path id="DejaVuSans-6b" d="M 581 4863 
L 1159 4863 
L 1159 1991 
L 2875 3500 
L 3609 3500 
L 1753 1863 
L 3688 0 
L 2938 0 
L 1159 1709 
L 1159 0 
L 581 0 
L 581 4863 
z
" transform="scale(0.015625)"/>
      <path id="DejaVuSans-2c" d="M 750 794 
L 1409 794 
L 1409 256 
L 897 -744 
L 494 -744 
L 750 256 
L 750 794 
z
" transform="scale(0.015625)"/>
      <path id="DejaVuSans-34" d="M 2419 4116 
L 825 1625 
L 2419 1625 
L 2419 4116 
z
M 2253 4666 
L 3047 4666 
L 3047 1625 
L 3713 1625 
L 3713 1100 
L 3047 1100 
L 3047 0 
L 2419 0 
L 2419 1100 
L 313 1100 
L 313 1709 
L 2253 4666 
z
" transform="scale(0.015625)"/>
      <path id="DejaVuSans-29" d="M 513 4856 
L 1013 4856 
Q 1481 4119 1714 3412 
Q 1947 2706 1947 2009 
Q 1947 1309 1714 600 
Q 1481 -109 1013 -844 
L 513 -844 
Q 928 -128 1133 580 
Q 1338 1288 1338 2009 
Q 1338 2731 1133 3434 
Q 928 4138 513 4856 
z
" transform="scale(0.015625)"/>
     </defs>
     <use xlink:href="#DejaVuSans-47"/>
     <use xlink:href="#DejaVuSans-72" x="77.490234"/>
     <use xlink:href="#DejaVuSans-61" x="118.603516"/>
     <use xlink:href="#DejaVuSans-76" x="179.882812"/>
     <use xlink:href="#DejaVuSans-65" x="239.0625"/>
     <use xlink:href="#DejaVuSans-6c" x="300.585938"/>
     <use xlink:href="#DejaVuSans-2d" x="328.369141"/>
     <use xlink:href="#DejaVuSans-73" x="364.453125"/>
     <use xlink:href="#DejaVuSans-61" x="416.552734"/>
     <use xlink:href="#DejaVuSans-6e" x="477.832031"/>
     <use xlink:href="#DejaVuSans-64" x="541.210938"/>
     <use xlink:href="#DejaVuSans-2d" x="604.6875"/>
     <use xlink:href="#DejaVuSans-6d" x="640.771484"/>
     <use xlink:href="#DejaVuSans-75" x="738.183594"/>
     <use xlink:href="#DejaVuSans-64" x="801.5625"/>
     <use xlink:href="#DejaVuSans-20" x="865.039062"/>
     <use xlink:href="#DejaVuSans-64" x="896.826172"/>
     <use xlink:href="#DejaVuSans-69" x="960.302734"/>
     <use xlink:href="#DejaVuSans-61" x="988.085938"/>
     <use xlink:href="#DejaVuSans-67" x="1049.365234"/>
     <use xlink:href="#DejaVuSans-72" x="1112.841797"/>
     <use xlink:href="#DejaVuSans-61" x="1153.955078"/>
     <use xlink:href="#DejaVuSans-6d" x="1215.234375"/>
     <use xlink:href="#DejaVuSans-20" x="1312.646484"/>
     <use xlink:href="#DejaVuSans-28" x="1344.433594"/>
     <use xlink:href="#DejaVuSans-46" x="1383.447266"/>
     <use xlink:href="#DejaVuSans-6f" x="1437.341797"/>
     <use xlink:href="#DejaVuSans-6c" x="1498.523438"/>
     <use xlink:href="#DejaVuSans-6b" x="1526.306641"/>
     <use xlink:href="#DejaVuSans-2c" x="1584.216797"/>
     <use xlink:href="#DejaVuSans-20" x="1616.003906"/>
     <use xlink:href="#DejaVuSans-31" x="1647.791016"/>
     <use xlink:href="#DejaVuSans-39" x="1711.414062"/>
     <use xlink:href="#DejaVuSans-35" x="1775.037109"/>
     <use xlink:href="#DejaVuSans-34" x="1838.660156"/>
     <use xlink:href="#DejaVuSans-29" x="1902.283203"/>
    </g>
   </g>
  </g>
 </g>
 <defs>
  <clipPath id="p3b9543edc4">
   <rect x="12.440269" y="15.67875" width="332.276627" height="287.76"/>
  </clipPath>
 </defs>
</svg>
