<svg id="logo" xmlns="http://www.w3.org/2000/svg" viewBox="0 0 293 293"><defs><style>.cls-1,.cls-6{fill:#fff;}.cls-1{stroke:#dce0e2;stroke-miterlimit:10;stroke-width:10px;}.cls-2{fill:#4d8430;}.cls-3{fill:#e5b751;}.cls-4{fill:#8abcd1;}.cls-5{fill:#d0dfe6;}.cls-7{fill:#dce0e2;}</style></defs><title>logo</title><circle class="cls-1" cx="146.5" cy="146.5" r="141.5"/><path class="cls-2" d="M155.68,320.66c-2.87,1-5.12,1.69-6.46,3.88-1,1.63-3.72,7.68,18.41,37.14,9,12,13.52,18,20,24.23a137,137,0,0,0,41,26.81,148.41,148.41,0,0,0,55.24,11c10.91.11,33.33.1,59.11-11.3,21-9.27,33.87-21.53,41.67-29.07,10.21-9.87,25.3-24.81,32-48.46,2.51-8.91,3.77-13.37,2.26-17.76-2.75-7.95-13.59-17.29-90.12-20,0,0-76.87-2.75-139.87,11.31C176.88,311.08,182.8,311.58,155.68,320.66Z" transform="translate(-137.38 -136.86)"/><path class="cls-3" d="M222,412.92a1,1,0,0,1,.51-2c26.64.25,55-21.15,72-38.3,15.87-16,44.13-39.1,36.23-46.25l-.15-.12c-8-5.59-31.36-1.82-30.46-2.08L267,320.42a1.05,1.05,0,0,1-.88-.75l-3-10.38A1.05,1.05,0,0,1,264,308c110.13-9.24,132.8,4.39,144.1,12.12,4.48,3.07.73,1.77-.31,2-9,1.94-17.67,2.85-34.29,3.56-7.65.33-9.58,1.33-15.29,5.38-2,1.4-12.48,7-13.55,8.66C322,364.56,315.93,378,314,396c-.8,8.66,9.06,15.59,13.69,20.61a1,1,0,0,1-.68,1.75l-71.54,6.27a1.06,1.06,0,0,1-.31,0C250.33,423.51,230.84,417.88,222,412.92Z" transform="translate(-137.38 -136.86)"/><path class="cls-4" d="M147.28,243.14c4-3.68,9.32-4.12,19.7-4.85,35.48-2.48,54.11,4.2,75.91,6.78,9.31,1.11,7,.46,19.38-2.09,11.26-2.34,22.11-6.76,42.32-6,34.93,1.34,40.63,7.32,61.8,6.57,13.28-.47,16.48-4.38,26.38-6.25,16.31-3.08,20.69-8.61,23.58-4.2,8.5,13,9.12,44.7,8.72,58.79-.29,10.58-1.27,27.83-5.56,35.25-.95,1.65-10.18,1.92-19.31.17,0,0-19-1.29-22.34-1.82-9.82-1.57,32.39-1.51,28.06-5.17S380,309,361.81,311.62c-2.94.42-17.65,8.56-25.24-.33-2.29-2.67-15.06-3.46-23.91,0-7.42,2.91-13.27,2.13-21.75.33-5.12-1.09-7.61-.77-16.58,1.5-7,1.78,4.32,6.11,13.14,6.89,14,1.24,22.23,2.18,26.16,2.88a26.5,26.5,0,0,0,2.95.34c1.78.26-2.58.7-6.34,1.26-15.56,2.29-57.57-.63-80.91-1.57-21.35-.86-21.27-7.75-49.43-2.42-17.65,3.34-22.72,9.81-28.42,4.78-4.12-3.63-5.56-16.44-8.7-26.26C141.86,296.16,138.69,251,147.28,243.14Z" transform="translate(-137.38 -136.86)"/><path class="cls-5" d="M153.74,227.63,171,194.25l26.49-25.62,21.33-11.2,19.37-9,23.75-6.47,30.56-1.5s20.84,4.21,21.7,4.26,29.72,9.52,29.72,9.52l31.66,18.52s25.59,30.79,26.25,31.44,6.91,10.27,6.91,10.27l-16.39,5.23-24.53-2.37H357.42l-4.7,8.23-21.54-2.58L312,214.43l-19.55-.73-19.21,2.85-20-1.19-23.47,5.81-25.95,18.49-17.12-5.3-17.66,1L161.71,227Z" transform="translate(-137.38 -136.86)"/><path class="cls-3" d="M410.88,228.59a137,137,0,0,0-9.08-17.74l-.22-.11c-1.18,0-14,5.29-13.49,5.75-12.48-.18-11.88-3.1-16.11-6-14.82-4.26-20.51,4-27.82,9-27.19,2.86-13.55-16.33-60.55-6-57.6-4.84-44.23,8.78-83.89,24.62-.15-.22,13.86-6.92,13.7-7.14,3.36-2,10.27-7.62,14.05-9.92-31.51-8.42-37.54,4.86-54.86,9.16-3.94-6.89-7.17-4.58-12.83-7.75-4.64,8.4-5.69,12.13-8.3,22,56.74-10.5,113.52,10.93,170.7,6.56-21.1-2.31-42.39-3.4-63.3-6.65,60.5.37,72.62,3.78,104.8.9-7.42,1.31-14.82,2.59-22.22,3.89,0,.22,0,.45.08.67,24.5-1.26,49.37-5,73.59-9.73C413.87,236.21,412.47,232.35,410.88,228.59Zm-153-4.71c-2.17,6,.7,13.18.4,19.1.31-3.46-10.21-14.46,2.76-25.69A15.91,15.91,0,0,0,257.87,223.88Zm42.37-4.62c-8.81,10.31-19.45,20.37-27.79,20.57,5.6-6.91,21.62-18,30.44-25.11C302.78,215.4,300.53,218.62,300.24,219.26Zm66.26,22.8c-10.45-17.94-1.58-26.87-1-23.41C364.72,229.56,370.9,233,366.5,242.06Z" transform="translate(-137.38 -136.86)"/><path class="cls-6" d="M226.51,307.19l3.56,1.78a3.84,3.84,0,0,0,1.16.37l2.6.38a5.65,5.65,0,0,0,1,.07l5.56-.07a8.74,8.74,0,0,0,1-.07l2.94-.42a7.44,7.44,0,0,0,2.79-1l2-1.21a.21.21,0,0,0-.11-.38H226.64A.28.28,0,0,0,226.51,307.19Z" transform="translate(-137.38 -136.86)"/><path class="cls-6" d="M213.91,301.08l7.4,1.17a22.09,22.09,0,0,0,2.41.24l5.4.25c.7,0,1.41.05,2.12.05l11.56,0c.7,0,1.41,0,2.11-.06l6.12-.27a42,42,0,0,0,5.79-.64L261,301c.36-.07.21-.24-.22-.24H214.17C213.56,300.74,213.36,301,213.91,301.08Z" transform="translate(-137.38 -136.86)"/><path class="cls-6" d="M203.31,295l10.3,1.31c1,.13,2.19.22,3.36.27l7.52.28c1,0,2,.05,2.95.05l16.1-.05c1,0,2,0,2.94-.06l8.53-.3a69.71,69.71,0,0,0,8.06-.73l5.82-.89c.51-.08.29-.27-.3-.27H203.67C202.82,294.56,202.54,294.85,203.31,295Z" transform="translate(-137.38 -136.86)"/><path class="cls-7" d="M283.88,429.86c-80.78,0-146.5-65.72-146.5-146.5s65.72-146.5,146.5-146.5,146.5,65.72,146.5,146.5S364.67,429.86,283.88,429.86Zm0-283c-75.26,0-136.5,61.23-136.5,136.5s61.24,136.5,136.5,136.5,136.5-61.23,136.5-136.5S359.15,146.86,283.88,146.86Z" transform="translate(-137.38 -136.86)"/></svg>